<svg width="1408" height="768" viewBox="0 0 1408 768" fill="none" xmlns="http://www.w3.org/2000/svg">
<path d="M399.99 240.171L400.662 240.234L400.914 239.295C399.377 238.229 399.177 238.146 398.053 236.688L398.956 234.916C402.226 233.463 400.853 236.311 404.919 235.409C419.04 242.406 435.713 256.984 445.972 268.82C438.525 271.548 413.717 279.999 406.18 281.618C402.26 283.645 388.818 287.455 383.887 289.114C392.693 295.902 401.389 302.831 409.972 309.898L404.564 316.446C403.794 315.425 402.989 314.431 402.15 313.467C378.655 286.305 351.691 274.889 316.569 272.33C296.886 273.185 285.794 275.412 267.854 283.736C274.042 273.416 283.509 265.024 292.879 257.702C294.429 256.735 296.53 254.939 298.012 253.751L302.47 251.075C334.651 232.017 364.813 231.17 399.99 240.171Z" fill="url(#paint0_linear_1_2)"/>
<path d="M316.569 272.33C320.35 267.468 342.674 262.917 349.123 262.098C366.243 259.925 385.016 261.772 400.918 268.758C406.483 271.203 411.375 274.53 416.932 277.024C413.764 278.032 407.917 279.263 406.18 281.618C402.26 283.645 388.818 287.455 383.887 289.114C392.693 295.902 401.389 302.831 409.972 309.898L404.564 316.446C403.794 315.425 402.989 314.431 402.15 313.467C378.655 286.305 351.691 274.889 316.569 272.33Z" fill="#1487C0"/>
<path d="M245.965 489.965C270.318 507.887 289.593 514.701 319.653 514.376C317.81 514.911 315.98 516.106 314.254 516.974C294.201 527.064 269.585 528.324 247.945 523.251C239.249 521.213 217.046 513.979 212.179 506.006C228.306 510.39 238.964 505.177 245.965 489.965Z" fill="#1487C0"/>
<path d="M256.624 207.461C259.847 205.187 263.858 204.327 267.73 205.081C273.368 206.225 276.491 209.636 279.539 214.146C286.032 212.761 292.598 211.74 299.204 211.089C329.874 208.182 360.764 213.485 388.708 226.454C393.091 228.467 400.5 233 404.947 235.358C419.068 242.355 437 257.5 446.5 269C439.066 271.723 406.115 281.965 406 282C406 282 388.847 287.403 383.915 289.063C392.721 295.851 401.417 302.78 410 309.847L404.592 316.395C403.822 315.374 403.017 314.38 402.178 313.416C378.683 286.254 351.719 274.838 316.597 272.279C296.914 273.134 285.822 275.361 267.882 283.685C274.07 273.365 283.537 264.972 292.907 257.651C289.565 253.742 275.929 236.899 272.531 235.761C268.802 236.16 265.208 236.722 261.473 236.617C255.096 252.706 248.154 268.769 241.894 284.781C246.137 288.143 248.831 291.311 249.483 296.942C249.942 301.182 248.661 305.428 245.932 308.706C241.278 314.378 234.969 315.604 228.073 314.238C213.075 336.347 206.361 353.08 201.667 379.22C214.999 388.194 214.12 400.616 201.364 409.553C205.856 431.938 209.303 445.622 220.157 466.575C230.366 467.407 238.844 472.709 237.802 484.073C237.369 488.574 235.165 492.72 231.676 495.596C221.678 503.815 211.783 497.511 205.958 488.044C197.512 489.045 189.059 489.984 180.599 490.86L178.319 496.972C185.722 497.402 193.131 497.701 200.545 497.868C204.752 501.333 207.243 503.387 212.207 505.955C228.334 510.339 238.992 505.126 245.993 489.914C270.346 507.836 289.621 514.65 319.681 514.325C334.644 513.195 345.361 509.916 359.125 504.355C355.725 513.748 328.92 529.177 319.928 533.5C283.884 550.828 241.036 551.139 205.44 532.467C202.024 530.676 189.459 522.265 187.166 522.214C180.33 515.92 176.725 511.641 171.041 504.26C152.961 509.865 139.811 491.844 153.381 477.165C140.77 452.097 137.192 436.22 132.992 409.227C126.331 407.252 121.229 403.155 119.581 396.11C118.65 392.22 119.308 388.118 121.411 384.716C124.282 380.134 128.08 378.062 133.147 376.896C138.242 343.743 143.159 323.723 162.024 294.693C160.751 293.2 159.709 291.526 158.932 289.725C152.71 275.116 166.482 263.623 181.789 269.908C202.286 246.943 221.804 235.346 249.205 222.939C249.662 216.224 250.582 211.641 256.624 207.461ZM179.606 449.244C177.043 457.558 174.415 466.623 171.63 474.81C176.289 478.254 177.225 479.344 179.881 484.457L197.477 482.505L205.648 481.619C206.353 479.171 206.997 476.642 208.018 474.315C203.891 470.553 182.79 451.069 179.606 449.244ZM142.145 407.369C136.063 413.514 152.432 471.731 162.125 473.321C166.279 472.292 166.093 470.609 167.078 466.574L174.528 443.946C169.636 438.238 146.023 409.297 142.145 407.369ZM193.126 410.047C189.155 419.89 185.76 431.598 182.188 441.799C190.305 449.616 199.171 457.412 207.566 464.993L214.401 470.671C209.681 460.572 205.313 451.34 201.885 440.311C199.228 431.763 196.588 420.182 194.881 411.076C194.199 410.677 193.615 410.334 193.126 410.047ZM152.088 396.521C151.01 398.473 149.555 401.295 148.32 403.057C152.652 408.154 173.464 433.106 176.889 435.851C178.026 434.027 178.164 433.706 178.729 431.632L186.393 408.327C181.803 404.498 180.832 402.638 178.561 397.079C169.738 396.833 160.914 396.647 152.088 396.521ZM180.437 342.173C171.329 352.717 155.792 371.221 147.816 382.278C149.372 384.725 150.894 388.661 152.609 389.843L155.891 390.004C163.538 390.208 171.397 390.508 179.027 390.597C181.711 384.274 182.998 382.788 188.561 378.84C187.361 373.341 182.3 344.093 180.437 342.173ZM167.038 298.8C157.715 315 149.335 330.427 145.102 348.863C144.059 353.405 137.749 374.747 142.218 377.581C144.4 377.019 145.554 374.812 146.897 372.912C157.399 359.438 168.208 346.206 179.315 333.227C177.306 322.554 174.857 310.751 173.401 300.091C171.508 299.725 168.827 299.282 167.038 298.8ZM221.132 310.745C210.444 317.401 197.044 327.763 186.807 335.406C188.861 347.311 191.172 359.172 193.737 370.978C194.151 372.657 194.536 374.393 195.084 376.028C199.615 356.925 204.445 338.417 215.452 321.884C216.859 319.773 221.353 312.841 221.132 310.745ZM188.136 290.357C185.27 294.653 183.833 296.05 179.471 298.832C181.278 308.164 183.141 319.048 185.345 328.166L199.946 317.509L217.797 304.85L217.179 298.15L188.136 290.357ZM250.449 229.56C221.864 242.737 208.751 251.863 186.519 274.185C188.689 278.198 189.05 279.649 190.19 283.934L198.314 286.169C205.018 288.019 211.694 289.974 218.337 292.033C222.587 286.484 224.9 283.534 232.352 282.622C233.435 282.498 234.522 282.417 235.611 282.378L255.669 233.976C254.604 232.946 251.613 229.755 250.449 229.56ZM381.461 230.496C353.987 218.807 323.915 214.581 294.284 218.244C289.943 218.752 285.62 219.407 281.324 220.21C280.913 224.513 280.238 227 278.025 230.79C284.838 238.311 291.502 245.966 298.012 253.751L302.47 251.075C334.651 232.017 364.813 231.17 399.99 240.171C395.532 236.685 386.709 232.692 381.461 230.496Z" fill="url(#paint1_linear_1_2)"/>
<path d="M245.786 490C270.139 507.922 289.414 514.736 319.474 514.411C317.631 514.946 315.801 516.141 314.075 517.009C294.022 527.099 269.406 528.359 247.766 523.286C239.07 521.248 216.867 514.014 212 506.041C228.127 510.425 238.785 505.212 245.786 490Z" fill="#1B5B88"/>
<path d="M316.5 272.232C320.281 267.37 342.605 262.819 349.054 262C366.174 259.827 384.598 260.514 400.5 267.5C406.651 269.84 418 278.25 418 278.25L406.5 282C406.5 282 388.749 287.357 383.818 289.016C392.624 295.804 401.32 302.733 409.903 309.8L404.495 316.348C403.725 315.327 402.92 314.333 402.081 313.369C378.586 286.207 351.622 274.791 316.5 272.232Z" fill="#103652"/>
<path d="M460.516 350.495C466.777 355.427 482.254 367.623 487.32 372.805C494.463 415.394 481.076 463.87 456.245 498.847C428.234 537.731 386.075 564.06 338.846 572.166C293.446 579.63 246.948 568.626 209.707 541.607C201.686 535.764 194.14 529.297 187.138 522.265C189.43 522.315 201.996 530.727 205.412 532.518C241.008 551.19 283.856 550.879 319.9 533.551C328.892 529.228 355.697 513.799 359.097 504.406C405.569 480.855 429.452 441.176 428.189 389.107C438.849 376.153 450.069 363.604 460.516 350.495Z" fill="#1B8848"/>
<path d="M489.178 264.148L490.076 263.933V264.5C490.304 268.085 489.721 272.083 489.304 275.67L481.899 356.865C474.924 350.634 466.612 344.019 459.289 338.179C417.366 389.329 344.909 479.051 283.225 500.51C268.877 495.493 258.68 488.408 246.607 479.498C244.898 474.173 244.287 472.679 241.575 467.786C290.185 459.123 342.074 401.612 373.942 365.838C390.603 347.232 406.741 328.163 422.337 308.656C415.619 303.216 408.933 297.738 402.279 292.222C427.791 284.221 453.231 275.99 478.594 267.53L489.178 264.148Z" fill="url(#paint2_linear_1_2)"/>
<path d="M311.802 297.853C318.565 298.418 321.165 301.165 324.126 306.913C337.952 308.198 346.756 311.968 358.851 318.282C367.371 313.235 378.38 316.301 378.799 327.096C378.966 330.941 378.185 333.244 375.5 336C367.267 344.35 353.834 338.822 354.436 325.223C342.242 319.109 337.506 317.009 324.173 315.101C317.459 326.307 307.899 325.602 300.366 315.584C276.92 322.022 265.702 330.546 250.766 349.102C259.5 370.5 242.013 365.772 240 369C235.554 384.64 235.57 403.217 240.107 418.716C246.272 420.517 252.196 422.292 253.395 429.548C254.591 436.786 251.059 443.027 243.571 444.179C239.877 444.728 236.118 443.761 233.147 441.499C226.27 436.158 227.879 428.572 232.685 422.479C226.573 401.324 226.889 388.089 232.452 366.8C231.366 365.305 228.529 360.603 228 359C226.173 344.049 241.695 347.169 243.903 344.348C259.779 324.06 273.553 313.937 299.676 307.689C303.21 301.113 304.471 299.442 311.802 297.853Z" fill="url(#paint3_linear_1_2)"/>
<path fill-rule="evenodd" clip-rule="evenodd" d="M618.53 367.247C645.687 365.651 654.361 394.617 639.523 414.038C630.911 425.309 615.95 422.93 605.714 413.657L605.902 427.353L605.797 444.169L591.265 444.135L591.229 367.682C593.839 367.641 603.859 367.145 605.381 368.272C605.64 369.958 605.752 371.161 605.854 372.864C608.016 372.768 612.182 368.727 618.53 367.247ZM617.6 379.649C599.382 384.616 603.091 408.298 620.437 408.599C625.147 406.953 627.9 405.57 630.134 400.78C632.022 396.8 632.175 392.214 630.555 388.116C628.278 382.353 623.6 379.769 617.6 379.649Z" fill="#1B8848"/>
<path d="M987.91 367.424C997.533 365.389 1007.51 368.683 1014.03 376.049C1020.54 383.414 1022.6 393.714 1019.42 403.02C1016.23 412.325 1008.29 419.201 998.623 421.022C983.906 423.796 969.699 414.207 966.763 399.521C963.828 384.835 973.258 370.521 987.91 367.424ZM996.156 408.403C1011.93 401.681 1008.4 378.548 990.813 379.593C975.973 386.195 978.176 409.04 996.156 408.403Z" fill="#1B5B88"/>
<path d="M566.589 353.896L581.584 353.781L581.559 366.295C581.813 389.473 587.297 419.965 554.562 421.385C545.979 421.757 533.4 417.069 530.092 409.282C524.217 395.454 526.453 368.756 526.537 353.857L541.105 353.824C541.377 364.964 537.995 397.196 545.344 404.569C547.654 406.887 550.778 407.828 553.995 407.83C557.183 407.831 560.363 406.837 562.615 404.504C564.695 402.349 565.831 399.529 566.361 396.615C568.096 387.079 566.667 364.699 566.589 353.896Z" fill="#1B8848"/>
<path d="M923.888 353.533C943.456 351.777 955.054 357.312 962.211 376.002L946.386 376.028C933.957 357.594 911.061 366.829 912.638 388.235C913.908 405.47 929.909 414.948 943.349 401.835C946.955 395.911 955.516 398.204 961.82 398.674C961.003 400.749 960.094 402.785 959.094 404.778C950.755 421.142 929.661 425.56 914.262 417.019C906.793 412.879 901.309 405.9 899.053 397.663C893.172 376.872 903.22 359.241 923.888 353.533Z" fill="#1B5B88"/>
<path d="M862.823 367.275C884.773 365.844 893.229 377.321 892.927 398.101L855.131 398.169C859.016 409.838 868.781 413.907 876.981 403.468L888.422 403.502L890.734 403.677L891.42 404.662C891.153 410.925 880.86 419.486 875.221 420.786C848.786 426.88 832.095 400.579 845.123 378.141C848.856 371.711 855.896 368.649 862.823 367.275ZM864.177 378.908C858.835 381.273 857.373 383.011 855.217 388.617L855.008 389.169L869.224 389.136C871.999 389.222 875.341 389.718 877.464 388.118C880.595 381.475 869.174 378.821 864.177 378.908Z" fill="#1B8848"/>
<path d="M1166.7 367.247C1188.65 366.021 1197.81 376.772 1197.09 398.117L1159.17 398.208L1159.32 398.586C1163.87 409.809 1173.1 414.262 1181.34 403.539L1192.98 403.533C1194.38 403.498 1194.49 403.379 1195.72 404.109C1196.85 409.981 1184.72 419.525 1179.48 420.747C1153.33 426.845 1136.73 400.887 1149.21 378.489C1152.79 372.074 1159.71 368.896 1166.7 367.247ZM1181.99 384.753C1178.2 379.499 1174.1 378.498 1167.98 378.962C1162.38 381.638 1161.68 383.353 1159.17 389.146L1174.06 389.114C1176.49 389.214 1179.6 389.684 1181.45 388.316C1182.58 386.254 1182.41 387.193 1181.99 384.753Z" fill="#1B5B88"/>
<path d="M536.76 194.163C538.425 193.859 547.272 193.727 549.474 193.662C540.609 205.823 542.909 211.36 539.064 224.422C532.675 246.129 515.835 243.274 501.257 251.228C504.156 235.229 508.998 227.545 519.761 215.636L520.547 215.102L520.116 214.625C504.741 221.939 498.397 235.666 492.239 250.439C481.277 214.95 504.648 197.458 536.76 194.163Z" fill="#1B8848"/>
<path d="M744.32 367.663L759.846 367.835C755.563 379.554 749.455 393.276 744.563 404.952L728.302 444.22L712.372 444.124L723.851 418.734C716.473 401.906 709.455 384.923 702.8 367.796L718.629 367.744C723.041 378.547 727.111 390.95 731.499 402.172C736.019 391.275 740.264 378.846 744.32 367.663Z" fill="#1B8848"/>
<path d="M1114.33 367.231C1145.05 365.658 1138.57 399.375 1138.43 420.681L1123.71 420.578C1123.59 410.862 1124.5 400.758 1123.79 391.147C1123.09 381.774 1117.95 378.828 1109.37 379.868C1098.47 385.607 1102.19 409.109 1102.22 420.709L1087.56 420.615V367.701C1091.11 367.627 1099.02 366.912 1101.55 369.213C1101.96 369.585 1101.86 370.722 1101.91 371.462L1102.92 372.242C1106.87 370.039 1109.83 368.133 1114.33 367.231Z" fill="#1B5B88"/>
<path d="M1053.52 367.335C1054.63 367.232 1055.74 367.181 1056.85 367.184C1084.25 367.209 1078.13 401.464 1078.05 420.567L1063.56 420.503C1063.43 410.534 1064.37 399.911 1063.36 390.08C1062.42 380.954 1056.61 378.534 1048.38 380.014C1041.43 385.277 1041.84 390.788 1041.97 399.084C1042.08 406.294 1042.21 413.504 1042.25 420.716L1027.52 420.48L1027.56 367.749C1031.75 367.665 1036.09 367.491 1040.27 367.796C1043.23 368.013 1041.02 370.461 1042.67 372.371C1046.12 370.434 1049.01 368.65 1052.83 367.531L1053.52 367.335Z" fill="#1B5B88"/>
<path d="M525.247 250.375C543.36 248.577 559.541 258.012 570.699 271.649C551.145 274.396 546.011 288.677 527.682 288.031C521.45 287.812 512.7 282.462 504.853 281.099L504.503 281.041C502.687 281.321 501.362 281.677 499.565 281.318C499.783 280.982 500.001 280.646 500.218 280.31C513.234 268.116 526.397 267.87 541.714 266.869C523.777 262.148 514.456 263.949 498.215 272.062C499.123 270.249 500.126 268.484 501.22 266.777C507.173 257.461 514.736 252.722 525.247 250.375Z" fill="#1B8848"/>
<path d="M782.252 367.258C797.655 366.384 807.718 370.19 811.923 386.208L796.991 386.406C788.342 371.915 775.399 380.969 775.844 394.931C775.915 400.916 778.606 407.859 785.448 408.462C794.864 409.292 792.572 402.379 802.319 401.847L812.007 402.07C809.656 410.662 804.81 417.901 795.609 420.36C769.086 427.449 752.534 401.21 764.988 378.578C768.479 372.234 775.332 368.887 782.252 367.258Z" fill="#1B8848"/>
<path d="M671.329 367.343C687.216 366.258 697.278 369.716 701.858 386.2L687.051 386.32C669.497 357.645 651.945 416.148 681.913 407.506C684.524 406.752 684.539 402.562 690.078 401.958L702.052 402.11C701.519 404.022 700.484 406.933 699.627 408.681C697.017 414.015 692.38 418.082 686.751 419.973C650.387 431.98 634.932 377.931 671.329 367.343Z" fill="#1B8848"/>
<path d="M1223.02 367.264C1239.55 366.09 1247.32 370.837 1252.93 386.269L1237.78 386.284C1225.34 367.403 1211.26 389.372 1218.11 403.127C1219.78 406.509 1222.41 408.242 1226.17 408.62C1235.42 409.553 1233.27 402.418 1242.5 402.048L1252.74 402.171C1252.04 404.82 1251.36 406.819 1250.03 409.252C1247.12 414.622 1242.18 418.598 1236.31 420.287C1199.67 430.758 1186.62 376.391 1223.02 367.264Z" fill="#1B5B88"/>
<path d="M1262.32 354.499L1276.78 354.56L1276.87 367.753L1288.35 367.792L1288.4 379.746L1276.75 379.731C1276.79 387.1 1276.1 397.102 1277.16 404.228C1278.13 410.774 1283.54 406.385 1287.71 409.038C1289.11 410.995 1288.62 413.659 1288.49 416.143C1288.59 418.118 1288.61 418.429 1288.04 420.315C1284.49 421.485 1275.87 420.55 1272.11 419.578C1255.73 415.344 1265.32 387.426 1261.52 380.156C1259.39 379.923 1259.09 379.886 1257.21 378.886C1255 375.772 1255.47 372.113 1255.81 368.437C1258.43 366.646 1258.27 368.547 1261.78 367.353C1262.75 364.563 1262.36 357.759 1262.32 354.499Z" fill="#1B5B88"/>
<path d="M818.95 350.213L833.816 350.243C833.929 373.712 833.9 397.181 833.727 420.649L818.966 420.542L818.95 350.213Z" fill="#1B8848"/>
<path d="M452.799 208.907C477.197 215.72 493.49 236.984 474.802 259.863C475.163 248.948 474.969 245.322 470.272 235.316C468.887 232.926 467.267 231.216 465.46 229.14C469.073 238.316 471.43 247.382 468.782 257.491C468.477 258.657 468.312 259.089 467.454 259.499C463.728 252.005 458.14 250.052 453.873 243.654C449.018 236.373 452.968 225.458 453.443 217.467C453.6 214.821 453.155 211.594 452.799 208.907Z" fill="#1B8848"/>
<path d="M537.205 459.09C540.176 459.09 542.552 459.931 544.335 461.613C545.065 462.297 545.585 462.988 545.897 463.685C546.214 464.375 546.372 465.246 546.372 466.297C546.372 467.096 546.106 467.778 545.574 468.342C545.048 468.901 544.408 469.18 543.656 469.18C542.903 469.18 542.261 468.901 541.729 468.342C541.203 467.778 540.939 467.096 540.939 466.297C540.939 465.889 541.016 465.505 541.169 465.144C541.321 464.778 541.534 464.459 541.805 464.189C541.398 463.384 540.846 462.814 540.15 462.477C539.46 462.141 538.591 461.973 537.544 461.973C536.859 461.973 536.223 462.12 535.634 462.414C535.051 462.709 534.545 463.12 534.115 463.649C533.69 464.177 533.325 464.802 533.02 465.523C532.714 466.243 532.485 467.036 532.332 467.901C532.185 468.76 532.112 469.667 532.112 470.622C532.112 471.565 532.202 472.471 532.383 473.342C532.564 474.213 532.827 475.006 533.173 475.721C533.518 476.435 533.922 477.06 534.386 477.595C534.851 478.123 535.382 478.535 535.982 478.829C536.588 479.123 537.222 479.27 537.884 479.27C538.846 479.27 539.74 478.997 540.566 478.45C541.398 477.904 542.085 477.138 542.629 476.153C543.178 475.162 543.52 474.039 543.656 472.784L546.372 473.505C546.236 474.207 546.078 474.862 545.897 475.468C545.716 476.069 545.489 476.67 545.218 477.27C544.946 477.865 544.638 478.402 544.292 478.883C543.947 479.363 543.54 479.811 543.07 480.225C542.6 480.64 542.083 480.988 541.517 481.27C540.951 481.547 540.303 481.763 539.573 481.919C538.843 482.075 538.053 482.153 537.205 482.153C536.192 482.153 535.224 482.039 534.302 481.811C533.385 481.589 532.553 481.276 531.806 480.874C531.065 480.471 530.38 479.991 529.752 479.432C529.124 478.874 528.58 478.258 528.122 477.586C527.664 476.907 527.273 476.189 526.951 475.432C526.634 474.67 526.396 473.886 526.238 473.081C526.079 472.27 526 471.45 526 470.622C526 469.793 526.079 468.976 526.238 468.171C526.396 467.36 526.634 466.577 526.951 465.82C527.273 465.057 527.664 464.339 528.122 463.667C528.58 462.988 529.124 462.369 529.752 461.811C530.38 461.252 531.065 460.772 531.806 460.369C532.553 459.967 533.385 459.655 534.302 459.432C535.224 459.204 536.192 459.09 537.205 459.09Z" fill="#707070"/>
<path d="M552.866 465.532C553.862 465.117 554.917 464.91 556.032 464.91C557.147 464.91 558.199 465.117 559.189 465.532C560.185 465.946 561.051 466.526 561.787 467.27C562.523 468.009 563.103 468.922 563.527 470.009C563.957 471.096 564.172 472.279 564.172 473.559C564.172 474.838 563.957 476.021 563.527 477.108C563.103 478.195 562.523 479.111 561.787 479.856C561.051 480.595 560.185 481.171 559.189 481.586C558.199 482 557.147 482.207 556.032 482.207C554.917 482.207 553.862 482 552.866 481.586C551.875 481.171 551.012 480.595 550.277 479.856C549.547 479.111 548.967 478.195 548.537 477.108C548.112 476.021 547.9 474.838 547.9 473.559C547.9 472.279 548.112 471.096 548.537 470.009C548.967 468.922 549.547 468.009 550.277 467.27C551.012 466.526 551.875 465.946 552.866 465.532ZM556.032 467.793C555.636 467.793 555.282 467.853 554.971 467.973C554.659 468.093 554.374 468.291 554.113 468.568C553.853 468.844 553.638 469.201 553.468 469.64C553.304 470.078 553.174 470.625 553.078 471.279C552.987 471.934 552.942 472.694 552.942 473.559C552.942 474.423 552.987 475.183 553.078 475.838C553.174 476.492 553.304 477.039 553.468 477.477C553.638 477.916 553.853 478.273 554.113 478.55C554.374 478.826 554.659 479.024 554.971 479.144C555.282 479.264 555.636 479.324 556.032 479.324C556.53 479.324 556.963 479.225 557.33 479.027C557.698 478.823 558.018 478.498 558.29 478.054C558.567 477.61 558.773 477.012 558.909 476.261C559.051 475.511 559.122 474.61 559.122 473.559C559.122 472.508 559.051 471.607 558.909 470.856C558.773 470.105 558.567 469.508 558.29 469.063C558.018 468.619 557.698 468.297 557.33 468.099C556.963 467.895 556.53 467.793 556.032 467.793Z" fill="#707070"/>
<path d="M586.743 464.856C587.535 464.856 588.228 464.97 588.822 465.198C589.416 465.426 589.903 465.742 590.282 466.144C590.661 466.541 590.967 467.048 591.199 467.667C591.437 468.279 591.601 468.94 591.691 469.649C591.787 470.351 591.836 471.156 591.836 472.063V478.91H593.533V481.793H585.384V478.91H587.082V471.703C587.082 470.754 587 470.015 586.836 469.486C586.677 468.958 586.445 468.595 586.14 468.396C585.84 468.198 585.43 468.099 584.909 468.099C584.422 468.099 583.922 468.324 583.407 468.775C582.892 469.225 582.405 469.856 581.947 470.667C581.975 471.099 581.989 471.565 581.989 472.063V478.91H583.687V481.793H575.538V478.91H577.236V471.703C577.236 470.754 577.154 470.015 576.989 469.486C576.831 468.958 576.599 468.595 576.293 468.396C575.993 468.198 575.583 468.099 575.063 468.099C574.587 468.099 574.101 468.312 573.603 468.739C573.105 469.165 572.632 469.76 572.185 470.523L572.143 478.91H573.84V481.793H565.691V478.91H567.389V468.099H565.691V465.216H570.963L572.151 467.658C572.36 467.255 572.601 466.895 572.873 466.577C573.15 466.252 573.478 465.958 573.857 465.694C574.242 465.423 574.692 465.216 575.207 465.072C575.722 464.928 576.285 464.856 576.896 464.856C577.581 464.856 578.192 464.94 578.73 465.108C579.267 465.27 579.723 465.514 580.096 465.838C580.475 466.156 580.789 466.538 581.038 466.982C581.287 467.42 581.485 467.931 581.633 468.514C581.774 468.123 581.938 467.757 582.125 467.414C582.317 467.072 582.561 466.742 582.855 466.423C583.149 466.099 583.475 465.826 583.831 465.604C584.193 465.375 584.623 465.195 585.121 465.063C585.619 464.925 586.16 464.856 586.743 464.856Z" fill="#707070"/>
<path d="M615.942 464.856C616.735 464.856 617.428 464.97 618.022 465.198C618.616 465.426 619.103 465.742 619.482 466.144C619.861 466.541 620.167 467.048 620.399 467.667C620.637 468.279 620.801 468.94 620.891 469.649C620.987 470.351 621.035 471.156 621.035 472.063V478.91H622.733V481.793H614.584V478.91H616.282V471.703C616.282 470.754 616.2 470.015 616.036 469.486C615.877 468.958 615.645 468.595 615.34 468.396C615.04 468.198 614.63 468.099 614.109 468.099C613.622 468.099 613.122 468.324 612.607 468.775C612.092 469.225 611.605 469.856 611.147 470.667C611.175 471.099 611.189 471.565 611.189 472.063V478.91H612.887V481.793H604.738V478.91H606.436V471.703C606.436 470.754 606.353 470.015 606.189 469.486C606.031 468.958 605.799 468.595 605.493 468.396C605.193 468.198 604.783 468.099 604.263 468.099C603.787 468.099 603.3 468.312 602.803 468.739C602.305 469.165 601.832 469.76 601.385 470.523L601.343 478.91H603.04V481.793H594.891V478.91H596.589V468.099H594.891V465.216H600.163L601.351 467.658C601.56 467.255 601.801 466.895 602.073 466.577C602.35 466.252 602.678 465.958 603.057 465.694C603.442 465.423 603.892 465.216 604.407 465.072C604.922 464.928 605.485 464.856 606.096 464.856C606.781 464.856 607.392 464.94 607.929 465.108C608.467 465.27 608.923 465.514 609.296 465.838C609.675 466.156 609.989 466.538 610.238 466.982C610.487 467.42 610.685 467.931 610.832 468.514C610.974 468.123 611.138 467.757 611.325 467.414C611.517 467.072 611.761 466.742 612.055 466.423C612.349 466.099 612.674 465.826 613.031 465.604C613.393 465.375 613.823 465.195 614.321 465.063C614.819 464.925 615.36 464.856 615.942 464.856Z" fill="#707070"/>
<path d="M623.073 465.216H629.524V475.306C629.524 476.255 629.603 476.994 629.761 477.523C629.926 478.051 630.158 478.414 630.458 478.613C630.763 478.811 631.176 478.91 631.697 478.91C632.172 478.91 632.659 478.697 633.157 478.27C633.66 477.844 634.136 477.249 634.583 476.486L634.617 468.099H632.919V465.216H639.37V478.91H641.068V481.793H635.797L634.608 479.342C633.652 481.216 632.07 482.153 629.863 482.153C629.071 482.153 628.378 482.039 627.784 481.811C627.19 481.583 626.703 481.27 626.324 480.874C625.945 480.471 625.636 479.964 625.398 479.351C625.166 478.733 625.002 478.072 624.906 477.369C624.816 476.661 624.77 475.853 624.77 474.946V468.099H623.073V465.216Z" fill="#707070"/>
<path d="M653.631 464.856C654.423 464.856 655.116 464.97 655.71 465.198C656.305 465.426 656.791 465.742 657.17 466.144C657.549 466.541 657.855 467.048 658.087 467.667C658.325 468.279 658.489 468.94 658.579 469.649C658.676 470.351 658.724 471.156 658.724 472.063V478.91H660.421V481.793H652.273V478.91H653.97V471.703C653.97 470.754 653.888 470.015 653.724 469.486C653.566 468.958 653.334 468.595 653.028 468.396C652.728 468.198 652.318 468.099 651.797 468.099C651.322 468.099 650.835 468.312 650.337 468.739C649.839 469.165 649.367 469.76 648.92 470.523L648.877 478.91H650.575V481.793H642.426V478.91H644.124V468.099H642.426V465.216H647.697L648.886 467.658C649.095 467.255 649.336 466.895 649.607 466.577C649.885 466.252 650.213 465.958 650.592 465.694C650.977 465.423 651.427 465.216 651.942 465.072C652.456 464.928 653.02 464.856 653.631 464.856Z" fill="#707070"/>
<path d="M675.7 470.937V478.91H677.398V481.793H672.11L671.354 479.919C670.777 480.796 670.107 481.396 669.343 481.721C668.584 482.045 667.523 482.207 666.159 482.207C665.452 482.207 664.793 482.075 664.182 481.811C663.576 481.553 663.058 481.198 662.628 480.748C662.204 480.297 661.87 479.757 661.627 479.126C661.389 478.495 661.27 477.82 661.27 477.099C661.27 475.856 661.729 474.826 662.645 474.009C663.562 473.186 664.733 472.775 666.159 472.775C667.308 472.775 668.259 472.892 669.012 473.126C669.764 473.354 670.409 473.721 670.947 474.225V470.405C670.947 469.865 670.876 469.414 670.735 469.054C670.599 468.688 670.392 468.408 670.115 468.216C669.838 468.018 669.527 467.88 669.181 467.802C668.836 467.724 668.423 467.685 667.942 467.685C667.557 467.685 667.209 467.772 666.898 467.946C667.073 468.336 667.161 468.748 667.161 469.18C667.161 469.979 666.895 470.661 666.363 471.225C665.837 471.784 665.197 472.063 664.445 472.063C663.692 472.063 663.05 471.784 662.518 471.225C661.992 470.661 661.729 469.979 661.729 469.18C661.729 468.772 661.802 468.387 661.949 468.027C662.102 467.667 662.311 467.351 662.577 467.081C662.804 466.829 663.039 466.604 663.282 466.405C663.525 466.201 663.831 466 664.199 465.802C664.572 465.598 664.977 465.429 665.413 465.297C665.848 465.165 666.369 465.06 666.974 464.982C667.586 464.898 668.253 464.856 668.978 464.856C669.917 464.856 670.8 465.003 671.626 465.297C672.452 465.592 673.165 466 673.765 466.523C674.365 467.045 674.837 467.688 675.183 468.45C675.528 469.213 675.7 470.042 675.7 470.937ZM670.947 477.793V476.55C670.596 476.195 670.2 475.898 669.759 475.658C669.323 475.411 668.918 475.288 668.545 475.288C667.741 475.288 667.175 475.432 666.847 475.721C666.519 476.003 666.355 476.462 666.355 477.099C666.355 477.862 666.496 478.423 666.779 478.784C667.062 479.144 667.588 479.324 668.358 479.324C668.794 479.324 669.246 479.177 669.716 478.883C670.191 478.583 670.602 478.219 670.947 477.793Z" fill="#707070"/>
<path d="M677.907 465.216H684.358V475.306C684.358 476.255 684.438 476.994 684.596 477.523C684.76 478.051 684.992 478.414 685.292 478.613C685.598 478.811 686.011 478.91 686.532 478.91C687.007 478.91 687.494 478.697 687.992 478.27C688.495 477.844 688.97 477.249 689.418 476.486L689.451 468.099H687.754V465.216H694.205V478.91H695.903V481.793H690.631L689.443 479.342C688.487 481.216 686.905 482.153 684.698 482.153C683.906 482.153 683.213 482.039 682.618 481.811C682.024 481.583 681.538 481.27 681.158 480.874C680.779 480.471 680.471 479.964 680.233 479.351C680.001 478.733 679.837 478.072 679.741 477.369C679.65 476.661 679.605 475.853 679.605 474.946V468.099H677.907V465.216Z" fill="#707070"/>
<path d="M702.014 461.613H703.712V465.216H708.465V468.099H703.712V477.468C703.712 477.877 703.819 478.219 704.034 478.495C704.255 478.772 704.6 478.91 705.07 478.91C705.596 478.91 706.043 478.727 706.411 478.36C706.779 477.988 707.011 477.45 707.107 476.748L709.144 477.108C709.06 477.811 708.895 478.462 708.652 479.063C708.414 479.658 708.103 480.189 707.718 480.658C707.334 481.12 706.855 481.486 706.284 481.757C705.718 482.021 705.087 482.153 704.391 482.153C702.699 482.153 701.369 481.736 700.401 480.901C699.439 480.06 698.958 478.916 698.958 477.468V468.099H697.261V465.216H697.6C698.472 465.216 699.241 464.952 699.909 464.423C700.577 463.895 701.279 462.958 702.014 461.613Z" fill="#707070"/>
<path d="M715.129 462.946L719.203 458.622C719.594 458.207 720.063 458 720.612 458C721.161 458 721.631 458.207 722.021 458.622C722.412 459.03 722.607 459.529 722.607 460.117C722.607 460.598 722.468 461.027 722.191 461.405C721.919 461.784 721.566 462.036 721.13 462.162L715.562 463.748C715.516 463.76 715.477 463.766 715.443 463.766C715.318 463.766 715.211 463.721 715.12 463.631C715.035 463.535 714.993 463.42 714.993 463.288C714.993 463.156 715.038 463.042 715.129 462.946ZM715.748 474.586C715.799 475.282 715.907 475.904 716.071 476.45C716.235 476.997 716.433 477.444 716.665 477.793C716.903 478.141 717.177 478.429 717.488 478.658C717.8 478.88 718.119 479.039 718.448 479.135C718.776 479.225 719.127 479.27 719.5 479.27C720.694 479.27 721.625 479.027 722.293 478.541C722.966 478.048 723.504 477.291 723.906 476.27L726.164 477.099C725.96 477.682 725.7 478.231 725.383 478.748C725.071 479.258 724.695 479.73 724.254 480.162C723.812 480.595 723.32 480.967 722.777 481.279C722.239 481.586 721.631 481.826 720.952 482C720.273 482.174 719.557 482.261 718.804 482.261C717.689 482.261 716.634 482.054 715.638 481.64C714.648 481.225 713.785 480.649 713.049 479.91C712.319 479.165 711.739 478.249 711.309 477.162C710.885 476.075 710.672 474.892 710.672 473.613C710.672 472.333 710.885 471.144 711.309 470.045C711.739 468.946 712.319 468.021 713.049 467.27C713.785 466.514 714.648 465.922 715.638 465.495C716.634 465.069 717.689 464.856 718.804 464.856C719.919 464.856 720.972 465.069 721.962 465.495C722.958 465.922 723.821 466.514 724.551 467.27C725.286 468.021 725.866 468.946 726.291 470.045C726.721 471.144 726.936 472.333 726.936 473.613L726.724 474.586H715.748ZM715.808 471.703H721.801C721.653 470.321 721.328 469.315 720.824 468.685C720.321 468.054 719.653 467.739 718.821 467.739C718.408 467.739 718.037 467.811 717.709 467.955C717.381 468.093 717.087 468.318 716.826 468.631C716.566 468.937 716.348 469.348 716.173 469.865C716.003 470.375 715.881 470.988 715.808 471.703Z" fill="#707070"/>
<path d="M743.734 482.207C742.41 482.207 741.287 481.847 740.365 481.126C739.442 480.405 738.755 479.399 738.302 478.108C737.855 476.817 737.631 475.279 737.631 473.495C737.631 472.192 737.79 471 738.107 469.919C738.429 468.838 738.876 467.928 739.448 467.189C740.025 466.444 740.718 465.871 741.527 465.468C742.342 465.06 743.234 464.856 744.201 464.856C744.688 464.856 745.146 464.904 745.576 465C746.006 465.09 746.371 465.204 746.671 465.342C746.977 465.48 747.266 465.652 747.537 465.856C747.809 466.06 748.027 466.252 748.191 466.432C748.361 466.613 748.525 466.814 748.683 467.036V462.333H746.985V459.45H753.437V478.91H755.134V481.793H750.092L749.065 479.703C748.844 480.027 748.595 480.324 748.318 480.595C747.198 481.67 745.67 482.207 743.734 482.207ZM748.683 470.09C748.038 468.829 747.161 468.198 746.052 468.198C744.931 468.198 744.097 468.664 743.548 469.595C743.004 470.526 742.733 471.847 742.733 473.559C742.733 474.363 742.821 475.108 742.996 475.793C743.177 476.471 743.415 477.036 743.709 477.486C744.009 477.937 744.351 478.288 744.736 478.541C745.121 478.787 745.523 478.91 745.941 478.91C746.507 478.91 747.008 478.745 747.444 478.414C747.885 478.078 748.298 477.583 748.683 476.928V470.09Z" fill="#707070"/>
<path d="M759.141 458.91C759.758 458.91 760.307 459.108 760.788 459.505C761.274 459.901 761.6 460.414 761.764 461.045C761.877 461.483 761.933 461.946 761.933 462.432C761.933 463.171 761.798 463.922 761.526 464.685C761.254 465.441 760.881 466.156 760.406 466.829C759.93 467.502 759.378 468.132 758.75 468.721C758.128 469.303 757.457 469.817 756.739 470.261L755.508 468.955C756.787 467.868 757.658 467.027 758.122 466.432C758.592 465.838 758.835 465.246 758.852 464.658C758.162 464.574 757.585 464.258 757.121 463.712C756.657 463.165 756.425 462.526 756.425 461.793C756.425 460.994 756.688 460.315 757.214 459.757C757.746 459.192 758.388 458.91 759.141 458.91Z" fill="#707070"/>
<path d="M776.372 459.45H785.2V462.333H782.484V474.225C782.484 475.042 782.402 475.826 782.238 476.577C782.073 477.327 781.805 478.045 781.431 478.73C781.063 479.408 780.608 480 780.065 480.505C779.527 481.009 778.854 481.411 778.044 481.712C777.235 482.006 776.338 482.153 775.354 482.153C773.214 482.153 771.466 481.832 770.108 481.189C768.75 480.541 767.756 479.586 767.128 478.324C766.5 477.057 766.186 475.45 766.186 473.505V462.333H763.47V459.45H774.335V462.333H771.619V473.505C771.619 474.159 771.664 474.763 771.754 475.315C771.851 475.868 771.975 476.339 772.128 476.73C772.281 477.114 772.467 477.459 772.688 477.766C772.909 478.066 773.138 478.309 773.376 478.495C773.613 478.682 773.868 478.835 774.14 478.955C774.417 479.075 774.68 479.159 774.929 479.207C775.178 479.249 775.433 479.27 775.693 479.27C776.355 479.27 776.946 479.144 777.467 478.892C777.993 478.634 778.421 478.279 778.749 477.829C779.083 477.372 779.335 476.841 779.504 476.234C779.68 475.622 779.767 474.952 779.767 474.225V462.333H776.372V459.45Z" fill="#707070"/>
<path d="M797.517 464.802C798.841 464.802 799.964 465.162 800.886 465.883C801.809 466.604 802.494 467.61 802.941 468.901C803.393 470.192 803.62 471.73 803.62 473.514C803.62 474.817 803.458 476.009 803.136 477.09C802.819 478.171 802.372 479.084 801.795 479.829C801.223 480.568 800.53 481.141 799.715 481.55C798.906 481.952 798.017 482.153 797.05 482.153C796.563 482.153 796.105 482.105 795.675 482.009C795.245 481.919 794.877 481.805 794.571 481.667C794.271 481.529 793.985 481.357 793.714 481.153C793.442 480.949 793.221 480.757 793.052 480.577C792.888 480.396 792.726 480.195 792.568 479.973V484.676H794.266V487.559H786.117V484.676H787.814V468.099H786.117V465.216H791.159L792.186 467.315C792.407 466.985 792.658 466.685 792.941 466.414C794.062 465.339 795.587 464.802 797.517 464.802ZM792.568 476.919C793.213 478.18 794.09 478.811 795.199 478.811C796.32 478.811 797.152 478.345 797.695 477.414C798.244 476.483 798.518 475.162 798.518 473.45C798.518 472.646 798.428 471.904 798.247 471.225C798.071 470.541 797.833 469.973 797.534 469.523C797.239 469.072 796.9 468.724 796.515 468.477C796.13 468.225 795.728 468.099 795.31 468.099C794.744 468.099 794.24 468.267 793.799 468.604C793.363 468.934 792.953 469.426 792.568 470.081V476.919Z" fill="#707070"/>
<path d="M816.641 468.378C815.996 467.952 815.175 467.739 814.179 467.739C813.777 467.739 813.404 467.799 813.059 467.919C812.714 468.033 812.382 468.231 812.066 468.514C811.754 468.796 811.488 469.153 811.268 469.586C811.047 470.018 810.872 470.568 810.741 471.234C810.611 471.901 810.546 472.658 810.546 473.505C810.546 474.351 810.617 475.105 810.758 475.766C810.9 476.426 811.087 476.967 811.319 477.387C811.556 477.808 811.839 478.153 812.167 478.423C812.501 478.694 812.844 478.886 813.195 479C813.545 479.108 813.925 479.162 814.332 479.162C815.526 479.162 816.457 478.919 817.125 478.432C817.798 477.94 818.336 477.183 818.737 476.162L820.995 476.991C820.792 477.574 820.531 478.123 820.214 478.64C819.903 479.15 819.527 479.622 819.085 480.054C818.644 480.486 818.152 480.859 817.608 481.171C817.071 481.477 816.463 481.718 815.783 481.892C815.104 482.066 814.389 482.153 813.636 482.153C812.521 482.153 811.466 481.946 810.47 481.532C809.479 481.117 808.616 480.541 807.881 479.802C807.151 479.057 806.571 478.141 806.141 477.054C805.716 475.967 805.504 474.784 805.504 473.505C805.504 472.477 805.64 471.511 805.912 470.604C806.183 469.697 806.565 468.895 807.057 468.198C807.555 467.502 808.138 466.901 808.806 466.396C809.474 465.892 810.215 465.511 811.03 465.252C811.845 464.988 812.699 464.856 813.593 464.856C814.301 464.856 814.966 464.928 815.588 465.072C816.211 465.21 816.765 465.402 817.252 465.649C817.744 465.889 818.203 466.189 818.627 466.55C819.051 466.91 819.422 467.294 819.739 467.703C820.062 468.105 820.362 468.559 820.639 469.063C820.927 469.538 821.072 470.057 821.072 470.622C821.072 471.42 820.806 472.102 820.274 472.667C819.748 473.225 819.108 473.505 818.355 473.505C817.603 473.505 816.961 473.225 816.429 472.667C815.902 472.102 815.639 471.42 815.639 470.622C815.639 470.177 815.727 469.76 815.902 469.369C816.083 468.979 816.33 468.649 816.641 468.378Z" fill="#707070"/>
<path d="M822.387 487.351C822.087 486.871 821.938 486.339 821.938 485.757C821.938 484.958 822.201 484.276 822.727 483.712C823.259 483.153 823.901 482.874 824.654 482.874C825.406 482.874 826.046 483.153 826.572 483.712C827.104 484.276 827.37 484.958 827.37 485.757C827.37 485.925 827.356 486.087 827.328 486.243C827.35 486.249 827.37 486.252 827.387 486.252C827.794 486.252 828.292 485.538 828.881 484.108L829.518 482.559L823.533 468.099H821.938V465.216H831.444V468.099H828.652L831.343 474.586C831.688 475.438 831.937 476.159 832.09 476.748C832.242 476.159 832.491 475.438 832.837 474.586L835.519 468.099H833.142V465.216H840.272V468.099H838.473L832.803 481.793C832.508 482.502 832.242 483.111 832.005 483.622C831.773 484.138 831.51 484.661 831.215 485.189C830.927 485.724 830.647 486.174 830.375 486.541C830.103 486.907 829.795 487.255 829.45 487.586C829.11 487.916 828.757 488.177 828.389 488.369C828.021 488.568 827.613 488.721 827.166 488.829C826.719 488.943 826.238 489 825.723 489C825.242 489 824.818 488.958 824.45 488.874C824.082 488.796 823.768 488.676 823.508 488.514C823.253 488.357 823.041 488.186 822.871 488C822.701 487.82 822.54 487.604 822.387 487.351Z" fill="#707070"/>
<path d="M852.258 468.378C851.613 467.952 850.792 467.739 849.796 467.739C849.394 467.739 849.021 467.799 848.676 467.919C848.331 468.033 848 468.231 847.683 468.514C847.371 468.796 847.105 469.153 846.885 469.586C846.664 470.018 846.489 470.568 846.358 471.234C846.228 471.901 846.163 472.658 846.163 473.505C846.163 474.351 846.234 475.105 846.375 475.766C846.517 476.426 846.704 476.967 846.936 477.387C847.173 477.808 847.456 478.153 847.785 478.423C848.118 478.694 848.461 478.886 848.812 479C849.162 479.108 849.542 479.162 849.949 479.162C851.143 479.162 852.074 478.919 852.742 478.432C853.415 477.94 853.953 477.183 854.354 476.162L856.612 476.991C856.409 477.574 856.148 478.123 855.831 478.64C855.52 479.15 855.144 479.622 854.703 480.054C854.261 480.486 853.769 480.859 853.226 481.171C852.688 481.477 852.08 481.718 851.401 481.892C850.721 482.066 850.006 482.153 849.253 482.153C848.138 482.153 847.083 481.946 846.087 481.532C845.097 481.117 844.234 480.541 843.498 479.802C842.768 479.057 842.188 478.141 841.758 477.054C841.333 475.967 841.121 474.784 841.121 473.505C841.121 472.477 841.257 471.511 841.529 470.604C841.8 469.697 842.182 468.895 842.675 468.198C843.173 467.502 843.755 466.901 844.423 466.396C845.091 465.892 845.832 465.511 846.647 465.252C847.462 464.988 848.316 464.856 849.211 464.856C849.918 464.856 850.583 464.928 851.205 465.072C851.828 465.21 852.382 465.402 852.869 465.649C853.361 465.889 853.82 466.189 854.244 466.55C854.669 466.91 855.039 467.294 855.356 467.703C855.679 468.105 855.979 468.559 856.256 469.063C856.544 469.538 856.689 470.057 856.689 470.622C856.689 471.42 856.423 472.102 855.891 472.667C855.365 473.225 854.725 473.505 853.973 473.505C853.22 473.505 852.578 473.225 852.046 472.667C851.519 472.102 851.256 471.42 851.256 470.622C851.256 470.177 851.344 469.76 851.519 469.369C851.7 468.979 851.947 468.649 852.258 468.378Z" fill="#707070"/>
<path d="M857.555 459.45H864.006V478.91H865.703V481.793H857.555V478.91H859.252V462.333H857.555V459.45Z" fill="#707070"/>
<path d="M869.209 463.297C868.683 462.733 868.42 462.051 868.42 461.252C868.42 460.453 868.683 459.775 869.209 459.216C869.741 458.652 870.383 458.369 871.136 458.369C871.889 458.369 872.528 458.652 873.054 459.216C873.586 459.775 873.852 460.453 873.852 461.252C873.852 462.051 873.586 462.733 873.054 463.297C872.528 463.856 871.889 464.135 871.136 464.135C870.383 464.135 869.741 463.856 869.209 463.297ZM867.062 465.216H873.513V478.91H875.21V481.793H867.062V478.91H868.759V468.099H867.062V465.216Z" fill="#707070"/>
<path d="M887.773 464.856C888.565 464.856 889.259 464.97 889.853 465.198C890.447 465.426 890.934 465.742 891.313 466.144C891.692 466.541 891.997 467.048 892.229 467.667C892.467 468.279 892.631 468.94 892.722 469.649C892.818 470.351 892.866 471.156 892.866 472.063V478.91H894.564V481.793H886.415V478.91H888.113V471.703C888.113 470.754 888.031 470.015 887.866 469.486C887.708 468.958 887.476 468.595 887.17 468.396C886.871 468.198 886.46 468.099 885.94 468.099C885.464 468.099 884.978 468.312 884.48 468.739C883.982 469.165 883.509 469.76 883.062 470.523L883.02 478.91H884.717V481.793H876.568V478.91H878.266V468.099H876.568V465.216H881.84L883.028 467.658C883.237 467.255 883.478 466.895 883.75 466.577C884.027 466.252 884.355 465.958 884.734 465.694C885.119 465.423 885.569 465.216 886.084 465.072C886.599 464.928 887.162 464.856 887.773 464.856Z" fill="#707070"/>
<path d="M906.447 461.973C906.447 461.174 906.711 460.495 907.237 459.937C907.769 459.372 908.411 459.09 909.164 459.09C909.447 459.09 909.724 459.135 909.996 459.225C910.346 459.339 910.652 459.489 910.912 459.676C911.178 459.862 911.393 460.066 911.557 460.288C911.722 460.511 911.855 460.769 911.956 461.063C912.058 461.351 912.126 461.643 912.16 461.937C912.2 462.225 912.22 462.547 912.22 462.901C912.22 463.267 912.152 463.652 912.016 464.054C911.88 464.456 911.699 464.838 911.473 465.198C911.252 465.553 911.009 465.886 910.743 466.198C910.482 466.505 910.213 466.775 909.936 467.009C910.779 467.892 911.201 468.976 911.201 470.261C911.201 471.222 911.003 472.078 910.607 472.829C910.216 473.574 909.676 474.177 908.985 474.64C908.295 475.096 907.506 475.441 906.617 475.676C905.734 475.91 904.772 476.027 903.731 476.027C902.871 476.027 902.048 475.925 901.261 475.721C900.746 475.805 900.35 475.952 900.073 476.162C899.795 476.372 899.657 476.568 899.657 476.748C899.657 476.928 899.728 477.093 899.869 477.243C900.01 477.393 900.166 477.468 900.336 477.468H905.089C907.483 477.468 909.212 477.832 910.276 478.559C911.345 479.285 911.88 480.483 911.88 482.153C911.88 482.958 911.787 483.688 911.6 484.342C911.413 485.003 911.158 485.565 910.836 486.027C910.519 486.495 910.126 486.907 909.656 487.261C909.186 487.622 908.694 487.91 908.179 488.126C907.664 488.342 907.09 488.517 906.456 488.649C905.822 488.781 905.208 488.871 904.614 488.919C904.02 488.973 903.386 489 902.713 489C901.637 489 900.664 488.874 899.793 488.622C898.927 488.375 898.214 488.036 897.654 487.604C897.099 487.171 896.672 486.673 896.372 486.108C896.072 485.55 895.922 484.952 895.922 484.315C895.922 483.012 896.626 481.994 898.036 481.261C897.487 480.967 897.054 480.565 896.737 480.054C896.42 479.538 896.261 478.916 896.261 478.189C896.261 477.378 896.482 476.643 896.924 475.982C897.365 475.321 897.959 474.841 898.706 474.541C898.044 474.042 897.526 473.435 897.153 472.721C896.785 472.006 896.601 471.186 896.601 470.261C896.601 469.492 896.728 468.802 896.983 468.189C897.243 467.577 897.591 467.069 898.027 466.667C898.468 466.258 898.995 465.922 899.606 465.658C900.223 465.387 900.871 465.195 901.55 465.081C902.229 464.967 902.956 464.91 903.731 464.91C905.519 464.91 907.044 465.222 908.306 465.847C908.595 465.492 908.819 465.159 908.977 464.847C908.27 464.799 907.67 464.498 907.177 463.946C906.691 463.393 906.447 462.736 906.447 461.973ZM903.901 467.739C903.103 467.739 902.478 467.982 902.025 468.468C901.578 468.955 901.354 469.658 901.354 470.577C901.354 471.502 901.581 472.222 902.034 472.739C902.486 473.249 903.109 473.505 903.901 473.505C904.688 473.505 905.307 473.246 905.76 472.73C906.218 472.207 906.447 471.489 906.447 470.577C906.447 469.67 906.221 468.97 905.768 468.477C905.316 467.985 904.693 467.739 903.901 467.739ZM901.312 481.793C900.661 482.285 900.336 482.886 900.336 483.595C900.336 484.309 900.545 484.787 900.964 485.027C901.383 485.273 902.192 485.396 903.392 485.396C906.108 485.396 907.466 484.676 907.466 483.234C907.466 482.874 907.325 482.544 907.042 482.243C906.759 481.943 906.447 481.793 906.108 481.793H901.312Z" fill="#707070"/>
<path d="M933.78 481.793H922.915V478.91H925.631V462.333H922.915V459.45H933.78C934.997 459.45 936.145 459.595 937.226 459.883C938.307 460.165 939.263 460.562 940.095 461.072C940.933 461.577 941.683 462.177 942.345 462.874C943.012 463.571 943.561 464.333 943.991 465.162C944.427 465.991 944.758 466.868 944.985 467.793C945.211 468.712 945.324 469.655 945.324 470.622C945.324 471.589 945.211 472.535 944.985 473.459C944.758 474.378 944.427 475.252 943.991 476.081C943.561 476.91 943.012 477.673 942.345 478.369C941.683 479.066 940.933 479.67 940.095 480.18C939.263 480.685 938.307 481.081 937.226 481.369C936.145 481.652 934.997 481.793 933.78 481.793ZM933.78 478.91C934.663 478.91 935.452 478.703 936.148 478.288C936.844 477.868 937.413 477.285 937.854 476.541C938.301 475.796 938.638 474.925 938.864 473.928C939.096 472.925 939.212 471.823 939.212 470.622C939.212 469.661 939.145 468.766 939.009 467.937C938.873 467.108 938.661 466.348 938.372 465.658C938.083 464.961 937.727 464.369 937.303 463.883C936.884 463.39 936.375 463.009 935.775 462.739C935.175 462.468 934.51 462.333 933.78 462.333H931.064V478.91H933.78Z" fill="#707070"/>
<path d="M946.852 465.216H953.303V475.306C953.303 476.255 953.382 476.994 953.541 477.523C953.705 478.051 953.937 478.414 954.237 478.613C954.542 478.811 954.956 478.91 955.476 478.91C955.951 478.91 956.438 478.697 956.936 478.27C957.44 477.844 957.915 477.249 958.362 476.486L958.396 468.099H956.698V465.216H963.15V478.91H964.847V481.793H959.576L958.388 479.342C957.431 481.216 955.85 482.153 953.643 482.153C952.85 482.153 952.157 482.039 951.563 481.811C950.969 481.583 950.482 481.27 950.103 480.874C949.724 480.471 949.415 479.964 949.178 479.351C948.946 478.733 948.782 478.072 948.685 477.369C948.595 476.661 948.55 475.853 948.55 474.946V468.099H946.852V465.216Z" fill="#707070"/>
<path d="M966.205 465.216H971.477L972.546 467.405C973.548 465.706 974.965 464.856 976.799 464.856C978.027 464.856 979 465.258 979.719 466.063C980.443 466.862 980.805 467.901 980.805 469.18C980.805 469.979 980.539 470.661 980.007 471.225C979.481 471.784 978.842 472.063 978.089 472.063C977.336 472.063 976.694 471.784 976.162 471.225C975.636 470.661 975.373 469.979 975.373 469.18C975.373 468.856 975.421 468.544 975.517 468.243C975.364 468.147 975.203 468.099 975.033 468.099C974.654 468.099 974.261 468.363 973.853 468.892C973.452 469.414 973.064 470.198 972.69 471.243L972.657 478.91H976.391V481.793H966.205V478.91H967.903V468.099H966.205V465.216Z" fill="#707070"/>
<path d="M996.084 470.937V478.91H997.782V481.793H992.494L991.738 479.919C991.161 480.796 990.491 481.396 989.727 481.721C988.968 482.045 987.907 482.207 986.543 482.207C985.836 482.207 985.177 482.075 984.566 481.811C983.96 481.553 983.442 481.198 983.012 480.748C982.588 480.297 982.254 479.757 982.011 479.126C981.773 478.495 981.654 477.82 981.654 477.099C981.654 475.856 982.113 474.826 983.029 474.009C983.946 473.186 985.117 472.775 986.543 472.775C987.692 472.775 988.643 472.892 989.396 473.126C990.148 473.354 990.793 473.721 991.331 474.225V470.405C991.331 469.865 991.26 469.414 991.119 469.054C990.983 468.688 990.776 468.408 990.499 468.216C990.222 468.018 989.91 467.88 989.565 467.802C989.22 467.724 988.807 467.685 988.326 467.685C987.941 467.685 987.593 467.772 987.282 467.946C987.457 468.336 987.545 468.748 987.545 469.18C987.545 469.979 987.279 470.661 986.747 471.225C986.221 471.784 985.581 472.063 984.829 472.063C984.076 472.063 983.434 471.784 982.902 471.225C982.376 470.661 982.113 469.979 982.113 469.18C982.113 468.772 982.186 468.387 982.333 468.027C982.486 467.667 982.695 467.351 982.961 467.081C983.188 466.829 983.423 466.604 983.666 466.405C983.909 466.201 984.215 466 984.583 465.802C984.956 465.598 985.361 465.429 985.796 465.297C986.232 465.165 986.753 465.06 987.358 464.982C987.969 464.898 988.637 464.856 989.362 464.856C990.301 464.856 991.184 465.003 992.01 465.297C992.836 465.592 993.549 466 994.149 466.523C994.749 467.045 995.221 467.688 995.567 468.45C995.912 469.213 996.084 470.042 996.084 470.937ZM991.331 477.793V476.55C990.98 476.195 990.584 475.898 990.142 475.658C989.707 475.411 989.302 475.288 988.929 475.288C988.125 475.288 987.559 475.432 987.231 475.721C986.903 476.003 986.739 476.462 986.739 477.099C986.739 477.862 986.88 478.423 987.163 478.784C987.446 479.144 987.972 479.324 988.742 479.324C989.178 479.324 989.63 479.177 990.1 478.883C990.575 478.583 990.986 478.219 991.331 477.793Z" fill="#707070"/>
<path d="M1009.94 464.856C1011.26 464.856 1012.38 465.213 1013.3 465.928C1014.22 466.637 1014.91 467.634 1015.35 468.919C1015.81 470.198 1016.03 471.73 1016.03 473.514C1016.03 474.817 1015.86 476.012 1015.52 477.099C1015.18 478.18 1014.71 479.09 1014.11 479.829C1013.52 480.562 1012.81 481.132 1011.97 481.541C1011.15 481.949 1010.25 482.153 1009.28 482.153C1008.82 482.153 1008.39 482.111 1007.97 482.027C1007.55 481.943 1007.18 481.841 1006.87 481.721C1006.56 481.595 1006.26 481.435 1005.96 481.243C1005.66 481.051 1005.42 480.874 1005.22 480.712C1005.03 480.55 1004.83 480.357 1004.63 480.135C1004.44 479.913 1004.3 479.739 1004.2 479.613C1004.11 479.486 1004.01 479.339 1003.89 479.171L1002.24 481.793H999.989V462.333H998.291V459.45H1004.74V467.919C1004.97 467.492 1005.25 467.102 1005.56 466.748C1005.87 466.393 1006.23 466.072 1006.65 465.784C1007.08 465.489 1007.57 465.261 1008.13 465.099C1008.69 464.937 1009.29 464.856 1009.94 464.856ZM1004.74 476.396C1005.04 477.135 1005.43 477.724 1005.91 478.162C1006.39 478.595 1006.96 478.811 1007.62 478.811C1008.74 478.811 1009.57 478.345 1010.12 477.414C1010.66 476.483 1010.94 475.162 1010.94 473.45C1010.94 472.646 1010.85 471.904 1010.67 471.225C1010.49 470.541 1010.25 469.973 1009.95 469.523C1009.66 469.072 1009.32 468.724 1008.94 468.477C1008.55 468.225 1008.15 468.099 1007.73 468.099C1007.11 468.099 1006.56 468.303 1006.08 468.712C1005.61 469.114 1005.17 469.718 1004.74 470.523V476.396Z" fill="#707070"/>
<path d="M1016.9 459.45H1023.35V478.91H1025.05V481.793H1016.9V478.91H1018.6V462.333H1016.9V459.45Z" fill="#707070"/>
<path d="M1031.31 474.586C1031.36 475.282 1031.47 475.904 1031.63 476.45C1031.8 476.997 1032 477.444 1032.23 477.793C1032.47 478.141 1032.74 478.429 1033.05 478.658C1033.36 478.88 1033.68 479.039 1034.01 479.135C1034.34 479.225 1034.69 479.27 1035.06 479.27C1036.26 479.27 1037.19 479.027 1037.86 478.541C1038.53 478.048 1039.07 477.291 1039.47 476.27L1041.73 477.099C1041.52 477.682 1041.26 478.231 1040.95 478.748C1040.63 479.258 1040.26 479.73 1039.82 480.162C1039.37 480.595 1038.88 480.967 1038.34 481.279C1037.8 481.586 1037.19 481.826 1036.51 482C1035.84 482.174 1035.12 482.261 1034.37 482.261C1033.25 482.261 1032.2 482.054 1031.2 481.64C1030.21 481.225 1029.35 480.649 1028.61 479.91C1027.88 479.165 1027.3 478.249 1026.87 477.162C1026.45 476.075 1026.23 474.892 1026.23 473.613C1026.23 472.333 1026.45 471.144 1026.87 470.045C1027.3 468.946 1027.88 468.021 1028.61 467.27C1029.35 466.514 1030.21 465.922 1031.2 465.495C1032.2 465.069 1033.25 464.856 1034.37 464.856C1035.48 464.856 1036.53 465.069 1037.52 465.495C1038.52 465.922 1039.38 466.514 1040.11 467.27C1040.85 468.021 1041.43 468.946 1041.85 470.045C1042.28 471.144 1042.5 472.333 1042.5 473.613L1042.29 474.586H1031.31ZM1031.37 471.703H1037.36C1037.22 470.321 1036.89 469.315 1036.39 468.685C1035.88 468.054 1035.22 467.739 1034.38 467.739C1033.97 467.739 1033.6 467.811 1033.27 467.955C1032.94 468.093 1032.65 468.318 1032.39 468.631C1032.13 468.937 1031.91 469.348 1031.74 469.865C1031.57 470.375 1031.44 470.988 1031.37 471.703Z" fill="#707070"/>
<path d="M1054.85 468.767C1054.85 467.857 1055.06 467.217 1055.47 466.848C1055.89 466.479 1056.39 466.294 1056.97 466.294C1057.57 466.294 1058.08 466.479 1058.5 466.848C1058.94 467.217 1059.16 467.857 1059.16 468.767C1059.16 469.652 1058.94 470.292 1058.5 470.686C1058.08 471.079 1057.57 471.276 1056.97 471.276C1056.39 471.276 1055.89 471.079 1055.47 470.686C1055.06 470.292 1054.85 469.652 1054.85 468.767Z" fill="#707070"/>
<path d="M1082.36 459.09C1085.33 459.09 1087.71 459.931 1089.49 461.613C1090.22 462.297 1090.74 462.988 1091.05 463.685C1091.37 464.375 1091.53 465.246 1091.53 466.297C1091.53 467.096 1091.26 467.778 1090.73 468.342C1090.2 468.901 1089.56 469.18 1088.81 469.18C1088.06 469.18 1087.42 468.901 1086.88 468.342C1086.36 467.778 1086.09 467.096 1086.09 466.297C1086.09 465.889 1086.17 465.505 1086.32 465.144C1086.48 464.778 1086.69 464.459 1086.96 464.189C1086.55 463.384 1086 462.814 1085.31 462.477C1084.61 462.141 1083.75 461.973 1082.7 461.973C1082.01 461.973 1081.38 462.12 1080.79 462.414C1080.21 462.709 1079.7 463.12 1079.27 463.649C1078.85 464.177 1078.48 464.802 1078.18 465.523C1077.87 466.243 1077.64 467.036 1077.49 467.901C1077.34 468.76 1077.27 469.667 1077.27 470.622C1077.27 471.565 1077.36 472.471 1077.54 473.342C1077.72 474.213 1077.98 475.006 1078.33 475.721C1078.67 476.435 1079.08 477.06 1079.54 477.595C1080.01 478.123 1080.54 478.535 1081.14 478.829C1081.74 479.123 1082.38 479.27 1083.04 479.27C1084 479.27 1084.9 478.997 1085.72 478.45C1086.55 477.904 1087.24 477.138 1087.78 476.153C1088.33 475.162 1088.68 474.039 1088.81 472.784L1091.53 473.505C1091.39 474.207 1091.23 474.862 1091.05 475.468C1090.87 476.069 1090.64 476.67 1090.37 477.27C1090.1 477.865 1089.79 478.402 1089.45 478.883C1089.1 479.363 1088.69 479.811 1088.23 480.225C1087.76 480.64 1087.24 480.988 1086.67 481.27C1086.11 481.547 1085.46 481.763 1084.73 481.919C1084 482.075 1083.21 482.153 1082.36 482.153C1081.35 482.153 1080.38 482.039 1079.46 481.811C1078.54 481.589 1077.71 481.276 1076.96 480.874C1076.22 480.471 1075.54 479.991 1074.91 479.432C1074.28 478.874 1073.74 478.258 1073.28 477.586C1072.82 476.907 1072.43 476.189 1072.11 475.432C1071.79 474.67 1071.55 473.886 1071.39 473.081C1071.23 472.27 1071.16 471.45 1071.16 470.622C1071.16 469.793 1071.23 468.976 1071.39 468.171C1071.55 467.36 1071.79 466.577 1072.11 465.82C1072.43 465.057 1072.82 464.339 1073.28 463.667C1073.74 462.988 1074.28 462.369 1074.91 461.811C1075.54 461.252 1076.22 460.772 1076.96 460.369C1077.71 459.967 1078.54 459.655 1079.46 459.432C1080.38 459.204 1081.35 459.09 1082.36 459.09Z" fill="#707070"/>
<path d="M1092.89 465.216H1098.16L1099.23 467.405C1100.23 465.706 1101.65 464.856 1103.48 464.856C1104.71 464.856 1105.68 465.258 1106.4 466.063C1107.12 466.862 1107.49 467.901 1107.49 469.18C1107.49 469.979 1107.22 470.661 1106.69 471.225C1106.16 471.784 1105.52 472.063 1104.77 472.063C1104.02 472.063 1103.37 471.784 1102.84 471.225C1102.32 470.661 1102.05 469.979 1102.05 469.18C1102.05 468.856 1102.1 468.544 1102.2 468.243C1102.04 468.147 1101.88 468.099 1101.71 468.099C1101.33 468.099 1100.94 468.363 1100.53 468.892C1100.13 469.414 1099.74 470.198 1099.37 471.243L1099.34 478.91H1103.07V481.793H1092.89V478.91H1094.58V468.099H1092.89V465.216Z" fill="#707070"/>
<path d="M1112.79 462.946L1116.86 458.622C1117.26 458.207 1117.73 458 1118.27 458C1118.82 458 1119.29 458.207 1119.68 458.622C1120.07 459.03 1120.27 459.529 1120.27 460.117C1120.27 460.598 1120.13 461.027 1119.85 461.405C1119.58 461.784 1119.23 462.036 1118.79 462.162L1113.22 463.748C1113.18 463.76 1113.14 463.766 1113.1 463.766C1112.98 463.766 1112.87 463.721 1112.78 463.631C1112.7 463.535 1112.65 463.42 1112.65 463.288C1112.65 463.156 1112.7 463.042 1112.79 462.946ZM1113.41 474.586C1113.46 475.282 1113.57 475.904 1113.73 476.45C1113.9 476.997 1114.09 477.444 1114.33 477.793C1114.56 478.141 1114.84 478.429 1115.15 478.658C1115.46 478.88 1115.78 479.039 1116.11 479.135C1116.44 479.225 1116.79 479.27 1117.16 479.27C1118.36 479.27 1119.29 479.027 1119.95 478.541C1120.63 478.048 1121.17 477.291 1121.57 476.27L1123.83 477.099C1123.62 477.682 1123.36 478.231 1123.04 478.748C1122.73 479.258 1122.36 479.73 1121.92 480.162C1121.47 480.595 1120.98 480.967 1120.44 481.279C1119.9 481.586 1119.29 481.826 1118.61 482C1117.93 482.174 1117.22 482.261 1116.47 482.261C1115.35 482.261 1114.3 482.054 1113.3 481.64C1112.31 481.225 1111.45 480.649 1110.71 479.91C1109.98 479.165 1109.4 478.249 1108.97 477.162C1108.55 476.075 1108.33 474.892 1108.33 473.613C1108.33 472.333 1108.55 471.144 1108.97 470.045C1109.4 468.946 1109.98 468.021 1110.71 467.27C1111.45 466.514 1112.31 465.922 1113.3 465.495C1114.3 465.069 1115.35 464.856 1116.47 464.856C1117.58 464.856 1118.63 465.069 1119.62 465.495C1120.62 465.922 1121.48 466.514 1122.21 467.27C1122.95 468.021 1123.53 468.946 1123.95 470.045C1124.38 471.144 1124.6 472.333 1124.6 473.613L1124.39 474.586H1113.41ZM1113.47 471.703H1119.46C1119.32 470.321 1118.99 469.315 1118.49 468.685C1117.98 468.054 1117.31 467.739 1116.48 467.739C1116.07 467.739 1115.7 467.811 1115.37 467.955C1115.04 468.093 1114.75 468.318 1114.49 468.631C1114.23 468.937 1114.01 469.348 1113.83 469.865C1113.66 470.375 1113.54 470.988 1113.47 471.703Z" fill="#707070"/>
<path d="M1130.58 462.946L1134.66 458.622C1135.05 458.207 1135.52 458 1136.07 458C1136.61 458 1137.08 458.207 1137.47 458.622C1137.87 459.03 1138.06 459.529 1138.06 460.117C1138.06 460.598 1137.92 461.027 1137.64 461.405C1137.37 461.784 1137.02 462.036 1136.58 462.162L1131.02 463.748C1130.97 463.76 1130.93 463.766 1130.9 463.766C1130.77 463.766 1130.66 463.721 1130.57 463.631C1130.49 463.535 1130.45 463.42 1130.45 463.288C1130.45 463.156 1130.49 463.042 1130.58 462.946ZM1131.2 474.586C1131.25 475.282 1131.36 475.904 1131.52 476.45C1131.69 476.997 1131.89 477.444 1132.12 477.793C1132.36 478.141 1132.63 478.429 1132.94 478.658C1133.25 478.88 1133.57 479.039 1133.9 479.135C1134.23 479.225 1134.58 479.27 1134.95 479.27C1136.15 479.27 1137.08 479.027 1137.75 478.541C1138.42 478.048 1138.96 477.291 1139.36 476.27L1141.62 477.099C1141.41 477.682 1141.15 478.231 1140.84 478.748C1140.52 479.258 1140.15 479.73 1139.71 480.162C1139.27 480.595 1138.77 480.967 1138.23 481.279C1137.69 481.586 1137.08 481.826 1136.41 482C1135.73 482.174 1135.01 482.261 1134.26 482.261C1133.14 482.261 1132.09 482.054 1131.09 481.64C1130.1 481.225 1129.24 480.649 1128.5 479.91C1127.77 479.165 1127.19 478.249 1126.76 477.162C1126.34 476.075 1126.13 474.892 1126.13 473.613C1126.13 472.333 1126.34 471.144 1126.76 470.045C1127.19 468.946 1127.77 468.021 1128.5 467.27C1129.24 466.514 1130.1 465.922 1131.09 465.495C1132.09 465.069 1133.14 464.856 1134.26 464.856C1135.37 464.856 1136.42 465.069 1137.42 465.495C1138.41 465.922 1139.27 466.514 1140 467.27C1140.74 468.021 1141.32 468.946 1141.74 470.045C1142.17 471.144 1142.39 472.333 1142.39 473.613L1142.18 474.586H1131.2ZM1131.26 471.703H1137.25C1137.11 470.321 1136.78 469.315 1136.28 468.685C1135.77 468.054 1135.11 467.739 1134.27 467.739C1133.86 467.739 1133.49 467.811 1133.16 467.955C1132.83 468.093 1132.54 468.318 1132.28 468.631C1132.02 468.937 1131.8 469.348 1131.63 469.865C1131.46 470.375 1131.33 470.988 1131.26 471.703Z" fill="#707070"/>
<path d="M1148.99 474.586C1149.04 475.282 1149.15 475.904 1149.32 476.45C1149.48 476.997 1149.68 477.444 1149.91 477.793C1150.15 478.141 1150.42 478.429 1150.73 478.658C1151.04 478.88 1151.36 479.039 1151.69 479.135C1152.02 479.225 1152.37 479.27 1152.75 479.27C1153.94 479.27 1154.87 479.027 1155.54 478.541C1156.21 478.048 1156.75 477.291 1157.15 476.27L1159.41 477.099C1159.2 477.682 1158.94 478.231 1158.63 478.748C1158.32 479.258 1157.94 479.73 1157.5 480.162C1157.06 480.595 1156.56 480.967 1156.02 481.279C1155.48 481.586 1154.88 481.826 1154.2 482C1153.52 482.174 1152.8 482.261 1152.05 482.261C1150.93 482.261 1149.88 482.054 1148.88 481.64C1147.89 481.225 1147.03 480.649 1146.29 479.91C1145.56 479.165 1144.98 478.249 1144.55 477.162C1144.13 476.075 1143.92 474.892 1143.92 473.613C1143.92 472.333 1144.13 471.144 1144.55 470.045C1144.98 468.946 1145.56 468.021 1146.29 467.27C1147.03 466.514 1147.89 465.922 1148.88 465.495C1149.88 465.069 1150.93 464.856 1152.05 464.856C1153.16 464.856 1154.22 465.069 1155.21 465.495C1156.2 465.922 1157.07 466.514 1157.8 467.27C1158.53 468.021 1159.11 468.946 1159.54 470.045C1159.97 471.144 1160.18 472.333 1160.18 473.613L1159.97 474.586H1148.99ZM1149.05 471.703H1155.05C1154.9 470.321 1154.57 469.315 1154.07 468.685C1153.57 468.054 1152.9 467.739 1152.07 467.739C1151.65 467.739 1151.28 467.811 1150.95 467.955C1150.63 468.093 1150.33 468.318 1150.07 468.631C1149.81 468.937 1149.59 469.348 1149.42 469.865C1149.25 470.375 1149.13 470.988 1149.05 471.703Z" fill="#707070"/>
<path d="M1175.95 474.586C1176 475.282 1176.11 475.904 1176.27 476.45C1176.44 476.997 1176.64 477.444 1176.87 477.793C1177.11 478.141 1177.38 478.429 1177.69 478.658C1178 478.88 1178.32 479.039 1178.65 479.135C1178.98 479.225 1179.33 479.27 1179.7 479.27C1180.9 479.27 1181.83 479.027 1182.5 478.541C1183.17 478.048 1183.71 477.291 1184.11 476.27L1186.37 477.099C1186.16 477.682 1185.9 478.231 1185.59 478.748C1185.28 479.258 1184.9 479.73 1184.46 480.162C1184.02 480.595 1183.52 480.967 1182.98 481.279C1182.44 481.586 1181.83 481.826 1181.16 482C1180.48 482.174 1179.76 482.261 1179.01 482.261C1177.89 482.261 1176.84 482.054 1175.84 481.64C1174.85 481.225 1173.99 480.649 1173.25 479.91C1172.52 479.165 1171.94 478.249 1171.51 477.162C1171.09 476.075 1170.88 474.892 1170.88 473.613C1170.88 472.333 1171.09 471.144 1171.51 470.045C1171.94 468.946 1172.52 468.021 1173.25 467.27C1173.99 466.514 1174.85 465.922 1175.84 465.495C1176.84 465.069 1177.89 464.856 1179.01 464.856C1180.12 464.856 1181.18 465.069 1182.17 465.495C1183.16 465.922 1184.02 466.514 1184.75 467.27C1185.49 468.021 1186.07 468.946 1186.49 470.045C1186.92 471.144 1187.14 472.333 1187.14 473.613L1186.93 474.586H1175.95ZM1176.01 471.703H1182C1181.86 470.321 1181.53 469.315 1181.03 468.685C1180.52 468.054 1179.86 467.739 1179.03 467.739C1178.61 467.739 1178.24 467.811 1177.91 467.955C1177.58 468.093 1177.29 468.318 1177.03 468.631C1176.77 468.937 1176.55 469.348 1176.38 469.865C1176.21 470.375 1176.09 470.988 1176.01 471.703Z" fill="#707070"/>
<path d="M1199.7 464.856C1200.49 464.856 1201.19 464.97 1201.78 465.198C1202.38 465.426 1202.86 465.742 1203.24 466.144C1203.62 466.541 1203.93 467.048 1204.16 467.667C1204.4 468.279 1204.56 468.94 1204.65 469.649C1204.75 470.351 1204.8 471.156 1204.8 472.063V478.91H1206.49V481.793H1198.34V478.91H1200.04V471.703C1200.04 470.754 1199.96 470.015 1199.8 469.486C1199.64 468.958 1199.41 468.595 1199.1 468.396C1198.8 468.198 1198.39 468.099 1197.87 468.099C1197.39 468.099 1196.91 468.312 1196.41 468.739C1195.91 469.165 1195.44 469.76 1194.99 470.523L1194.95 478.91H1196.65V481.793H1188.5V478.91H1190.2V468.099H1188.5V465.216H1193.77L1194.96 467.658C1195.17 467.255 1195.41 466.895 1195.68 466.577C1195.96 466.252 1196.28 465.958 1196.66 465.694C1197.05 465.423 1197.5 465.216 1198.01 465.072C1198.53 464.928 1199.09 464.856 1199.7 464.856Z" fill="#707070"/>
<path d="M1218.04 481.793C1218.04 481.294 1218.08 480.802 1218.17 480.315C1218.27 479.829 1218.4 479.372 1218.56 478.946C1218.71 478.52 1218.91 478.09 1219.16 477.658C1219.41 477.219 1219.66 476.82 1219.91 476.459C1220.17 476.093 1220.48 475.718 1220.82 475.333C1221.17 474.943 1221.49 474.595 1221.8 474.288C1222.11 473.982 1222.46 473.655 1222.85 473.306C1223.25 472.952 1223.6 472.646 1223.9 472.387C1224.21 472.129 1224.56 471.841 1224.95 471.523C1225.04 471.444 1225.12 471.384 1225.17 471.342C1226.08 470.586 1226.77 469.736 1227.21 468.793C1227.66 467.85 1227.88 466.898 1227.88 465.937C1227.88 464.67 1227.56 463.694 1226.92 463.009C1226.29 462.318 1225.37 461.973 1224.15 461.973C1223.62 461.973 1223.07 462.108 1222.51 462.378C1221.96 462.643 1221.49 462.997 1221.12 463.441C1221.79 463.532 1222.34 463.85 1222.79 464.396C1223.24 464.937 1223.47 465.571 1223.47 466.297C1223.47 467.096 1223.2 467.778 1222.67 468.342C1222.15 468.901 1221.51 469.18 1220.75 469.18C1220.23 469.18 1219.75 469.036 1219.31 468.748C1218.88 468.453 1218.54 468.063 1218.32 467.577C1217.98 466.898 1217.81 466.171 1217.81 465.396C1217.81 464.766 1217.92 464.144 1218.15 463.532C1218.37 462.919 1218.71 462.348 1219.16 461.82C1219.6 461.285 1220.13 460.814 1220.75 460.405C1221.36 459.997 1222.07 459.676 1222.89 459.441C1223.71 459.207 1224.58 459.09 1225.51 459.09C1226.66 459.09 1227.69 459.213 1228.62 459.459C1229.56 459.7 1230.33 460.027 1230.95 460.441C1231.57 460.85 1232.08 461.336 1232.49 461.901C1232.91 462.459 1233.2 463.045 1233.38 463.658C1233.57 464.264 1233.66 464.904 1233.66 465.577C1233.66 466.231 1233.59 466.85 1233.45 467.432C1233.32 468.009 1233.15 468.517 1232.93 468.955C1232.71 469.393 1232.44 469.817 1232.11 470.225C1231.78 470.634 1231.45 470.985 1231.11 471.279C1230.78 471.574 1230.4 471.877 1229.97 472.189C1229.55 472.502 1229.15 472.775 1228.79 473.009C1228.43 473.237 1228.03 473.498 1227.6 473.793C1227.18 474.081 1226.82 474.345 1226.53 474.586C1226.23 474.826 1225.87 475.096 1225.46 475.396C1225.05 475.697 1224.73 475.937 1224.49 476.117C1224.26 476.291 1223.99 476.526 1223.7 476.82C1223.41 477.114 1223.15 477.435 1222.91 477.784C1223.55 477.574 1224.19 477.468 1224.83 477.468H1229.24C1229.48 477.468 1229.69 477.372 1229.88 477.18C1230.07 476.982 1230.21 476.73 1230.3 476.423C1230.4 476.117 1230.48 475.808 1230.52 475.495C1230.57 475.183 1230.6 474.88 1230.6 474.586V473.144H1233.66V481.793H1218.04Z" fill="#707070"/>
<path d="M1242.51 459.468C1243.27 459.216 1244.05 459.09 1244.86 459.09C1245.67 459.09 1246.45 459.216 1247.2 459.468C1247.96 459.715 1248.67 460.069 1249.32 460.532C1249.97 460.994 1250.56 461.568 1251.1 462.252C1251.64 462.937 1252.1 463.703 1252.48 464.55C1252.86 465.39 1253.16 466.333 1253.37 467.378C1253.58 468.417 1253.69 469.508 1253.69 470.649C1253.69 471.79 1253.58 472.883 1253.37 473.928C1253.16 474.967 1252.86 475.91 1252.48 476.757C1252.1 477.598 1251.64 478.36 1251.1 479.045C1250.56 479.73 1249.97 480.303 1249.32 480.766C1248.67 481.228 1247.96 481.583 1247.2 481.829C1246.45 482.081 1245.67 482.207 1244.86 482.207C1244.05 482.207 1243.27 482.081 1242.51 481.829C1241.76 481.583 1241.06 481.228 1240.4 480.766C1239.75 480.303 1239.16 479.73 1238.61 479.045C1238.08 478.36 1237.62 477.598 1237.24 476.757C1236.86 475.91 1236.56 474.967 1236.35 473.928C1236.14 472.883 1236.03 471.79 1236.03 470.649C1236.03 469.508 1236.14 468.417 1236.35 467.378C1236.56 466.333 1236.86 465.39 1237.24 464.55C1237.62 463.703 1238.08 462.937 1238.61 462.252C1239.16 461.568 1239.75 460.994 1240.4 460.532C1241.06 460.069 1241.76 459.715 1242.51 459.468ZM1244.86 461.973C1244.47 461.973 1244.12 462.063 1243.81 462.243C1243.5 462.423 1243.22 462.724 1242.97 463.144C1242.71 463.559 1242.5 464.096 1242.33 464.757C1242.16 465.417 1242.03 466.24 1241.94 467.225C1241.85 468.21 1241.8 469.351 1241.8 470.649C1241.8 471.946 1241.85 473.087 1241.94 474.072C1242.03 475.057 1242.16 475.88 1242.33 476.541C1242.5 477.201 1242.71 477.742 1242.97 478.162C1243.22 478.577 1243.5 478.874 1243.81 479.054C1244.12 479.234 1244.47 479.324 1244.86 479.324C1245.35 479.324 1245.78 479.174 1246.14 478.874C1246.51 478.568 1246.83 478.081 1247.09 477.414C1247.36 476.742 1247.57 475.844 1247.7 474.721C1247.85 473.592 1247.92 472.234 1247.92 470.649C1247.92 469.063 1247.85 467.709 1247.7 466.586C1247.57 465.456 1247.36 464.559 1247.09 463.892C1246.83 463.219 1246.51 462.733 1246.14 462.432C1245.78 462.126 1245.35 461.973 1244.86 461.973Z" fill="#707070"/>
<path d="M1256.07 481.793C1256.07 481.294 1256.11 480.802 1256.2 480.315C1256.3 479.829 1256.42 479.372 1256.58 478.946C1256.74 478.52 1256.94 478.09 1257.19 477.658C1257.43 477.219 1257.69 476.82 1257.94 476.459C1258.2 476.093 1258.5 475.718 1258.85 475.333C1259.19 474.943 1259.52 474.595 1259.83 474.288C1260.14 473.982 1260.49 473.655 1260.88 473.306C1261.27 472.952 1261.63 472.646 1261.93 472.387C1262.24 472.129 1262.58 471.841 1262.97 471.523C1263.07 471.444 1263.14 471.384 1263.2 471.342C1264.11 470.586 1264.79 469.736 1265.24 468.793C1265.69 467.85 1265.91 466.898 1265.91 465.937C1265.91 464.67 1265.59 463.694 1264.95 463.009C1264.32 462.318 1263.39 461.973 1262.18 461.973C1261.64 461.973 1261.1 462.108 1260.54 462.378C1259.98 462.643 1259.52 462.997 1259.15 463.441C1259.81 463.532 1260.37 463.85 1260.82 464.396C1261.27 464.937 1261.5 465.571 1261.5 466.297C1261.5 467.096 1261.23 467.778 1260.7 468.342C1260.17 468.901 1259.53 469.18 1258.78 469.18C1258.26 469.18 1257.77 469.036 1257.34 468.748C1256.9 468.453 1256.57 468.063 1256.35 467.577C1256.01 466.898 1255.84 466.171 1255.84 465.396C1255.84 464.766 1255.95 464.144 1256.18 463.532C1256.4 462.919 1256.74 462.348 1257.19 461.82C1257.63 461.285 1258.16 460.814 1258.77 460.405C1259.38 459.997 1260.1 459.676 1260.92 459.441C1261.74 459.207 1262.61 459.09 1263.53 459.09C1264.68 459.09 1265.72 459.213 1266.65 459.459C1267.58 459.7 1268.36 460.027 1268.98 460.441C1269.59 460.85 1270.11 461.336 1270.52 461.901C1270.93 462.459 1271.23 463.045 1271.41 463.658C1271.59 464.264 1271.68 464.904 1271.68 465.577C1271.68 466.231 1271.62 466.85 1271.48 467.432C1271.35 468.009 1271.17 468.517 1270.95 468.955C1270.74 469.393 1270.47 469.817 1270.14 470.225C1269.81 470.634 1269.48 470.985 1269.14 471.279C1268.8 471.574 1268.42 471.877 1268 472.189C1267.58 472.502 1267.18 472.775 1266.82 473.009C1266.46 473.237 1266.06 473.498 1265.63 473.793C1265.21 474.081 1264.85 474.345 1264.55 474.586C1264.25 474.826 1263.9 475.096 1263.48 475.396C1263.08 475.697 1262.75 475.937 1262.52 476.117C1262.28 476.291 1262.02 476.526 1261.73 476.82C1261.44 477.114 1261.18 477.435 1260.94 477.784C1261.58 477.574 1262.22 477.468 1262.86 477.468H1267.27C1267.51 477.468 1267.72 477.372 1267.91 477.18C1268.09 476.982 1268.23 476.73 1268.33 476.423C1268.43 476.117 1268.51 475.808 1268.55 475.495C1268.6 475.183 1268.63 474.88 1268.63 474.586V473.144H1271.68V481.793H1256.07Z" fill="#707070"/>
<path d="M1281.53 459.45H1285.6V478.91H1289V481.793H1276.78V478.91H1280.17V465.216H1276.78V462.333H1277.46C1277.82 462.333 1278.14 462.315 1278.41 462.279C1278.67 462.237 1278.94 462.159 1279.22 462.045C1279.5 461.925 1279.76 461.76 1280 461.55C1280.24 461.333 1280.49 461.054 1280.74 460.712C1281 460.369 1281.26 459.949 1281.53 459.45Z" fill="#707070"/>
<defs>
<linearGradient id="paint0_linear_1_2" x1="295.72" y1="314.666" x2="415.479" y2="229.227" gradientUnits="userSpaceOnUse">
<stop stop-color="#1778AB"/>
<stop offset="1" stop-color="#41A5DA"/>
</linearGradient>
<linearGradient id="paint1_linear_1_2" x1="190.36" y1="523.266" x2="352" y2="208.474" gradientUnits="userSpaceOnUse">
<stop stop-color="#103652"/>
<stop offset="1" stop-color="#1B5B88"/>
</linearGradient>
<linearGradient id="paint2_linear_1_2" x1="481.5" y1="473.5" x2="342.532" y2="346.995" gradientUnits="userSpaceOnUse">
<stop stop-color="#10522B"/>
<stop offset="1" stop-color="#1B8848"/>
</linearGradient>
<linearGradient id="paint3_linear_1_2" x1="238.48" y1="443.378" x2="334.914" y2="294.2" gradientUnits="userSpaceOnUse">
<stop stop-color="#103652"/>
<stop offset="1" stop-color="#1B5B88"/>
</linearGradient>
</defs>
</svg>
