<svg width="452" height="381" viewBox="0 0 452 381" fill="none" xmlns="http://www.w3.org/2000/svg">
<path d="M280.822 46.509L281.494 46.572L281.746 45.633C280.209 44.567 280.009 44.484 278.885 43.026L279.788 41.254C283.058 39.801 281.685 42.649 285.751 41.747C299.872 48.744 316.545 63.322 326.804 75.158C319.357 77.886 294.549 86.337 287.012 87.956C283.092 89.983 269.65 93.793 264.719 95.452C273.525 102.24 282.221 109.169 290.804 116.236L285.396 122.784C284.626 121.763 283.821 120.769 282.982 119.805C259.487 92.643 232.523 81.227 197.401 78.668C177.718 79.523 166.626 81.75 148.686 90.074C154.874 79.754 164.341 71.362 173.711 64.04C175.261 63.073 177.362 61.277 178.844 60.089L183.302 57.413C215.483 38.355 245.645 37.508 280.822 46.509Z" fill="url(#paint0_linear_87_4)"/>
<path d="M197.401 78.668C201.182 73.806 223.506 69.255 229.955 68.436C247.075 66.263 265.848 68.11 281.75 75.096C287.315 77.541 292.207 80.868 297.764 83.362C294.596 84.37 288.749 85.601 287.012 87.956C283.092 89.983 269.65 93.793 264.719 95.452C273.525 102.24 282.221 109.169 290.804 116.236L285.396 122.784C284.626 121.763 283.821 120.769 282.982 119.805C259.487 92.643 232.523 81.227 197.401 78.668Z" fill="#1487C0"/>
<path d="M126.797 296.303C151.15 314.225 170.425 321.039 200.485 320.714C198.642 321.249 196.812 322.444 195.086 323.312C175.033 333.402 150.417 334.662 128.777 329.589C120.081 327.551 97.878 320.317 93.011 312.344C109.138 316.728 119.796 311.515 126.797 296.303Z" fill="#1487C0"/>
<path d="M137.456 13.7991C140.679 11.5252 144.69 10.6652 148.562 11.4192C154.2 12.5632 157.323 15.9737 160.371 20.4836C166.864 19.0987 173.43 18.078 180.036 17.427C210.706 14.5201 241.596 19.8233 269.54 32.7922C273.923 34.8053 281.332 39.3376 285.779 41.6956C299.9 48.6926 317.832 63.8381 327.332 75.3381C319.898 78.0614 286.947 88.3025 286.832 88.3381C286.832 88.3381 269.679 93.7414 264.747 95.4006C273.553 102.189 282.249 109.118 290.832 116.185L285.424 122.733C284.654 121.712 283.849 120.718 283.01 119.754C259.515 92.5922 232.551 81.1764 197.429 78.6174C177.746 79.4724 166.654 81.6988 148.714 90.0227C154.902 79.7028 164.369 71.3105 173.739 63.9885C170.397 60.0797 156.761 43.2368 153.363 42.0989C149.634 42.4979 146.04 43.0603 142.305 42.9553C135.928 59.0442 128.986 75.1075 122.726 91.1194C126.969 94.4812 129.663 97.6489 130.315 103.28C130.774 107.52 129.493 111.766 126.764 115.044C122.11 120.716 115.8 121.942 108.905 120.576C93.9068 142.685 87.1932 159.418 82.4993 185.558C95.8311 194.532 94.9515 206.954 82.1956 215.891C86.6876 238.276 90.1345 251.96 100.989 272.913C111.198 273.745 119.676 279.047 118.634 290.411C118.201 294.912 115.997 299.058 112.508 301.934C102.51 310.153 92.6153 303.849 86.7903 294.382C78.3443 295.383 69.8909 296.322 61.4309 297.198L59.1506 303.31C66.5536 303.74 73.9632 304.039 81.3772 304.206C85.584 307.671 88.0754 309.725 93.0393 312.293C109.166 316.677 119.824 311.464 126.824 296.252C151.177 314.174 170.453 320.988 200.513 320.663C215.476 319.533 226.193 316.254 239.957 310.693C236.557 320.086 209.752 335.515 200.76 339.838C164.716 357.166 121.868 357.477 86.2717 338.805C82.8556 337.014 70.2912 328.603 67.9983 328.552C61.1623 322.258 57.5573 317.979 51.8733 310.598C33.7933 316.203 20.6431 298.182 34.2131 283.503C21.6021 258.435 18.0235 242.558 13.8235 215.565C7.16274 213.59 2.0613 209.493 0.413344 202.448C-0.518531 198.558 0.139486 194.456 2.24342 191.054C5.11439 186.472 8.91191 184.4 13.9788 183.234C19.0738 150.081 23.9908 130.061 42.8557 101.031C41.5829 99.5376 40.5409 97.8636 39.7639 96.0627C33.5421 81.4538 47.3144 69.9614 62.6214 76.2463C83.1184 53.2813 102.636 41.6836 130.037 29.2766C130.494 22.5618 131.414 17.979 137.456 13.7991ZM60.4378 255.582C57.8748 263.896 55.2471 272.961 52.4622 281.148C57.1212 284.592 58.0572 285.682 60.7131 290.795L78.3089 288.843L86.4798 287.957C87.1848 285.509 87.8289 282.98 88.8499 280.653C84.7232 276.891 63.6217 257.407 60.4378 255.582ZM22.9768 213.707C16.8954 219.852 33.2644 278.069 42.9573 279.659C47.111 278.63 46.9245 276.947 47.9104 272.912L55.3596 250.284C50.4676 244.576 26.8548 215.635 22.9768 213.707ZM73.9583 216.385C69.9873 226.228 66.5918 237.936 63.0198 248.137C71.1368 255.954 80.0027 263.75 88.3977 271.331L95.2327 277.009C90.5127 266.91 86.145 257.678 82.7171 246.649C80.0601 238.101 77.4201 226.52 75.7131 217.414C75.0313 217.015 74.4472 216.672 73.9583 216.385ZM32.9202 202.859C31.8422 204.811 30.3866 207.633 29.1516 209.395C33.4836 214.492 54.2955 239.444 57.721 242.189C58.8578 240.365 58.9958 240.044 59.5608 237.97L67.2249 214.665C62.6349 210.836 61.6638 208.976 59.3928 203.417C50.5699 203.171 41.7461 202.985 32.9202 202.859ZM61.2688 148.511C52.1608 159.055 36.6237 177.559 28.6477 188.616C30.2036 191.063 31.7258 194.999 33.4407 196.181L36.7229 196.342C44.3698 196.546 52.2287 196.846 59.8587 196.935C62.5426 190.612 63.8299 189.126 69.3928 185.178C68.1928 179.679 63.1318 150.431 61.2688 148.511ZM47.8704 105.138C38.5474 121.338 30.1669 136.765 25.9339 155.201C24.8906 159.743 18.5812 181.085 23.0501 183.919C25.2319 183.357 26.3859 181.15 27.7288 179.25C38.2308 165.776 49.0397 152.544 60.1467 139.565C58.1378 128.892 55.6887 117.089 54.2327 106.429C52.3398 106.063 49.6593 105.62 47.8704 105.138ZM101.964 117.083C91.2761 123.739 77.8759 134.101 67.6389 141.744C69.6929 153.649 72.0037 165.51 74.5686 177.316C74.9826 178.995 75.3683 180.731 75.9163 182.366C80.4473 163.263 85.2774 144.755 96.2844 128.222C97.6906 126.111 102.185 119.179 101.964 117.083ZM68.968 96.6946C66.102 100.991 64.665 102.388 60.303 105.17C62.11 114.502 63.973 125.386 66.177 134.504L80.7776 123.847L98.6292 111.188L98.011 104.488L68.968 96.6946ZM131.281 35.8977C102.696 49.0746 89.5827 58.2008 67.3508 80.5227C69.5208 84.5356 69.8818 85.987 71.0217 90.2717L79.1458 92.5071C85.8498 94.3571 92.5262 96.3123 99.1692 98.3713C103.419 92.8224 105.732 89.8722 113.184 88.9602C114.267 88.8362 115.354 88.7551 116.443 88.7161L136.501 40.3137C135.436 39.2837 132.445 36.0927 131.281 35.8977ZM262.293 36.8342C234.819 25.1452 204.746 20.9193 175.115 24.5823C170.775 25.0903 166.452 25.7451 162.156 26.5481C161.745 30.851 161.07 33.3382 158.857 37.1282C165.67 44.6492 172.334 52.3041 178.844 60.0891L183.302 57.4133C215.483 38.3554 245.645 37.5081 280.822 46.509C276.364 43.0231 267.541 39.0302 262.293 36.8342Z" fill="url(#paint1_linear_87_4)"/>
<path d="M126.618 296.338C150.971 314.26 170.246 321.074 200.306 320.749C198.463 321.284 196.633 322.479 194.907 323.347C174.854 333.437 150.238 334.697 128.598 329.624C119.902 327.586 97.699 320.352 92.832 312.379C108.959 316.763 119.617 311.55 126.618 296.338Z" fill="#1B5B88"/>
<path d="M197.332 78.57C201.113 73.708 223.437 69.157 229.886 68.338C247.006 66.165 265.43 66.852 281.332 73.838C287.483 76.178 298.832 84.588 298.832 84.588L287.332 88.338C287.332 88.338 269.581 93.695 264.65 95.354C273.456 102.142 282.152 109.071 290.735 116.138L285.327 122.686C284.557 121.665 283.752 120.671 282.913 119.707C259.418 92.545 232.454 81.129 197.332 78.57Z" fill="#103652"/>
<path d="M341.348 156.833C347.609 161.765 363.086 173.961 368.152 179.143C375.295 221.732 361.908 270.208 337.077 305.185C309.066 344.069 266.907 370.398 219.678 378.504C174.278 385.968 127.78 374.964 90.539 347.945C82.518 342.102 74.972 335.635 67.97 328.603C70.262 328.653 82.828 337.065 86.244 338.856C121.84 357.528 164.688 357.217 200.732 339.889C209.724 335.566 236.529 320.137 239.929 310.744C286.401 287.193 310.284 247.514 309.021 195.445C319.681 182.491 330.901 169.942 341.348 156.833Z" fill="#1B8848"/>
<path d="M370.01 70.4859L370.908 70.271V70.838C371.136 74.423 370.553 78.4209 370.136 82.0079L362.731 163.203C355.756 156.972 347.444 150.357 340.121 144.517C298.198 195.667 225.741 285.389 164.057 306.848C149.709 301.831 139.512 294.746 127.439 285.836C125.73 280.511 125.119 279.017 122.407 274.124C171.017 265.461 222.906 207.95 254.774 172.176C271.435 153.57 287.573 134.501 303.169 114.994C296.451 109.554 289.765 104.076 283.111 98.5599C308.623 90.5589 334.063 82.3279 359.426 73.8679L370.01 70.4859Z" fill="url(#paint2_linear_87_4)"/>
<path d="M192.634 104.191C199.397 104.756 201.997 107.503 204.958 113.251C218.784 114.536 227.588 118.306 239.683 124.62C248.203 119.573 259.212 122.639 259.631 133.434C259.798 137.279 259.017 139.582 256.332 142.338C248.099 150.688 234.666 145.16 235.268 131.561C223.074 125.447 218.338 123.347 205.005 121.439C198.291 132.645 188.731 131.94 181.198 121.922C157.752 128.36 146.534 136.884 131.598 155.44C140.332 176.838 122.845 172.11 120.832 175.338C116.386 190.978 116.402 209.555 120.939 225.054C127.104 226.855 133.028 228.63 134.227 235.886C135.423 243.124 131.891 249.365 124.403 250.517C120.709 251.066 116.95 250.099 113.979 247.837C107.102 242.496 108.711 234.91 113.517 228.817C107.405 207.662 107.721 194.427 113.284 173.138C112.198 171.643 109.361 166.941 108.832 165.338C107.005 150.387 122.527 153.507 124.735 150.686C140.611 130.398 154.385 120.275 180.508 114.027C184.042 107.451 185.303 105.78 192.634 104.191Z" fill="url(#paint3_linear_87_4)"/>
<path d="M417.592 0.500992C419.257 0.196992 428.104 0.065 430.306 0C421.441 12.161 423.741 17.698 419.896 30.76C413.507 52.467 396.667 49.612 382.089 57.566C384.988 41.567 389.83 33.883 400.593 21.974L401.379 21.44L400.948 20.963C385.573 28.277 379.229 42.004 373.071 56.777C362.109 21.288 385.48 3.79599 417.592 0.500992Z" fill="#1B8848"/>
<path d="M406.079 56.713C424.192 54.915 440.373 64.35 451.531 77.987C431.977 80.734 426.843 95.015 408.514 94.369C402.282 94.15 393.532 88.8 385.685 87.437L385.335 87.379C383.519 87.659 382.194 88.015 380.397 87.656C380.615 87.32 380.833 86.984 381.05 86.648C394.066 74.454 407.229 74.208 422.546 73.207C404.609 68.486 395.288 70.287 379.047 78.4C379.955 76.587 380.958 74.822 382.052 73.115C388.005 63.799 395.568 59.06 406.079 56.713Z" fill="#1B8848"/>
<path d="M333.631 15.245C358.029 22.058 374.322 43.322 355.634 66.201C355.995 55.286 355.801 51.66 351.104 41.654C349.719 39.264 348.099 37.554 346.292 35.478C349.905 44.654 352.262 53.72 349.614 63.829C349.309 64.995 349.144 65.427 348.286 65.837C344.56 58.343 338.972 56.39 334.705 49.992C329.85 42.711 333.8 31.796 334.275 23.805C334.432 21.159 333.987 17.932 333.631 15.245Z" fill="#1B8848"/>
<defs>
<linearGradient id="paint0_linear_87_4" x1="176.552" y1="121.004" x2="296.31" y2="35.565" gradientUnits="userSpaceOnUse">
<stop stop-color="#1778AB"/>
<stop offset="1" stop-color="#41A5DA"/>
</linearGradient>
<linearGradient id="paint1_linear_87_4" x1="71.1929" y1="329.604" x2="232.832" y2="14.8113" gradientUnits="userSpaceOnUse">
<stop stop-color="#103652"/>
<stop offset="1" stop-color="#1B5B88"/>
</linearGradient>
<linearGradient id="paint2_linear_87_4" x1="362.332" y1="279.838" x2="223.364" y2="153.333" gradientUnits="userSpaceOnUse">
<stop stop-color="#10522B"/>
<stop offset="1" stop-color="#1B8848"/>
</linearGradient>
<linearGradient id="paint3_linear_87_4" x1="119.312" y1="249.716" x2="215.746" y2="100.538" gradientUnits="userSpaceOnUse">
<stop stop-color="#103652"/>
<stop offset="1" stop-color="#1B5B88"/>
</linearGradient>
</defs>
</svg>
