<svg width="540" height="455" viewBox="0 0 540 455" fill="none" xmlns="http://www.w3.org/2000/svg">
<path d="M335.553 55.5733L336.356 55.6485L336.657 54.5265C334.82 53.2528 334.581 53.1536 333.238 51.4115L334.317 49.2941C338.224 47.5579 336.584 50.961 341.442 49.8832C358.315 58.2438 378.238 75.663 390.496 89.8058C381.598 93.0654 351.955 103.163 342.949 105.098C338.265 107.52 322.203 112.073 316.311 114.055C326.834 122.166 337.224 130.445 347.48 138.89L341.018 146.714C340.098 145.494 339.136 144.306 338.134 143.154C310.06 110.698 277.841 97.0576 235.874 93.9998C212.354 95.0215 199.101 97.6825 177.664 107.629C185.058 95.2975 196.37 85.2699 207.567 76.5209C209.419 75.3655 211.929 73.2195 213.7 71.7999L219.027 68.6024C257.48 45.8301 293.52 44.818 335.553 55.5733Z" fill="url(#paint0_linear_87_4)"/>
<path d="M235.873 93.9999C240.391 88.1903 267.066 82.7523 274.772 81.7737C295.229 79.1772 317.66 81.3842 336.662 89.7317C343.311 92.6532 349.157 96.6286 355.797 99.6087C352.011 100.813 345.025 102.284 342.949 105.098C338.265 107.52 322.203 112.073 316.311 114.055C326.834 122.166 337.224 130.445 347.48 138.89L341.018 146.714C340.098 145.494 339.136 144.306 338.134 143.154C310.06 110.699 277.841 97.0576 235.873 93.9999Z" fill="#1487C0"/>
<path d="M151.509 354.05C180.609 375.465 203.64 383.607 239.559 383.219C237.356 383.858 235.17 385.286 233.107 386.323C209.146 398.38 179.733 399.885 153.875 393.824C143.484 391.388 116.954 382.745 111.139 373.218C130.409 378.456 143.144 372.227 151.509 354.05Z" fill="#1487C0"/>
<path d="M164.246 16.4883C168.097 13.7712 172.89 12.7436 177.516 13.6445C184.253 15.0115 187.985 19.0876 191.627 24.4766C199.385 22.8217 207.229 21.6011 215.124 20.8232C251.771 17.3497 288.682 23.6861 322.072 39.1826C327.309 41.5879 336.162 47.0047 341.475 49.8223C358.348 58.1829 379.776 76.2792 391.128 90.0205C382.236 93.2779 342.79 105.537 342.734 105.555C342.734 105.555 322.236 112.012 316.344 113.994C326.867 122.105 337.258 130.385 347.513 138.829L341.051 146.653C340.131 145.433 339.169 144.245 338.167 143.093C310.093 110.637 277.874 96.9962 235.907 93.9385C212.388 94.9601 199.134 97.6212 177.698 107.567C185.092 95.2363 196.404 85.2089 207.6 76.46C203.608 71.7903 187.314 51.6635 183.253 50.3037C178.797 50.7805 174.503 51.4516 170.04 51.3262C162.42 70.5508 154.125 89.7453 146.645 108.878C151.715 112.895 154.933 116.68 155.713 123.408C156.261 128.475 154.73 133.548 151.469 137.465C145.908 144.242 138.37 145.707 130.131 144.075C112.21 170.493 104.187 190.487 98.5778 221.722C114.508 232.445 113.458 247.288 98.2155 257.967C103.583 284.714 107.702 301.065 120.672 326.102C132.87 327.096 143 333.431 141.756 347.01C141.238 352.388 138.604 357.343 134.435 360.779C122.489 370.6 110.665 363.067 103.705 351.755C93.6129 352.951 83.5126 354.074 73.404 355.121L70.6794 362.423C79.5251 362.937 88.3781 363.295 97.237 363.494C102.264 367.634 105.24 370.089 111.172 373.157C130.442 378.396 143.177 372.166 151.543 353.989C180.642 375.404 203.674 383.547 239.592 383.158C257.471 381.808 270.277 377.89 286.723 371.245C282.661 382.469 250.632 400.905 239.887 406.07C196.819 426.775 145.62 427.147 103.087 404.836C99.0049 402.696 83.9894 392.645 81.2507 392.585C73.0825 385.064 68.7748 379.951 61.9831 371.132C40.3795 377.829 24.6669 356.296 40.8815 338.756C25.8127 308.802 21.5368 289.831 16.5183 257.577C8.55933 255.217 2.46308 250.323 0.493845 241.905C-0.619794 237.256 0.16632 232.354 2.68037 228.289C6.1109 222.814 10.6493 220.339 16.7038 218.945C22.7918 179.331 28.6672 155.41 51.2087 120.722C49.6876 118.938 48.4428 116.937 47.5144 114.785C40.0797 97.329 56.5357 83.5956 74.8259 91.1055C99.3175 63.6649 122.639 49.8074 155.381 34.9824C155.927 26.959 157.026 21.4828 164.246 16.4883ZM72.2175 305.394C69.155 315.328 66.0149 326.159 62.6872 335.941C68.2541 340.057 69.3721 341.36 72.5456 347.469L93.571 345.137L103.335 344.078C104.177 341.153 104.947 338.131 106.167 335.351C101.237 330.857 76.0229 307.575 72.2175 305.394ZM27.4558 255.357C20.1886 262.699 39.7477 332.263 51.3298 334.163C56.2931 332.934 56.0696 330.922 57.2478 326.101L66.1501 299.062C60.3048 292.242 32.0907 257.663 27.4558 255.357ZM88.3728 258.557C83.6278 270.318 79.5706 284.308 75.3024 296.497C85.0014 305.838 95.5955 315.153 105.627 324.212L113.794 330.996C108.154 318.929 102.935 307.898 98.8386 294.72C95.6637 284.506 92.5091 270.667 90.4694 259.786C89.6546 259.309 88.957 258.9 88.3728 258.557ZM39.3366 242.395C38.0485 244.727 36.3094 248.1 34.8337 250.205C40.01 256.295 64.8766 286.109 68.9704 289.39C70.329 287.21 70.4945 286.827 71.1696 284.349L80.3269 256.502C74.8423 251.927 73.682 249.704 70.9685 243.062C60.4261 242.768 49.8826 242.545 39.3366 242.395ZM73.2106 177.455C62.3276 190.054 43.7626 212.164 34.2321 225.376C36.0913 228.3 37.9096 233.003 39.9587 234.415L43.8806 234.607C53.0177 234.851 62.4082 235.21 71.5251 235.316C74.7322 227.761 76.2705 225.985 82.9177 221.268C81.4837 214.696 75.4369 179.752 73.2106 177.455ZM57.1999 125.629C46.06 144.986 36.047 163.419 30.989 185.448C29.7427 190.874 22.2027 216.377 27.5427 219.764C30.1499 219.092 31.5288 216.455 33.1335 214.185C45.6822 198.085 58.5982 182.274 71.8698 166.766C69.4693 154.013 66.5432 139.908 64.8034 127.171C62.5415 126.734 59.3376 126.205 57.1999 125.629ZM121.837 139.901C109.066 147.855 93.0541 160.237 80.822 169.369C83.2763 183.594 86.0374 197.767 89.1022 211.874C89.5969 213.88 90.0568 215.955 90.7116 217.908C96.1257 195.082 101.897 172.967 115.05 153.212C116.73 150.689 122.101 142.406 121.837 139.901ZM82.4099 115.54C78.9853 120.673 77.2683 122.343 72.0563 125.667C74.2155 136.818 76.4414 149.823 79.0749 160.718L96.5212 147.984L117.851 132.857L117.113 124.852L82.4099 115.54ZM156.867 42.8945C122.711 58.6396 107.042 69.5445 80.4772 96.2168C83.0701 101.012 83.5018 102.745 84.864 107.865L94.571 110.536C102.582 112.747 110.559 115.083 118.497 117.543C123.575 110.913 126.339 107.388 135.243 106.298C136.537 106.15 137.836 106.052 139.137 106.006L163.104 48.1709C161.831 46.94 158.258 43.1275 156.867 42.8945ZM313.413 44.0127C280.584 30.0456 244.651 24.9961 209.245 29.373C204.058 29.98 198.894 30.7622 193.759 31.7217C193.268 36.8633 192.461 39.8356 189.817 44.3643C197.958 53.351 205.921 62.4976 213.7 71.7998L219.027 68.6025C257.48 45.8304 293.52 44.8181 335.552 55.5732C330.226 51.4079 319.684 46.6367 313.413 44.0127Z" fill="url(#paint1_linear_87_4)"/>
<path d="M151.295 354.092C180.395 375.507 203.426 383.649 239.345 383.261C237.143 383.9 234.956 385.328 232.893 386.365C208.932 398.422 179.519 399.927 153.661 393.865C143.271 391.43 116.74 382.786 110.925 373.26C130.195 378.498 142.93 372.269 151.295 354.092Z" fill="#1B5B88"/>
<path d="M235.791 93.8828C240.309 88.0732 266.984 82.6353 274.69 81.6566C295.146 79.0601 317.161 79.881 336.162 88.2286C343.512 91.0246 357.073 101.074 357.073 101.074L343.331 105.555C343.331 105.555 322.121 111.956 316.229 113.938C326.751 122.049 337.142 130.328 347.398 138.773L340.936 146.597C340.016 145.377 339.054 144.189 338.051 143.037C309.977 110.581 277.758 96.9405 235.791 93.8828Z" fill="#103652"/>
<path d="M407.875 187.399C415.356 193.292 433.849 207.865 439.903 214.057C448.438 264.946 432.442 322.87 402.771 364.663C369.301 411.126 318.926 442.586 262.492 452.272C208.244 461.191 152.684 448.042 108.185 415.757C98.6006 408.775 89.584 401.048 81.2173 392.646C83.956 392.705 98.971 402.757 103.053 404.897C145.586 427.208 196.785 426.836 239.854 406.131C250.598 400.966 282.627 382.53 286.69 371.306C342.219 343.165 370.757 295.753 369.248 233.536C381.985 218.057 395.392 203.063 407.875 187.399Z" fill="#1B8848"/>
<path d="M442.123 84.2232L443.196 83.9663V84.6438C443.468 88.9275 442.772 93.7046 442.273 97.9907L433.425 195.01C425.091 187.565 415.159 179.66 406.409 172.682C356.315 233.801 269.737 341.009 196.031 366.65C178.887 360.656 166.702 352.19 152.276 341.543C150.234 335.181 149.504 333.395 146.264 327.549C204.347 317.197 266.349 248.478 304.428 205.732C324.336 183.5 343.619 160.714 362.255 137.405C354.228 130.905 346.239 124.36 338.288 117.769C368.772 108.208 399.17 98.3731 429.476 88.2643L442.123 84.2232Z" fill="url(#paint2_linear_87_4)"/>
<path d="M230.177 124.497C238.259 125.172 241.365 128.455 244.903 135.323C261.424 136.858 271.944 141.363 286.396 148.908C296.577 142.877 309.731 146.541 310.232 159.439C310.431 164.034 309.498 166.786 306.29 170.079C296.452 180.056 280.401 173.451 281.121 157.201C266.55 149.896 260.891 147.386 244.96 145.107C236.937 158.497 225.514 157.654 216.513 145.684C188.497 153.376 175.093 163.562 157.246 185.734C167.682 211.303 146.787 205.653 144.382 209.51C139.069 228.198 139.088 250.396 144.51 268.915C151.876 271.067 158.955 273.188 160.387 281.859C161.816 290.507 157.596 297.965 148.649 299.341C144.235 299.997 139.743 298.842 136.193 296.139C127.976 289.757 129.898 280.692 135.641 273.412C128.338 248.134 128.716 232.319 135.363 206.881C134.065 205.095 130.675 199.477 130.043 197.561C127.86 179.696 146.407 183.424 149.045 180.054C168.016 155.812 184.474 143.716 215.688 136.25C219.911 128.392 221.418 126.396 230.177 124.497Z" fill="url(#paint3_linear_87_4)"/>
<path d="M498.978 0.598632C500.968 0.235384 511.539 0.0776681 514.17 0C503.577 14.5311 506.326 21.1472 501.731 36.7549C494.097 62.6925 473.975 59.281 456.556 68.7852C460.02 49.6681 465.806 40.4866 478.666 26.2566L479.605 25.6185L479.09 25.0485C460.719 33.788 453.139 50.1903 445.78 67.8424C432.682 25.4369 460.608 4.53581 498.978 0.598632Z" fill="#1B8848"/>
<path d="M485.221 67.766C506.865 65.6176 526.199 76.8914 539.532 93.1861C516.167 96.4685 510.032 113.533 488.131 112.761C480.684 112.499 470.229 106.107 460.853 104.478L460.435 104.409C458.265 104.743 456.681 105.169 454.534 104.74C454.795 104.338 455.055 103.937 455.314 103.535C470.867 88.9646 486.596 88.6706 504.898 87.4745C483.465 81.8335 472.327 83.9855 452.921 93.6797C454.006 91.5133 455.205 89.4043 456.512 87.3646C463.625 76.233 472.662 70.5704 485.221 67.766Z" fill="#1B8848"/>
<path d="M398.654 18.2162C427.807 26.357 447.275 51.7652 424.945 79.1031C425.376 66.0609 425.145 61.7282 419.532 49.7721C417.877 46.9163 415.942 44.873 413.782 42.3924C418.1 53.3568 420.916 64.1897 417.752 76.2688C417.387 77.6621 417.19 78.1783 416.165 78.6682C411.713 69.7137 405.036 67.38 399.937 59.7351C394.136 51.0351 398.856 37.9928 399.423 28.4444C399.611 25.2828 399.079 21.4268 398.654 18.2162Z" fill="#1B8848"/>
<defs>
<linearGradient id="paint0_linear_87_4" x1="210.961" y1="144.587" x2="354.06" y2="42.4964" gradientUnits="userSpaceOnUse">
<stop stop-color="#1778AB"/>
<stop offset="1" stop-color="#41A5DA"/>
</linearGradient>
<linearGradient id="paint1_linear_87_4" x1="85.0679" y1="393.841" x2="278.21" y2="17.6975" gradientUnits="userSpaceOnUse">
<stop stop-color="#103652"/>
<stop offset="1" stop-color="#1B5B88"/>
</linearGradient>
<linearGradient id="paint2_linear_87_4" x1="432.948" y1="334.377" x2="266.897" y2="183.217" gradientUnits="userSpaceOnUse">
<stop stop-color="#10522B"/>
<stop offset="1" stop-color="#1B8848"/>
</linearGradient>
<linearGradient id="paint3_linear_87_4" x1="142.565" y1="298.384" x2="257.793" y2="120.132" gradientUnits="userSpaceOnUse">
<stop stop-color="#103652"/>
<stop offset="1" stop-color="#1B5B88"/>
</linearGradient>
</defs>
</svg>
