<svg width="1398" height="455" viewBox="0 0 1398 455" fill="none" xmlns="http://www.w3.org/2000/svg">
<path d="M1365.94 192.183L1383.22 192.256L1383.33 208.02L1397.05 208.067L1397.11 222.351L1383.19 222.333C1383.24 231.138 1382.41 243.089 1383.68 251.604C1384.84 259.426 1391.3 254.181 1396.28 257.351C1397.96 259.69 1397.37 262.873 1397.22 265.841C1397.33 268.201 1397.36 268.573 1396.68 270.826C1392.44 272.224 1382.14 271.107 1377.64 269.946C1358.07 264.886 1369.53 231.527 1364.99 222.84C1362.44 222.562 1362.09 222.518 1359.84 221.323C1357.2 217.602 1357.76 213.23 1358.17 208.837C1361.3 206.697 1361.11 208.969 1365.3 207.542C1366.46 204.208 1365.99 196.078 1365.94 192.183Z" fill="#1B5B88"/>
<path d="M1318.99 207.436C1338.74 206.033 1348.02 211.705 1354.72 230.145L1336.62 230.163C1321.76 207.602 1304.93 233.853 1313.12 250.288C1315.11 254.329 1318.26 256.4 1322.75 256.852C1333.8 257.967 1331.23 249.441 1342.26 248.999L1354.5 249.146C1353.66 252.311 1352.85 254.7 1351.26 257.607C1347.78 264.024 1341.88 268.774 1334.87 270.793C1291.08 283.304 1275.49 218.342 1318.99 207.436Z" fill="#1B5B88"/>
<path d="M1251.69 207.416C1277.92 205.95 1288.86 218.797 1288 244.302L1242.69 244.41L1242.87 244.862C1248.31 258.273 1259.34 263.593 1269.18 250.78L1283.09 250.773C1284.76 250.732 1284.9 250.59 1286.36 251.462C1287.71 258.478 1273.22 269.882 1266.96 271.343C1235.71 278.629 1215.88 247.613 1230.79 220.849C1235.07 213.183 1243.34 209.386 1251.69 207.416ZM1269.96 228.333C1265.43 222.055 1260.53 220.86 1253.22 221.414C1246.53 224.612 1245.69 226.661 1242.69 233.583L1260.48 233.544C1263.39 233.663 1267.1 234.225 1269.31 232.591C1270.66 230.127 1270.46 231.249 1269.96 228.333Z" fill="#1B5B88"/>
<path d="M1189.11 207.396C1225.82 205.517 1218.08 245.805 1217.91 271.263L1200.32 271.14C1200.18 259.531 1201.26 247.458 1200.42 235.973C1199.58 224.774 1193.44 221.254 1183.19 222.496C1170.16 229.354 1174.61 257.436 1174.64 271.297L1157.13 271.185V207.958C1161.37 207.87 1170.82 207.015 1173.84 209.765C1174.33 210.209 1174.21 211.568 1174.27 212.452L1175.48 213.384C1180.2 210.752 1183.74 208.474 1189.11 207.396Z" fill="#1B5B88"/>
<path d="M1116.45 207.521C1117.78 207.398 1119.1 207.337 1120.43 207.34C1153.17 207.37 1145.86 248.301 1145.76 271.127L1128.45 271.051C1128.29 259.139 1129.42 246.446 1128.21 234.699C1127.09 223.794 1120.14 220.902 1110.31 222.671C1102 228.959 1102.49 235.545 1102.65 245.457C1102.78 254.073 1102.94 262.688 1102.98 271.305L1085.38 271.023L1085.43 208.015C1090.44 207.915 1095.62 207.707 1100.62 208.072C1104.16 208.331 1101.52 211.256 1103.49 213.538C1107.61 211.224 1111.06 209.092 1115.63 207.755L1116.45 207.521Z" fill="#1B5B88"/>
<path d="M1038.05 207.627C1049.55 205.195 1061.47 209.132 1069.26 217.933C1077.04 226.734 1079.51 239.041 1075.71 250.161C1071.89 261.279 1062.41 269.495 1050.85 271.671C1033.27 274.985 1016.29 263.527 1012.79 245.979C1009.28 228.431 1020.55 211.327 1038.05 207.627ZM1047.91 256.592C1066.76 248.56 1062.54 220.919 1041.52 222.168C1023.79 230.056 1026.42 257.354 1047.91 256.592Z" fill="#1B5B88"/>
<path d="M961.555 191.029C984.936 188.931 998.795 195.544 1007.35 217.877L988.437 217.908C973.586 195.881 946.228 206.916 948.112 232.494C949.63 253.088 968.749 264.413 984.809 248.745C989.117 241.666 999.347 244.406 1006.88 244.967C1005.9 247.447 1004.82 249.88 1003.62 252.261C993.658 271.814 968.453 277.093 950.053 266.888C941.128 261.941 934.575 253.602 931.88 243.759C924.852 218.916 936.859 197.849 961.555 191.029Z" fill="#1B5B88"/>
<path d="M888.589 207.449C914.817 205.739 924.92 219.453 924.56 244.282L879.397 244.364C884.04 258.307 895.708 263.169 905.506 250.695L919.177 250.736L921.939 250.945L922.759 252.122C922.44 259.606 910.141 269.835 903.403 271.389C871.816 278.67 851.872 247.244 867.439 220.433C871.9 212.75 880.312 209.091 888.589 207.449ZM890.207 221.349C883.824 224.175 882.076 226.252 879.5 232.95L879.251 233.61L896.237 233.57C899.553 233.673 903.546 234.266 906.083 232.355C909.824 224.417 896.178 221.245 890.207 221.349Z" fill="#1B8848"/>
<path d="M836.165 187.062L853.928 187.098C854.063 215.141 854.029 243.183 853.822 271.225L836.184 271.097L836.165 187.062Z" fill="#1B8848"/>
<path d="M792.315 207.429C810.72 206.384 822.744 210.932 827.769 230.072L809.927 230.309C799.592 212.993 784.126 223.812 784.658 240.495C784.743 247.646 787.958 255.943 796.134 256.663C807.385 257.655 804.646 249.395 816.293 248.759L827.869 249.025C825.06 259.292 819.269 267.942 808.275 270.88C776.583 279.35 756.805 247.998 771.686 220.955C775.858 213.374 784.046 209.375 792.315 207.429Z" fill="#1B8848"/>
<path d="M746.99 207.913L765.542 208.118C760.424 222.121 753.126 238.517 747.281 252.469L727.85 299.39L708.816 299.275L722.532 268.937C713.716 248.829 705.33 228.536 697.378 208.072L716.292 208.009C721.564 220.918 726.427 235.738 731.671 249.147C737.072 236.126 742.144 221.275 746.99 207.913Z" fill="#1B8848"/>
<path d="M659.774 207.53C678.757 206.234 690.78 210.366 696.253 230.062L678.56 230.206C657.585 195.942 636.612 265.847 672.421 255.521C675.541 254.62 675.558 249.613 682.177 248.891L696.485 249.073C695.848 251.358 694.611 254.836 693.587 256.925C690.468 263.298 684.928 268.158 678.201 270.417C634.75 284.765 616.283 220.182 659.774 207.53Z" fill="#1B8848"/>
<path d="M596.684 207.416C629.134 205.508 639.499 240.119 621.769 263.326C611.479 276.794 593.602 273.951 581.371 262.871L581.596 279.236L581.47 299.329L564.106 299.289L564.063 207.935C567.182 207.886 579.155 207.294 580.973 208.64C581.282 210.655 581.415 212.092 581.537 214.127C584.12 214.013 589.098 209.184 596.684 207.416ZM595.573 222.234C573.805 228.169 578.237 256.467 598.964 256.827C604.591 254.86 607.88 253.207 610.55 247.484C612.806 242.729 612.989 237.248 611.054 232.351C608.333 225.465 602.744 222.378 595.573 222.234Z" fill="#1B8848"/>
<path d="M534.621 191.463L552.538 191.325L552.508 206.278C552.812 233.973 559.365 270.408 520.25 272.105C509.994 272.549 494.963 266.948 491.011 257.643C483.991 241.12 486.662 209.219 486.763 191.416L504.17 191.376C504.495 204.688 500.454 243.201 509.235 252.011C511.995 254.781 515.728 255.905 519.572 255.908C523.382 255.909 527.181 254.721 529.872 251.934C532.358 249.359 533.715 245.989 534.348 242.507C536.421 231.113 534.714 204.371 534.621 191.463Z" fill="#1B8848"/>
<path d="M335.553 55.5733L336.356 55.6485L336.657 54.5265C334.82 53.2528 334.581 53.1536 333.238 51.4115L334.317 49.2941C338.224 47.5579 336.584 50.961 341.442 49.8832C358.315 58.2438 378.238 75.663 390.496 89.8058C381.598 93.0654 351.955 103.163 342.949 105.098C338.265 107.52 322.203 112.073 316.311 114.055C326.834 122.166 337.224 130.445 347.48 138.89L341.018 146.714C340.098 145.494 339.136 144.306 338.134 143.154C310.06 110.698 277.841 97.0576 235.874 93.9998C212.354 95.0215 199.101 97.6825 177.664 107.629C185.058 95.2975 196.37 85.2699 207.567 76.5209C209.419 75.3655 211.929 73.2195 213.7 71.7999L219.027 68.6024C257.48 45.8301 293.52 44.818 335.553 55.5733Z" fill="url(#paint0_linear_88_2)"/>
<path d="M235.873 93.9999C240.391 88.1903 267.066 82.7523 274.772 81.7737C295.229 79.1772 317.66 81.3842 336.662 89.7317C343.311 92.6532 349.157 96.6286 355.797 99.6087C352.011 100.813 345.025 102.284 342.949 105.098C338.265 107.52 322.203 112.073 316.311 114.055C326.834 122.166 337.224 130.445 347.48 138.89L341.018 146.714C340.098 145.494 339.136 144.306 338.134 143.154C310.06 110.699 277.841 97.0576 235.873 93.9999Z" fill="#1487C0"/>
<path d="M151.509 354.05C180.609 375.465 203.64 383.607 239.559 383.219C237.356 383.858 235.17 385.286 233.107 386.323C209.146 398.38 179.733 399.885 153.875 393.824C143.484 391.388 116.954 382.745 111.139 373.218C130.409 378.456 143.144 372.227 151.509 354.05Z" fill="#1487C0"/>
<path d="M164.246 16.4883C168.097 13.7712 172.89 12.7436 177.516 13.6445C184.253 15.0115 187.985 19.0876 191.627 24.4766C199.385 22.8217 207.229 21.6011 215.124 20.8232C251.771 17.3497 288.682 23.6861 322.072 39.1826C327.309 41.5879 336.162 47.0047 341.475 49.8223C358.348 58.1829 379.776 76.2792 391.128 90.0205C382.236 93.2779 342.79 105.537 342.734 105.555C342.734 105.555 322.236 112.012 316.344 113.994C326.867 122.105 337.258 130.385 347.513 138.829L341.051 146.653C340.131 145.433 339.169 144.245 338.167 143.093C310.093 110.637 277.874 96.9962 235.907 93.9385C212.388 94.9601 199.134 97.6212 177.698 107.567C185.092 95.2363 196.404 85.2089 207.6 76.46C203.608 71.7903 187.314 51.6635 183.253 50.3037C178.797 50.7805 174.503 51.4516 170.04 51.3262C162.42 70.5508 154.125 89.7453 146.645 108.878C151.715 112.895 154.933 116.68 155.713 123.408C156.261 128.475 154.73 133.548 151.469 137.465C145.908 144.242 138.37 145.707 130.131 144.075C112.21 170.493 104.187 190.487 98.5778 221.722C114.508 232.445 113.458 247.288 98.2155 257.967C103.583 284.714 107.702 301.065 120.672 326.102C132.87 327.096 143 333.431 141.756 347.01C141.238 352.388 138.604 357.343 134.435 360.779C122.489 370.6 110.665 363.067 103.705 351.755C93.6129 352.951 83.5126 354.074 73.404 355.121L70.6794 362.423C79.5251 362.937 88.3781 363.295 97.237 363.494C102.264 367.634 105.24 370.089 111.172 373.157C130.442 378.396 143.177 372.166 151.543 353.989C180.642 375.404 203.674 383.547 239.592 383.158C257.471 381.808 270.277 377.89 286.723 371.245C282.661 382.469 250.632 400.905 239.887 406.07C196.819 426.775 145.62 427.147 103.087 404.836C99.0049 402.696 83.9894 392.645 81.2507 392.585C73.0825 385.064 68.7748 379.951 61.9831 371.132C40.3795 377.829 24.6669 356.296 40.8815 338.756C25.8127 308.802 21.5368 289.831 16.5183 257.577C8.55933 255.217 2.46308 250.323 0.493845 241.905C-0.619794 237.256 0.16632 232.354 2.68037 228.289C6.1109 222.814 10.6493 220.339 16.7038 218.945C22.7918 179.331 28.6672 155.41 51.2087 120.722C49.6876 118.938 48.4428 116.937 47.5144 114.785C40.0797 97.329 56.5357 83.5956 74.8259 91.1055C99.3175 63.6649 122.639 49.8074 155.381 34.9824C155.927 26.959 157.026 21.4828 164.246 16.4883ZM72.2175 305.394C69.155 315.328 66.0149 326.159 62.6872 335.941C68.2541 340.057 69.3721 341.36 72.5456 347.469L93.571 345.137L103.335 344.078C104.177 341.153 104.947 338.131 106.167 335.351C101.237 330.857 76.0229 307.575 72.2175 305.394ZM27.4558 255.357C20.1886 262.699 39.7477 332.263 51.3298 334.163C56.2931 332.934 56.0696 330.922 57.2478 326.101L66.1501 299.062C60.3048 292.242 32.0907 257.663 27.4558 255.357ZM88.3728 258.557C83.6278 270.318 79.5706 284.308 75.3024 296.497C85.0014 305.838 95.5955 315.153 105.627 324.212L113.794 330.996C108.154 318.929 102.935 307.898 98.8386 294.72C95.6637 284.506 92.5091 270.667 90.4694 259.786C89.6546 259.309 88.957 258.9 88.3728 258.557ZM39.3366 242.395C38.0485 244.727 36.3094 248.1 34.8337 250.205C40.01 256.295 64.8766 286.109 68.9704 289.39C70.329 287.21 70.4945 286.827 71.1696 284.349L80.3269 256.502C74.8423 251.927 73.682 249.704 70.9685 243.062C60.4261 242.768 49.8826 242.545 39.3366 242.395ZM73.2106 177.455C62.3276 190.054 43.7626 212.164 34.2321 225.376C36.0913 228.3 37.9096 233.003 39.9587 234.415L43.8806 234.607C53.0177 234.851 62.4082 235.21 71.5251 235.316C74.7322 227.761 76.2705 225.985 82.9177 221.268C81.4837 214.696 75.4369 179.752 73.2106 177.455ZM57.1999 125.629C46.06 144.986 36.047 163.419 30.989 185.448C29.7427 190.874 22.2027 216.377 27.5427 219.764C30.1499 219.092 31.5288 216.455 33.1335 214.185C45.6822 198.085 58.5982 182.274 71.8698 166.766C69.4693 154.013 66.5432 139.908 64.8034 127.171C62.5415 126.734 59.3376 126.205 57.1999 125.629ZM121.837 139.901C109.066 147.855 93.0541 160.237 80.822 169.369C83.2763 183.594 86.0374 197.767 89.1022 211.874C89.5969 213.88 90.0568 215.955 90.7116 217.908C96.1257 195.082 101.897 172.967 115.05 153.212C116.73 150.689 122.101 142.406 121.837 139.901ZM82.4099 115.54C78.9853 120.673 77.2683 122.343 72.0563 125.667C74.2155 136.818 76.4414 149.823 79.0749 160.718L96.5212 147.984L117.851 132.857L117.113 124.852L82.4099 115.54ZM156.867 42.8945C122.711 58.6396 107.042 69.5445 80.4772 96.2168C83.0701 101.012 83.5018 102.745 84.864 107.865L94.571 110.536C102.582 112.747 110.559 115.083 118.497 117.543C123.575 110.913 126.339 107.388 135.243 106.298C136.537 106.15 137.836 106.052 139.137 106.006L163.104 48.1709C161.831 46.94 158.258 43.1275 156.867 42.8945ZM313.413 44.0127C280.584 30.0456 244.651 24.9961 209.245 29.373C204.058 29.98 198.894 30.7622 193.759 31.7217C193.268 36.8633 192.461 39.8356 189.817 44.3643C197.958 53.351 205.921 62.4976 213.7 71.7998L219.027 68.6025C257.48 45.8304 293.52 44.8181 335.552 55.5732C330.226 51.4079 319.684 46.6367 313.413 44.0127Z" fill="url(#paint1_linear_88_2)"/>
<path d="M151.295 354.092C180.395 375.507 203.426 383.649 239.345 383.261C237.143 383.9 234.956 385.328 232.893 386.365C208.932 398.422 179.519 399.927 153.661 393.865C143.271 391.43 116.74 382.786 110.925 373.26C130.195 378.498 142.93 372.269 151.295 354.092Z" fill="#1B5B88"/>
<path d="M235.791 93.8828C240.309 88.0732 266.984 82.6353 274.69 81.6566C295.146 79.0601 317.161 79.881 336.162 88.2286C343.512 91.0246 357.073 101.074 357.073 101.074L343.331 105.555C343.331 105.555 322.121 111.956 316.229 113.938C326.751 122.049 337.142 130.328 347.398 138.773L340.936 146.597C340.016 145.377 339.054 144.189 338.051 143.037C309.977 110.581 277.758 96.9405 235.791 93.8828Z" fill="#103652"/>
<path d="M407.875 187.399C415.356 193.292 433.849 207.865 439.903 214.057C448.438 264.946 432.442 322.87 402.771 364.663C369.301 411.126 318.926 442.586 262.492 452.272C208.244 461.191 152.684 448.042 108.185 415.757C98.6006 408.775 89.584 401.048 81.2173 392.646C83.956 392.705 98.971 402.757 103.053 404.897C145.586 427.208 196.785 426.836 239.854 406.131C250.598 400.966 282.627 382.53 286.69 371.306C342.219 343.165 370.757 295.753 369.248 233.536C381.985 218.057 395.392 203.063 407.875 187.399Z" fill="#1B8848"/>
<path d="M442.123 84.2232L443.196 83.9663V84.6438C443.468 88.9275 442.772 93.7046 442.273 97.9907L433.425 195.01C425.091 187.565 415.159 179.66 406.409 172.682C356.315 233.801 269.737 341.009 196.031 366.65C178.887 360.656 166.702 352.19 152.276 341.543C150.234 335.181 149.504 333.395 146.264 327.549C204.347 317.197 266.349 248.478 304.428 205.732C324.336 183.5 343.619 160.714 362.255 137.405C354.228 130.905 346.239 124.36 338.288 117.769C368.772 108.208 399.17 98.3731 429.476 88.2643L442.123 84.2232Z" fill="url(#paint2_linear_88_2)"/>
<path d="M230.177 124.497C238.259 125.172 241.365 128.455 244.903 135.323C261.424 136.858 271.944 141.363 286.396 148.908C296.577 142.877 309.731 146.541 310.232 159.439C310.431 164.034 309.498 166.786 306.29 170.079C296.452 180.056 280.401 173.451 281.121 157.201C266.55 149.896 260.891 147.386 244.96 145.107C236.937 158.497 225.514 157.654 216.513 145.684C188.497 153.376 175.093 163.562 157.246 185.734C167.682 211.303 146.787 205.653 144.382 209.51C139.069 228.198 139.088 250.396 144.51 268.915C151.876 271.067 158.955 273.188 160.387 281.859C161.816 290.507 157.596 297.965 148.649 299.341C144.235 299.997 139.743 298.842 136.193 296.139C127.976 289.757 129.898 280.692 135.641 273.412C128.338 248.134 128.716 232.319 135.363 206.881C134.065 205.095 130.675 199.477 130.043 197.561C127.86 179.696 146.407 183.424 149.045 180.054C168.016 155.812 184.474 143.716 215.688 136.25C219.911 128.392 221.418 126.396 230.177 124.497Z" fill="url(#paint3_linear_88_2)"/>
<path d="M498.978 0.598632C500.968 0.235384 511.539 0.0776681 514.17 0C503.577 14.5311 506.326 21.1472 501.731 36.7549C494.097 62.6925 473.975 59.281 456.556 68.7852C460.02 49.6681 465.806 40.4866 478.666 26.2566L479.605 25.6185L479.09 25.0485C460.719 33.788 453.139 50.1903 445.78 67.8424C432.682 25.4369 460.608 4.53581 498.978 0.598632Z" fill="#1B8848"/>
<path d="M485.221 67.766C506.865 65.6176 526.199 76.8914 539.532 93.1861C516.167 96.4685 510.032 113.533 488.131 112.761C480.684 112.499 470.229 106.107 460.853 104.478L460.435 104.409C458.265 104.743 456.681 105.169 454.534 104.74C454.795 104.338 455.055 103.937 455.314 103.535C470.867 88.9646 486.596 88.6706 504.898 87.4745C483.465 81.8335 472.327 83.9855 452.921 93.6797C454.006 91.5133 455.205 89.4043 456.512 87.3646C463.625 76.233 472.662 70.5704 485.221 67.766Z" fill="#1B8848"/>
<path d="M398.654 18.2162C427.807 26.357 447.275 51.7652 424.945 79.1031C425.376 66.0609 425.145 61.7282 419.532 49.7721C417.877 46.9163 415.942 44.873 413.782 42.3924C418.1 53.3568 420.916 64.1897 417.752 76.2688C417.387 77.6621 417.19 78.1783 416.165 78.6682C411.713 69.7137 405.036 67.38 399.937 59.7351C394.136 51.0351 398.856 37.9928 399.423 28.4444C399.611 25.2828 399.079 21.4268 398.654 18.2162Z" fill="#1B8848"/>
<path d="M500.378 317.266C503.925 317.266 506.763 318.242 508.891 320.195C509.763 320.99 510.384 321.793 510.756 322.602C511.134 323.404 511.324 324.415 511.324 325.636C511.324 326.563 511.006 327.355 510.371 328.01C509.743 328.659 508.979 328.983 508.08 328.983C507.182 328.983 506.415 328.659 505.78 328.01C505.151 327.355 504.837 326.563 504.837 325.636C504.837 325.161 504.929 324.715 505.111 324.296C505.293 323.871 505.547 323.501 505.871 323.187C505.385 322.253 504.726 321.59 503.895 321.2C503.07 320.809 502.033 320.614 500.783 320.614C499.966 320.614 499.206 320.785 498.503 321.126C497.807 321.468 497.202 321.946 496.689 322.56C496.182 323.173 495.746 323.899 495.382 324.736C495.017 325.573 494.743 326.493 494.561 327.498C494.385 328.495 494.297 329.548 494.297 330.657C494.297 331.752 494.405 332.806 494.621 333.817C494.838 334.828 495.152 335.749 495.564 336.579C495.976 337.409 496.459 338.134 497.013 338.755C497.567 339.369 498.202 339.847 498.919 340.188C499.642 340.53 500.398 340.701 501.189 340.701C502.337 340.701 503.405 340.384 504.391 339.749C505.385 339.114 506.206 338.225 506.854 337.081C507.51 335.93 507.918 334.626 508.08 333.168L511.324 334.005C511.161 334.821 510.972 335.582 510.756 336.286C510.54 336.983 510.27 337.681 509.945 338.378C509.621 339.069 509.253 339.693 508.841 340.251C508.428 340.809 507.942 341.329 507.381 341.81C506.82 342.291 506.202 342.696 505.526 343.024C504.851 343.344 504.077 343.595 503.206 343.777C502.334 343.958 501.391 344.049 500.378 344.049C499.169 344.049 498.013 343.916 496.912 343.651C495.817 343.393 494.824 343.031 493.932 342.563C493.047 342.096 492.23 341.538 491.48 340.889C490.73 340.241 490.081 339.526 489.534 338.745C488.986 337.956 488.52 337.123 488.135 336.244C487.757 335.358 487.473 334.448 487.284 333.514C487.095 332.572 487 331.62 487 330.657C487 329.695 487.095 328.746 487.284 327.812C487.473 326.87 487.757 325.96 488.135 325.081C488.52 324.195 488.986 323.362 489.534 322.581C490.081 321.793 490.73 321.074 491.48 320.425C492.23 319.777 493.047 319.219 493.932 318.752C494.824 318.284 495.817 317.922 496.912 317.663C498.013 317.398 499.169 317.266 500.378 317.266Z" fill="#707070"/>
<path d="M519.077 324.746C520.266 324.265 521.526 324.024 522.857 324.024C524.188 324.024 525.445 324.265 526.627 324.746C527.816 325.228 528.85 325.901 529.728 326.765C530.607 327.623 531.299 328.684 531.806 329.946C532.32 331.208 532.576 332.582 532.576 334.068C532.576 335.554 532.32 336.928 531.806 338.19C531.299 339.452 530.607 340.516 529.728 341.381C528.85 342.239 527.816 342.908 526.627 343.39C525.445 343.871 524.188 344.112 522.857 344.112C521.526 344.112 520.266 343.871 519.077 343.39C517.894 342.908 516.864 342.239 515.986 341.381C515.114 340.516 514.421 339.452 513.908 338.19C513.401 336.928 513.148 335.554 513.148 334.068C513.148 332.582 513.401 331.208 513.908 329.946C514.421 328.684 515.114 327.623 515.986 326.765C516.864 325.901 517.894 325.228 519.077 324.746ZM522.857 327.372C522.384 327.372 521.962 327.442 521.59 327.582C521.219 327.721 520.877 327.951 520.567 328.272C520.256 328.593 519.999 329.008 519.796 329.517C519.6 330.026 519.445 330.661 519.33 331.421C519.222 332.181 519.168 333.064 519.168 334.068C519.168 335.072 519.222 335.955 519.33 336.715C519.445 337.475 519.6 338.11 519.796 338.619C519.999 339.128 520.256 339.543 520.567 339.864C520.877 340.185 521.219 340.415 521.59 340.554C521.962 340.694 522.384 340.764 522.857 340.764C523.452 340.764 523.968 340.649 524.408 340.418C524.847 340.181 525.229 339.805 525.553 339.289C525.884 338.772 526.131 338.078 526.293 337.207C526.462 336.335 526.546 335.289 526.546 334.068C526.546 332.847 526.462 331.801 526.293 330.929C526.131 330.058 525.884 329.364 525.553 328.847C525.229 328.331 524.847 327.958 524.408 327.728C523.968 327.491 523.452 327.372 522.857 327.372Z" fill="#707070"/>
<path d="M559.525 323.962C560.471 323.962 561.298 324.094 562.008 324.359C562.717 324.624 563.298 324.99 563.751 325.458C564.204 325.918 564.569 326.507 564.846 327.226C565.129 327.937 565.325 328.704 565.433 329.527C565.548 330.344 565.606 331.278 565.606 332.331V340.282H567.633V343.63H557.903V340.282H559.93V331.913C559.93 330.811 559.832 329.953 559.636 329.339C559.447 328.725 559.17 328.303 558.805 328.073C558.447 327.843 557.957 327.728 557.336 327.728C556.755 327.728 556.157 327.99 555.542 328.513C554.927 329.036 554.346 329.768 553.799 330.71C553.832 331.212 553.849 331.752 553.849 332.331V340.282H555.876V343.63H546.147V340.282H548.174V331.913C548.174 330.811 548.076 329.953 547.88 329.339C547.691 328.725 547.414 328.303 547.049 328.073C546.691 327.843 546.201 327.728 545.579 327.728C545.012 327.728 544.431 327.976 543.836 328.471C543.242 328.966 542.677 329.656 542.144 330.542L542.093 340.282H544.12V343.63H534.39V340.282H536.417V327.728H534.39V324.38H540.684L542.103 327.215C542.353 326.748 542.64 326.33 542.965 325.96C543.296 325.583 543.688 325.241 544.14 324.935C544.6 324.621 545.137 324.38 545.752 324.213C546.366 324.045 547.039 323.962 547.768 323.962C548.586 323.962 549.316 324.059 549.958 324.255C550.599 324.443 551.143 324.725 551.589 325.102C552.042 325.472 552.417 325.915 552.714 326.431C553.012 326.94 553.248 327.533 553.424 328.209C553.593 327.756 553.789 327.33 554.012 326.933C554.241 326.535 554.532 326.152 554.883 325.782C555.234 325.405 555.623 325.088 556.049 324.83C556.481 324.565 556.995 324.356 557.589 324.202C558.184 324.042 558.829 323.962 559.525 323.962Z" fill="#707070"/>
<path d="M594.389 323.962C595.335 323.962 596.162 324.094 596.872 324.359C597.581 324.624 598.162 324.99 598.615 325.458C599.068 325.918 599.432 326.507 599.709 327.226C599.993 327.937 600.189 328.704 600.297 329.527C600.412 330.344 600.47 331.278 600.47 332.331V340.282H602.497V343.63H592.767V340.282H594.794V331.913C594.794 330.811 594.696 329.953 594.5 329.339C594.311 328.725 594.034 328.303 593.669 328.073C593.311 327.843 592.821 327.728 592.2 327.728C591.619 327.728 591.021 327.99 590.406 328.513C589.791 329.036 589.21 329.768 588.663 330.71C588.696 331.212 588.713 331.752 588.713 332.331V340.282H590.74V343.63H581.011V340.282H583.038V331.913C583.038 330.811 582.94 329.953 582.744 329.339C582.555 328.725 582.278 328.303 581.913 328.073C581.555 327.843 581.065 327.728 580.443 327.728C579.876 327.728 579.295 327.976 578.7 328.471C578.105 328.966 577.541 329.656 577.007 330.542L576.957 340.282H578.984V343.63H569.254V340.282H571.281V327.728H569.254V324.38H575.548L576.967 327.215C577.217 326.748 577.504 326.33 577.828 325.96C578.159 325.583 578.551 325.241 579.004 324.935C579.463 324.621 580.001 324.38 580.615 324.213C581.23 324.045 581.903 323.962 582.632 323.962C583.45 323.962 584.18 324.059 584.821 324.255C585.463 324.443 586.007 324.725 586.453 325.102C586.906 325.472 587.281 325.915 587.578 326.431C587.875 326.94 588.112 327.533 588.288 328.209C588.456 327.756 588.652 327.33 588.875 326.933C589.105 326.535 589.396 326.152 589.747 325.782C590.098 325.405 590.487 325.088 590.912 324.83C591.345 324.565 591.858 324.356 592.453 324.202C593.048 324.042 593.693 323.962 594.389 323.962Z" fill="#707070"/>
<path d="M602.902 324.38H610.604V336.098C610.604 337.2 610.699 338.058 610.888 338.671C611.084 339.285 611.361 339.707 611.719 339.937C612.084 340.167 612.577 340.282 613.199 340.282C613.767 340.282 614.348 340.035 614.942 339.54C615.543 339.044 616.111 338.354 616.645 337.468L616.685 327.728H614.658V324.38H622.361V340.282H624.388V343.63H618.094L616.675 340.785C615.533 342.961 613.645 344.049 611.01 344.049C610.064 344.049 609.236 343.916 608.527 343.651C607.817 343.386 607.236 343.024 606.784 342.563C606.331 342.096 605.963 341.507 605.679 340.795C605.402 340.077 605.206 339.31 605.091 338.493C604.983 337.67 604.929 336.732 604.929 335.679V327.728H602.902V324.38Z" fill="#707070"/>
<path d="M639.387 323.962C640.333 323.962 641.161 324.094 641.87 324.359C642.58 324.624 643.161 324.99 643.614 325.458C644.066 325.918 644.431 326.507 644.708 327.226C644.992 327.937 645.188 328.704 645.296 329.527C645.411 330.344 645.468 331.278 645.468 332.331V340.282H647.495V343.63H637.766V340.282H639.793V331.913C639.793 330.811 639.695 329.953 639.499 329.339C639.31 328.725 639.033 328.303 638.668 328.073C638.31 327.843 637.82 327.728 637.198 327.728C636.631 327.728 636.05 327.976 635.455 328.471C634.86 328.966 634.296 329.656 633.763 330.542L633.712 340.282H635.739V343.63H626.009V340.282H628.036V327.728H626.009V324.38H632.303L633.722 327.215C633.972 326.748 634.259 326.33 634.583 325.96C634.915 325.583 635.306 325.241 635.759 324.935C636.219 324.621 636.756 324.38 637.371 324.213C637.985 324.045 638.658 323.962 639.387 323.962Z" fill="#707070"/>
<path d="M665.738 331.024V340.282H667.765V343.63H661.451L660.549 341.454C659.86 342.473 659.059 343.17 658.147 343.547C657.242 343.923 655.975 344.112 654.346 344.112C653.502 344.112 652.715 343.958 651.985 343.651C651.262 343.351 650.644 342.94 650.13 342.417C649.624 341.894 649.225 341.266 648.934 340.534C648.651 339.801 648.509 339.017 648.509 338.18C648.509 336.736 649.056 335.54 650.151 334.591C651.245 333.636 652.644 333.158 654.346 333.158C655.718 333.158 656.853 333.294 657.752 333.566C658.65 333.831 659.421 334.256 660.062 334.842V330.406C660.062 329.779 659.978 329.255 659.809 328.837C659.647 328.412 659.4 328.087 659.069 327.864C658.738 327.634 658.367 327.473 657.954 327.383C657.542 327.292 657.049 327.247 656.475 327.247C656.015 327.247 655.6 327.348 655.228 327.55C655.438 328.003 655.542 328.481 655.542 328.983C655.542 329.911 655.225 330.703 654.59 331.358C653.961 332.007 653.198 332.331 652.299 332.331C651.401 332.331 650.634 332.007 649.999 331.358C649.37 330.703 649.056 329.911 649.056 328.983C649.056 328.509 649.144 328.063 649.32 327.644C649.502 327.226 649.752 326.86 650.069 326.546C650.34 326.253 650.62 325.991 650.911 325.761C651.201 325.524 651.566 325.29 652.005 325.06C652.451 324.823 652.934 324.628 653.455 324.474C653.975 324.321 654.596 324.199 655.319 324.108C656.049 324.01 656.846 323.962 657.711 323.962C658.833 323.962 659.887 324.133 660.873 324.474C661.86 324.816 662.711 325.29 663.427 325.897C664.143 326.504 664.708 327.25 665.12 328.136C665.532 329.022 665.738 329.984 665.738 331.024ZM660.062 338.985V337.541C659.644 337.13 659.171 336.785 658.644 336.506C658.123 336.22 657.64 336.077 657.194 336.077C656.235 336.077 655.559 336.244 655.167 336.579C654.775 336.907 654.579 337.44 654.579 338.18C654.579 339.065 654.748 339.718 655.086 340.136C655.424 340.554 656.052 340.764 656.971 340.764C657.492 340.764 658.032 340.593 658.593 340.251C659.16 339.902 659.65 339.48 660.062 338.985Z" fill="#707070"/>
<path d="M668.373 324.38H676.075V336.098C676.075 337.2 676.17 338.058 676.359 338.671C676.555 339.285 676.832 339.707 677.19 339.937C677.555 340.167 678.048 340.282 678.67 340.282C679.238 340.282 679.819 340.035 680.413 339.54C681.015 339.044 681.582 338.354 682.116 337.468L682.156 327.728H680.129V324.38H687.832V340.282H689.859V343.63H683.565L682.146 340.785C681.004 342.961 679.116 344.049 676.481 344.049C675.535 344.049 674.707 343.916 673.998 343.651C673.288 343.386 672.707 343.024 672.255 342.563C671.802 342.096 671.434 341.507 671.15 340.795C670.873 340.077 670.677 339.31 670.562 338.493C670.454 337.67 670.4 336.732 670.4 335.679V327.728H668.373V324.38Z" fill="#707070"/>
<path d="M697.156 320.195H699.183V324.38H704.858V327.728H699.183V338.609C699.183 339.083 699.311 339.48 699.568 339.801C699.832 340.122 700.244 340.282 700.804 340.282C701.433 340.282 701.967 340.07 702.406 339.644C702.845 339.212 703.122 338.588 703.237 337.772L705.669 338.19C705.568 339.006 705.372 339.763 705.081 340.46C704.798 341.151 704.426 341.768 703.967 342.312C703.507 342.849 702.936 343.275 702.254 343.588C701.578 343.895 700.825 344.049 699.994 344.049C697.973 344.049 696.386 343.564 695.23 342.595C694.082 341.618 693.507 340.289 693.507 338.609V327.728H691.48V324.38H691.886C692.926 324.38 693.845 324.073 694.642 323.459C695.44 322.846 696.278 321.758 697.156 320.195Z" fill="#707070"/>
<path d="M712.814 321.744L717.679 316.722C718.145 316.241 718.706 316 719.361 316C720.017 316 720.578 316.241 721.044 316.722C721.51 317.196 721.743 317.775 721.743 318.459C721.743 319.017 721.578 319.515 721.246 319.955C720.922 320.394 720.5 320.687 719.98 320.833L713.331 322.675C713.277 322.689 713.23 322.696 713.189 322.696C713.041 322.696 712.912 322.643 712.804 322.539C712.703 322.427 712.652 322.295 712.652 322.141C712.652 321.988 712.706 321.855 712.814 321.744ZM713.554 335.261C713.615 336.07 713.743 336.792 713.939 337.426C714.135 338.061 714.372 338.581 714.649 338.985C714.932 339.39 715.26 339.724 715.632 339.99C716.003 340.248 716.385 340.432 716.777 340.544C717.169 340.649 717.588 340.701 718.034 340.701C719.459 340.701 720.571 340.418 721.368 339.854C722.172 339.282 722.814 338.403 723.294 337.217L725.99 338.18C725.746 338.856 725.436 339.494 725.057 340.094C724.686 340.687 724.236 341.235 723.709 341.737C723.182 342.239 722.594 342.671 721.946 343.034C721.304 343.39 720.578 343.669 719.767 343.871C718.956 344.073 718.101 344.174 717.203 344.174C715.872 344.174 714.611 343.934 713.422 343.452C712.24 342.971 711.21 342.302 710.331 341.444C709.46 340.579 708.767 339.515 708.254 338.253C707.747 336.99 707.493 335.616 707.493 334.131C707.493 332.645 707.747 331.264 708.254 329.988C708.767 328.711 709.46 327.637 710.331 326.765C711.21 325.887 712.24 325.2 713.422 324.704C714.611 324.209 715.872 323.962 717.203 323.962C718.534 323.962 719.79 324.209 720.973 324.704C722.162 325.2 723.192 325.887 724.064 326.765C724.942 327.637 725.635 328.711 726.142 329.988C726.655 331.264 726.912 332.645 726.912 334.131L726.658 335.261H713.554ZM713.625 331.913H720.78C720.605 330.309 720.216 329.14 719.615 328.408C719.013 327.676 718.216 327.31 717.223 327.31C716.73 327.31 716.287 327.393 715.895 327.561C715.503 327.721 715.152 327.983 714.841 328.345C714.53 328.701 714.27 329.179 714.061 329.779C713.858 330.371 713.713 331.083 713.625 331.913Z" fill="#707070"/>
<path d="M746.969 344.112C745.388 344.112 744.046 343.693 742.945 342.856C741.844 342.019 741.023 340.851 740.482 339.351C739.949 337.852 739.682 336.066 739.682 333.995C739.682 332.481 739.871 331.097 740.249 329.841C740.634 328.586 741.168 327.529 741.851 326.671C742.54 325.806 743.367 325.14 744.334 324.673C745.307 324.199 746.371 323.962 747.526 323.962C748.107 323.962 748.654 324.017 749.168 324.129C749.681 324.234 750.117 324.366 750.475 324.527C750.84 324.687 751.185 324.886 751.509 325.123C751.833 325.36 752.093 325.583 752.289 325.793C752.492 326.002 752.688 326.235 752.877 326.493V321.032H750.85V317.684H758.553V340.282H760.58V343.63H754.56L753.333 341.203C753.07 341.58 752.773 341.925 752.441 342.239C751.104 343.487 749.279 344.112 746.969 344.112ZM752.877 330.04C752.107 328.575 751.06 327.843 749.735 327.843C748.398 327.843 747.401 328.384 746.746 329.465C746.097 330.546 745.773 332.08 745.773 334.068C745.773 335.003 745.877 335.867 746.087 336.663C746.303 337.451 746.587 338.106 746.938 338.629C747.296 339.153 747.705 339.561 748.165 339.854C748.624 340.139 749.104 340.282 749.604 340.282C750.279 340.282 750.877 340.091 751.398 339.707C751.925 339.316 752.418 338.741 752.877 337.981V330.04Z" fill="#707070"/>
<path d="M765.363 317.057C766.1 317.057 766.755 317.287 767.33 317.747C767.911 318.207 768.299 318.804 768.495 319.536C768.63 320.045 768.698 320.582 768.698 321.147C768.698 322.005 768.536 322.877 768.211 323.763C767.887 324.642 767.441 325.472 766.873 326.253C766.306 327.034 765.647 327.766 764.897 328.45C764.154 329.126 763.353 329.723 762.495 330.239L761.026 328.722C762.553 327.459 763.593 326.483 764.147 325.793C764.708 325.102 764.999 324.415 765.019 323.731C764.194 323.634 763.505 323.268 762.951 322.633C762.397 321.998 762.12 321.255 762.12 320.405C762.12 319.477 762.434 318.689 763.063 318.04C763.698 317.384 764.465 317.057 765.363 317.057Z" fill="#707070"/>
<path d="M785.937 317.684H796.477V321.032H793.234V334.842C793.234 335.791 793.136 336.701 792.94 337.573C792.744 338.445 792.423 339.278 791.977 340.073C791.538 340.861 790.994 341.548 790.346 342.134C789.704 342.72 788.9 343.187 787.934 343.536C786.967 343.878 785.897 344.049 784.721 344.049C782.167 344.049 780.079 343.676 778.458 342.929C776.836 342.176 775.65 341.067 774.9 339.602C774.15 338.131 773.775 336.265 773.775 334.005V321.032H770.532V317.684H783.505V321.032H780.262V334.005C780.262 334.765 780.316 335.466 780.424 336.108C780.539 336.75 780.687 337.297 780.87 337.751C781.052 338.197 781.275 338.598 781.539 338.954C781.802 339.303 782.076 339.585 782.359 339.801C782.643 340.017 782.947 340.195 783.272 340.335C783.603 340.474 783.917 340.572 784.214 340.628C784.511 340.677 784.815 340.701 785.126 340.701C785.917 340.701 786.623 340.554 787.244 340.262C787.873 339.962 788.383 339.55 788.775 339.027C789.173 338.497 789.474 337.88 789.677 337.175C789.886 336.464 789.991 335.686 789.991 334.842V321.032H785.937V317.684Z" fill="#707070"/>
<path d="M811.183 323.899C812.764 323.899 814.105 324.317 815.206 325.154C816.308 325.991 817.125 327.16 817.659 328.659C818.2 330.159 818.47 331.944 818.47 334.016C818.47 335.529 818.277 336.914 817.892 338.169C817.514 339.425 816.98 340.485 816.291 341.35C815.609 342.207 814.781 342.874 813.808 343.348C812.842 343.815 811.781 344.049 810.626 344.049C810.044 344.049 809.497 343.993 808.984 343.881C808.47 343.777 808.031 343.644 807.666 343.484C807.308 343.323 806.967 343.125 806.643 342.888C806.318 342.65 806.055 342.427 805.852 342.218C805.656 342.009 805.464 341.775 805.274 341.517V346.978H807.301V350.326H797.572V346.978H799.599V327.728H797.572V324.38H803.592L804.818 326.818C805.082 326.434 805.382 326.085 805.72 325.772C807.058 324.523 808.879 323.899 811.183 323.899ZM805.274 337.97C806.045 339.435 807.092 340.167 808.416 340.167C809.754 340.167 810.747 339.627 811.396 338.546C812.051 337.465 812.379 335.93 812.379 333.942C812.379 333.008 812.271 332.146 812.055 331.358C811.845 330.563 811.561 329.904 811.203 329.381C810.852 328.858 810.446 328.453 809.987 328.167C809.528 327.874 809.048 327.728 808.548 327.728C807.872 327.728 807.271 327.923 806.744 328.314C806.224 328.697 805.734 329.269 805.274 330.03V337.97Z" fill="#707070"/>
<path d="M834.017 328.052C833.246 327.557 832.267 327.31 831.078 327.31C830.598 327.31 830.152 327.379 829.74 327.519C829.328 327.651 828.932 327.881 828.554 328.209C828.182 328.537 827.865 328.952 827.601 329.454C827.338 329.956 827.128 330.595 826.973 331.369C826.818 332.143 826.74 333.022 826.74 334.005C826.74 334.989 826.824 335.864 826.993 336.631C827.162 337.398 827.385 338.026 827.662 338.514C827.946 339.003 828.284 339.404 828.676 339.718C829.074 340.031 829.483 340.255 829.902 340.387C830.321 340.513 830.774 340.575 831.26 340.575C832.686 340.575 833.797 340.293 834.594 339.728C835.398 339.156 836.04 338.277 836.52 337.092L839.216 338.054C838.973 338.731 838.662 339.369 838.284 339.969C837.912 340.561 837.463 341.109 836.936 341.611C836.409 342.113 835.821 342.546 835.172 342.908C834.53 343.264 833.804 343.543 832.993 343.745C832.182 343.948 831.328 344.049 830.429 344.049C829.098 344.049 827.838 343.808 826.649 343.327C825.466 342.846 824.436 342.176 823.558 341.318C822.686 340.453 821.993 339.39 821.48 338.127C820.973 336.865 820.72 335.491 820.72 334.005C820.72 332.813 820.882 331.69 821.206 330.636C821.531 329.583 821.987 328.652 822.575 327.843C823.169 327.034 823.865 326.337 824.662 325.751C825.46 325.165 826.345 324.722 827.318 324.422C828.291 324.115 829.311 323.962 830.378 323.962C831.223 323.962 832.017 324.045 832.76 324.213C833.503 324.373 834.165 324.596 834.746 324.882C835.334 325.161 835.882 325.51 836.388 325.929C836.895 326.347 837.338 326.793 837.716 327.268C838.101 327.735 838.459 328.262 838.79 328.847C839.135 329.398 839.307 330.002 839.307 330.657C839.307 331.585 838.99 332.377 838.354 333.032C837.726 333.681 836.963 334.005 836.064 334.005C835.165 334.005 834.398 333.681 833.763 333.032C833.135 332.377 832.821 331.585 832.821 330.657C832.821 330.141 832.926 329.656 833.135 329.203C833.351 328.75 833.645 328.366 834.017 328.052Z" fill="#707070"/>
<path d="M840.878 350.085C840.52 349.527 840.341 348.91 840.341 348.234C840.341 347.306 840.655 346.514 841.283 345.859C841.919 345.21 842.685 344.886 843.584 344.886C844.483 344.886 845.246 345.21 845.875 345.859C846.51 346.514 846.827 347.306 846.827 348.234C846.827 348.429 846.81 348.617 846.777 348.799C846.804 348.806 846.827 348.809 846.847 348.809C847.334 348.809 847.928 347.979 848.631 346.319L849.391 344.52L842.246 327.728H840.341V324.38H851.692V327.728H848.358L851.57 335.261C851.982 336.251 852.28 337.088 852.462 337.772C852.645 337.088 852.942 336.251 853.354 335.261L856.557 327.728H853.719V324.38H862.232V327.728H860.084L853.313 343.63C852.962 344.453 852.645 345.161 852.361 345.754C852.084 346.354 851.77 346.961 851.418 347.575C851.074 348.195 850.739 348.718 850.415 349.144C850.091 349.569 849.722 349.974 849.31 350.357C848.905 350.741 848.483 351.044 848.043 351.268C847.604 351.498 847.118 351.676 846.584 351.801C846.05 351.934 845.476 352 844.861 352C844.287 352 843.78 351.951 843.341 351.854C842.902 351.763 842.527 351.623 842.216 351.435C841.912 351.254 841.658 351.055 841.456 350.839C841.253 350.629 841.06 350.378 840.878 350.085Z" fill="#707070"/>
<path d="M876.543 328.052C875.772 327.557 874.793 327.31 873.603 327.31C873.124 327.31 872.678 327.379 872.266 327.519C871.853 327.651 871.458 327.881 871.08 328.209C870.708 328.537 870.391 328.952 870.127 329.454C869.864 329.956 869.654 330.595 869.499 331.369C869.343 332.143 869.266 333.022 869.266 334.005C869.266 334.989 869.35 335.864 869.519 336.631C869.688 337.398 869.911 338.026 870.188 338.514C870.472 339.003 870.81 339.404 871.201 339.718C871.6 340.031 872.009 340.255 872.428 340.387C872.847 340.513 873.299 340.575 873.786 340.575C875.211 340.575 876.323 340.293 877.12 339.728C877.924 339.156 878.566 338.277 879.046 337.092L881.742 338.054C881.498 338.731 881.188 339.369 880.809 339.969C880.438 340.561 879.988 341.109 879.461 341.611C878.934 342.113 878.347 342.546 877.698 342.908C877.056 343.264 876.33 343.543 875.519 343.745C874.708 343.948 873.853 344.049 872.955 344.049C871.624 344.049 870.364 343.808 869.174 343.327C867.992 342.846 866.962 342.176 866.083 341.318C865.212 340.453 864.519 339.39 864.006 338.127C863.499 336.865 863.246 335.491 863.246 334.005C863.246 332.813 863.408 331.69 863.732 330.636C864.056 329.583 864.512 328.652 865.1 327.843C865.695 327.034 866.391 326.337 867.188 325.751C867.985 325.165 868.87 324.722 869.843 324.422C870.816 324.115 871.837 323.962 872.904 323.962C873.749 323.962 874.543 324.045 875.286 324.213C876.029 324.373 876.691 324.596 877.272 324.882C877.86 325.161 878.407 325.51 878.914 325.929C879.421 326.347 879.863 326.793 880.242 327.268C880.627 327.735 880.985 328.262 881.316 328.847C881.661 329.398 881.833 330.002 881.833 330.657C881.833 331.585 881.515 332.377 880.88 333.032C880.252 333.681 879.488 334.005 878.59 334.005C877.691 334.005 876.924 333.681 876.289 333.032C875.661 332.377 875.347 331.585 875.347 330.657C875.347 330.141 875.451 329.656 875.661 329.203C875.877 328.75 876.171 328.366 876.543 328.052Z" fill="#707070"/>
<path d="M882.867 317.684H890.569V340.282H892.596V343.63H882.867V340.282H884.894V321.032H882.867V317.684Z" fill="#707070"/>
<path d="M896.782 322.152C896.153 321.496 895.839 320.704 895.839 319.777C895.839 318.849 896.153 318.061 896.782 317.412C897.417 316.757 898.184 316.429 899.082 316.429C899.981 316.429 900.744 316.757 901.373 317.412C902.008 318.061 902.326 318.849 902.326 319.777C902.326 320.704 902.008 321.496 901.373 322.152C900.744 322.8 899.981 323.125 899.082 323.125C898.184 323.125 897.417 322.8 896.782 322.152ZM894.218 324.38H901.92V340.282H903.947V343.63H894.218V340.282H896.245V327.728H894.218V324.38Z" fill="#707070"/>
<path d="M918.947 323.962C919.893 323.962 920.72 324.094 921.43 324.359C922.139 324.624 922.72 324.99 923.173 325.458C923.626 325.918 923.99 326.507 924.267 327.226C924.551 327.937 924.747 328.704 924.855 329.527C924.97 330.344 925.028 331.278 925.028 332.331V340.282H927.055V343.63H917.325V340.282H919.352V331.913C919.352 330.811 919.254 329.953 919.058 329.339C918.869 328.725 918.592 328.303 918.227 328.073C917.869 327.843 917.379 327.728 916.758 327.728C916.19 327.728 915.609 327.976 915.014 328.471C914.42 328.966 913.856 329.656 913.322 330.542L913.271 340.282H915.298V343.63H905.569V340.282H907.596V327.728H905.569V324.38H911.862L913.281 327.215C913.531 326.748 913.818 326.33 914.143 325.96C914.474 325.583 914.866 325.241 915.318 324.935C915.778 324.621 916.315 324.38 916.93 324.213C917.545 324.045 918.217 323.962 918.947 323.962Z" fill="#707070"/>
<path d="M941.243 320.614C941.243 319.686 941.557 318.898 942.186 318.249C942.821 317.594 943.588 317.266 944.486 317.266C944.824 317.266 945.155 317.318 945.48 317.423C945.899 317.555 946.263 317.73 946.574 317.946C946.892 318.162 947.149 318.399 947.344 318.657C947.54 318.915 947.699 319.215 947.821 319.557C947.942 319.892 948.024 320.23 948.064 320.572C948.111 320.907 948.135 321.28 948.135 321.691C948.135 322.117 948.054 322.563 947.892 323.031C947.73 323.498 947.513 323.941 947.243 324.359C946.98 324.771 946.689 325.158 946.372 325.52C946.061 325.876 945.74 326.19 945.409 326.462C946.415 327.487 946.919 328.746 946.919 330.239C946.919 331.355 946.682 332.349 946.209 333.221C945.743 334.085 945.098 334.786 944.274 335.323C943.449 335.854 942.507 336.255 941.446 336.527C940.392 336.799 939.243 336.935 938 336.935C936.973 336.935 935.99 336.816 935.051 336.579C934.436 336.677 933.963 336.847 933.632 337.092C933.301 337.336 933.135 337.562 933.135 337.772C933.135 337.981 933.22 338.173 933.389 338.347C933.558 338.521 933.744 338.609 933.946 338.609H939.622C942.48 338.609 944.544 339.031 945.814 339.874C947.091 340.718 947.73 342.11 947.73 344.049C947.73 344.983 947.618 345.831 947.395 346.591C947.172 347.358 946.868 348.01 946.483 348.548C946.105 349.092 945.635 349.569 945.074 349.981C944.513 350.399 943.926 350.734 943.311 350.985C942.696 351.236 942.01 351.439 941.253 351.592C940.497 351.745 939.764 351.85 939.054 351.906C938.345 351.969 937.588 352 936.784 352C935.5 352 934.338 351.854 933.298 351.561C932.264 351.275 931.413 350.881 930.744 350.378C930.081 349.876 929.571 349.297 929.213 348.642C928.855 347.993 928.676 347.299 928.676 346.56C928.676 345.046 929.517 343.864 931.2 343.013C930.544 342.671 930.027 342.204 929.649 341.611C929.271 341.011 929.081 340.289 929.081 339.446C929.081 338.504 929.345 337.65 929.872 336.882C930.399 336.115 931.108 335.557 932 335.208C931.21 334.629 930.592 333.925 930.146 333.095C929.706 332.265 929.487 331.313 929.487 330.239C929.487 329.346 929.639 328.544 929.943 327.833C930.254 327.121 930.669 326.532 931.19 326.065C931.717 325.59 932.345 325.2 933.075 324.893C933.811 324.579 934.585 324.356 935.395 324.223C936.206 324.091 937.075 324.024 938 324.024C940.135 324.024 941.956 324.387 943.463 325.112C943.807 324.701 944.074 324.314 944.263 323.951C943.419 323.895 942.703 323.547 942.115 322.905C941.534 322.263 941.243 321.5 941.243 320.614ZM938.203 327.31C937.25 327.31 936.504 327.592 935.963 328.157C935.429 328.722 935.162 329.538 935.162 330.605C935.162 331.679 935.433 332.516 935.973 333.116C936.514 333.709 937.257 334.005 938.203 334.005C939.142 334.005 939.882 333.705 940.422 333.105C940.97 332.499 941.243 331.665 941.243 330.605C941.243 329.552 940.973 328.739 940.433 328.167C939.892 327.595 939.149 327.31 938.203 327.31ZM935.112 343.63C934.335 344.202 933.946 344.9 933.946 345.723C933.946 346.553 934.196 347.107 934.696 347.386C935.196 347.672 936.162 347.815 937.595 347.815C940.838 347.815 942.459 346.978 942.459 345.304C942.459 344.886 942.291 344.502 941.953 344.153C941.615 343.805 941.243 343.63 940.838 343.63H935.112Z" fill="#707070"/>
<path d="M973.877 343.63H960.905V340.282H964.148V321.032H960.905V317.684H973.877C975.33 317.684 976.702 317.852 977.992 318.187C979.283 318.514 980.425 318.975 981.418 319.568C982.418 320.153 983.313 320.851 984.104 321.66C984.901 322.469 985.556 323.355 986.07 324.317C986.59 325.28 986.985 326.298 987.255 327.372C987.526 328.439 987.661 329.534 987.661 330.657C987.661 331.78 987.526 332.879 987.255 333.953C986.985 335.02 986.59 336.035 986.07 336.997C985.556 337.96 984.901 338.846 984.104 339.655C983.313 340.464 982.418 341.165 981.418 341.758C980.425 342.344 979.283 342.804 977.992 343.139C976.702 343.466 975.33 343.63 973.877 343.63ZM973.877 340.282C974.931 340.282 975.874 340.042 976.705 339.561C977.536 339.072 978.215 338.396 978.742 337.531C979.276 336.666 979.678 335.655 979.948 334.497C980.225 333.332 980.364 332.052 980.364 330.657C980.364 329.541 980.283 328.502 980.121 327.54C979.958 326.577 979.705 325.695 979.36 324.893C979.016 324.084 978.59 323.397 978.083 322.832C977.583 322.26 976.975 321.817 976.259 321.503C975.543 321.189 974.749 321.032 973.877 321.032H970.634V340.282H973.877Z" fill="#707070"/>
<path d="M989.485 324.38H997.188V336.098C997.188 337.2 997.282 338.058 997.471 338.671C997.667 339.285 997.944 339.707 998.302 339.937C998.667 340.167 999.16 340.282 999.782 340.282C1000.35 340.282 1000.93 340.035 1001.53 339.54C1002.13 339.044 1002.69 338.354 1003.23 337.468L1003.27 327.728H1001.24V324.38H1008.94V340.282H1010.97V343.63H1004.68L1003.26 340.785C1002.12 342.961 1000.23 344.049 997.593 344.049C996.647 344.049 995.819 343.916 995.11 343.651C994.401 343.386 993.819 343.024 993.367 342.563C992.914 342.096 992.546 341.507 992.262 340.795C991.985 340.077 991.789 339.31 991.674 338.493C991.566 337.67 991.512 336.732 991.512 335.679V327.728H989.485V324.38Z" fill="#707070"/>
<path d="M1012.59 324.38H1018.89L1020.16 326.922C1021.36 324.949 1023.05 323.962 1025.24 323.962C1026.71 323.962 1027.87 324.429 1028.73 325.364C1029.59 326.291 1030.02 327.498 1030.02 328.983C1030.02 329.911 1029.71 330.703 1029.07 331.358C1028.44 332.007 1027.68 332.331 1026.78 332.331C1025.88 332.331 1025.12 332.007 1024.48 331.358C1023.85 330.703 1023.54 329.911 1023.54 328.983C1023.54 328.607 1023.6 328.244 1023.71 327.895C1023.53 327.784 1023.34 327.728 1023.13 327.728C1022.68 327.728 1022.21 328.035 1021.72 328.649C1021.24 329.255 1020.78 330.166 1020.34 331.379L1020.3 340.282H1024.75V343.63H1012.59V340.282H1014.62V327.728H1012.59V324.38Z" fill="#707070"/>
<path d="M1048.27 331.024V340.282H1050.29V343.63H1043.98L1043.08 341.454C1042.39 342.473 1041.59 343.17 1040.68 343.547C1039.77 343.923 1038.5 344.112 1036.88 344.112C1036.03 344.112 1035.24 343.958 1034.51 343.651C1033.79 343.351 1033.17 342.94 1032.66 342.417C1032.15 341.894 1031.75 341.266 1031.46 340.534C1031.18 339.801 1031.04 339.017 1031.04 338.18C1031.04 336.736 1031.59 335.54 1032.68 334.591C1033.77 333.636 1035.17 333.158 1036.88 333.158C1038.25 333.158 1039.38 333.294 1040.28 333.566C1041.18 333.831 1041.95 334.256 1042.59 334.842V330.406C1042.59 329.779 1042.51 329.255 1042.34 328.837C1042.18 328.412 1041.93 328.087 1041.6 327.864C1041.27 327.634 1040.9 327.473 1040.48 327.383C1040.07 327.292 1039.58 327.247 1039 327.247C1038.54 327.247 1038.13 327.348 1037.76 327.55C1037.97 328.003 1038.07 328.481 1038.07 328.983C1038.07 329.911 1037.75 330.703 1037.12 331.358C1036.49 332.007 1035.73 332.331 1034.83 332.331C1033.93 332.331 1033.16 332.007 1032.53 331.358C1031.9 330.703 1031.59 329.911 1031.59 328.983C1031.59 328.509 1031.67 328.063 1031.85 327.644C1032.03 327.226 1032.28 326.86 1032.6 326.546C1032.87 326.253 1033.15 325.991 1033.44 325.761C1033.73 325.524 1034.1 325.29 1034.53 325.06C1034.98 324.823 1035.46 324.628 1035.98 324.474C1036.5 324.321 1037.13 324.199 1037.85 324.108C1038.58 324.01 1039.38 323.962 1040.24 323.962C1041.36 323.962 1042.42 324.133 1043.4 324.474C1044.39 324.816 1045.24 325.29 1045.96 325.897C1046.67 326.504 1047.24 327.25 1047.65 328.136C1048.06 329.022 1048.27 329.984 1048.27 331.024ZM1042.59 338.985V337.541C1042.17 337.13 1041.7 336.785 1041.17 336.506C1040.65 336.22 1040.17 336.077 1039.72 336.077C1038.76 336.077 1038.09 336.244 1037.7 336.579C1037.3 336.907 1037.11 337.44 1037.11 338.18C1037.11 339.065 1037.28 339.718 1037.62 340.136C1037.95 340.554 1038.58 340.764 1039.5 340.764C1040.02 340.764 1040.56 340.593 1041.12 340.251C1041.69 339.902 1042.18 339.48 1042.59 338.985Z" fill="#707070"/>
<path d="M1064.81 323.962C1066.39 323.962 1067.73 324.377 1068.82 325.207C1069.92 326.03 1070.74 327.187 1071.27 328.68C1071.81 330.166 1072.08 331.944 1072.08 334.016C1072.08 335.529 1071.88 336.917 1071.48 338.18C1071.07 339.435 1070.51 340.492 1069.79 341.35C1069.08 342.201 1068.23 342.863 1067.24 343.337C1066.25 343.812 1065.18 344.049 1064.02 344.049C1063.48 344.049 1062.96 344 1062.46 343.902C1061.96 343.805 1061.52 343.686 1061.15 343.547C1060.78 343.4 1060.41 343.215 1060.05 342.992C1059.7 342.769 1059.41 342.563 1059.17 342.375C1058.94 342.187 1058.71 341.963 1058.47 341.705C1058.24 341.447 1058.07 341.245 1057.96 341.099C1057.85 340.952 1057.73 340.781 1057.59 340.586L1055.61 343.63H1052.93V321.032H1050.9V317.684H1058.6V327.519C1058.88 327.024 1059.21 326.57 1059.58 326.159C1059.95 325.747 1060.39 325.374 1060.89 325.039C1061.39 324.697 1061.98 324.432 1062.65 324.244C1063.32 324.056 1064.04 323.962 1064.81 323.962ZM1058.6 337.364C1058.96 338.221 1059.43 338.905 1060 339.414C1060.58 339.916 1061.26 340.167 1062.04 340.167C1063.38 340.167 1064.37 339.627 1065.02 338.546C1065.68 337.465 1066 335.93 1066 333.942C1066 333.008 1065.9 332.146 1065.68 331.358C1065.47 330.563 1065.19 329.904 1064.83 329.381C1064.48 328.858 1064.07 328.453 1063.61 328.167C1063.15 327.874 1062.67 327.728 1062.17 327.728C1061.43 327.728 1060.77 327.965 1060.21 328.439C1059.65 328.907 1059.11 329.608 1058.6 330.542V337.364Z" fill="#707070"/>
<path d="M1073.12 317.684H1080.82V340.282H1082.85V343.63H1073.12V340.282H1075.14V321.032H1073.12V317.684Z" fill="#707070"/>
<path d="M1090.33 335.261C1090.39 336.07 1090.52 336.792 1090.71 337.426C1090.91 338.061 1091.14 338.581 1091.42 338.985C1091.71 339.39 1092.03 339.724 1092.4 339.99C1092.78 340.248 1093.16 340.432 1093.55 340.544C1093.94 340.649 1094.36 340.701 1094.81 340.701C1096.23 340.701 1097.34 340.418 1098.14 339.854C1098.94 339.282 1099.59 338.403 1100.07 337.217L1102.76 338.18C1102.52 338.856 1102.21 339.494 1101.83 340.094C1101.46 340.687 1101.01 341.235 1100.48 341.737C1099.95 342.239 1099.37 342.671 1098.72 343.034C1098.08 343.39 1097.35 343.669 1096.54 343.871C1095.73 344.073 1094.87 344.174 1093.98 344.174C1092.64 344.174 1091.38 343.934 1090.19 343.452C1089.01 342.971 1087.98 342.302 1087.1 341.444C1086.23 340.579 1085.54 339.515 1085.03 338.253C1084.52 336.99 1084.27 335.616 1084.27 334.131C1084.27 332.645 1084.52 331.264 1085.03 329.988C1085.54 328.711 1086.23 327.637 1087.1 326.765C1087.98 325.887 1089.01 325.2 1090.19 324.704C1091.38 324.209 1092.64 323.962 1093.98 323.962C1095.31 323.962 1096.56 324.209 1097.75 324.704C1098.93 325.2 1099.96 325.887 1100.84 326.765C1101.71 327.637 1102.41 328.711 1102.91 329.988C1103.43 331.264 1103.68 332.645 1103.68 334.131L1103.43 335.261H1090.33ZM1090.4 331.913H1097.55C1097.38 330.309 1096.99 329.14 1096.39 328.408C1095.79 327.676 1094.99 327.31 1094 327.31C1093.5 327.31 1093.06 327.393 1092.67 327.561C1092.28 327.721 1091.92 327.983 1091.61 328.345C1091.3 328.701 1091.04 329.179 1090.83 329.779C1090.63 330.371 1090.49 331.083 1090.4 331.913Z" fill="#707070"/>
<path d="M1118.43 328.503C1118.43 327.446 1118.68 326.704 1119.18 326.275C1119.68 325.846 1120.27 325.632 1120.96 325.632C1121.68 325.632 1122.29 325.846 1122.79 326.275C1123.31 326.704 1123.58 327.446 1123.58 328.503C1123.58 329.532 1123.31 330.275 1122.79 330.732C1122.29 331.189 1121.68 331.417 1120.96 331.417C1120.27 331.417 1119.68 331.189 1119.18 330.732C1118.68 330.275 1118.43 329.532 1118.43 328.503Z" fill="#707070"/>
<path d="M1151.28 317.266C1154.82 317.266 1157.66 318.242 1159.79 320.195C1160.66 320.99 1161.28 321.793 1161.66 322.602C1162.03 323.404 1162.22 324.415 1162.22 325.636C1162.22 326.563 1161.91 327.355 1161.27 328.01C1160.64 328.659 1159.88 328.983 1158.98 328.983C1158.08 328.983 1157.31 328.659 1156.68 328.01C1156.05 327.355 1155.74 326.563 1155.74 325.636C1155.74 325.161 1155.83 324.715 1156.01 324.296C1156.19 323.871 1156.45 323.501 1156.77 323.187C1156.28 322.253 1155.63 321.59 1154.79 321.2C1153.97 320.809 1152.93 320.614 1151.68 320.614C1150.87 320.614 1150.11 320.785 1149.4 321.126C1148.71 321.468 1148.1 321.946 1147.59 322.56C1147.08 323.173 1146.65 323.899 1146.28 324.736C1145.92 325.573 1145.64 326.493 1145.46 327.498C1145.28 328.495 1145.2 329.548 1145.2 330.657C1145.2 331.752 1145.3 332.806 1145.52 333.817C1145.74 334.828 1146.05 335.749 1146.46 336.579C1146.88 337.409 1147.36 338.134 1147.91 338.755C1148.47 339.369 1149.1 339.847 1149.82 340.188C1150.54 340.53 1151.3 340.701 1152.09 340.701C1153.24 340.701 1154.3 340.384 1155.29 339.749C1156.28 339.114 1157.11 338.225 1157.75 337.081C1158.41 335.93 1158.82 334.626 1158.98 333.168L1162.22 334.005C1162.06 334.821 1161.87 335.582 1161.66 336.286C1161.44 336.983 1161.17 337.681 1160.84 338.378C1160.52 339.069 1160.15 339.693 1159.74 340.251C1159.33 340.809 1158.84 341.329 1158.28 341.81C1157.72 342.291 1157.1 342.696 1156.43 343.024C1155.75 343.344 1154.98 343.595 1154.11 343.777C1153.23 343.958 1152.29 344.049 1151.28 344.049C1150.07 344.049 1148.91 343.916 1147.81 343.651C1146.72 343.393 1145.72 343.031 1144.83 342.563C1143.95 342.096 1143.13 341.538 1142.38 340.889C1141.63 340.241 1140.98 339.526 1140.43 338.745C1139.89 337.956 1139.42 337.123 1139.03 336.244C1138.66 335.358 1138.37 334.448 1138.18 333.514C1137.99 332.572 1137.9 331.62 1137.9 330.657C1137.9 329.695 1137.99 328.746 1138.18 327.812C1138.37 326.87 1138.66 325.96 1139.03 325.081C1139.42 324.195 1139.89 323.362 1140.43 322.581C1140.98 321.793 1141.63 321.074 1142.38 320.425C1143.13 319.777 1143.95 319.219 1144.83 318.752C1145.72 318.284 1146.72 317.922 1147.81 317.663C1148.91 317.398 1150.07 317.266 1151.28 317.266Z" fill="#707070"/>
<path d="M1163.84 324.38H1170.14L1171.42 326.922C1172.61 324.949 1174.3 323.962 1176.49 323.962C1177.96 323.962 1179.12 324.429 1179.98 325.364C1180.84 326.291 1181.28 327.498 1181.28 328.983C1181.28 329.911 1180.96 330.703 1180.32 331.358C1179.7 332.007 1178.93 332.331 1178.03 332.331C1177.13 332.331 1176.37 332.007 1175.73 331.358C1175.1 330.703 1174.79 329.911 1174.79 328.983C1174.79 328.607 1174.85 328.244 1174.96 327.895C1174.78 327.784 1174.59 327.728 1174.39 327.728C1173.93 327.728 1173.46 328.035 1172.98 328.649C1172.5 329.255 1172.03 330.166 1171.59 331.379L1171.55 340.282H1176.01V343.63H1163.84V340.282H1165.87V327.728H1163.84V324.38Z" fill="#707070"/>
<path d="M1187.61 321.744L1192.48 316.722C1192.94 316.241 1193.5 316 1194.16 316C1194.81 316 1195.37 316.241 1195.84 316.722C1196.31 317.196 1196.54 317.775 1196.54 318.459C1196.54 319.017 1196.37 319.515 1196.04 319.955C1195.72 320.394 1195.3 320.687 1194.78 320.833L1188.13 322.675C1188.07 322.689 1188.03 322.696 1187.99 322.696C1187.84 322.696 1187.71 322.643 1187.6 322.539C1187.5 322.427 1187.45 322.295 1187.45 322.141C1187.45 321.988 1187.5 321.855 1187.61 321.744ZM1188.35 335.261C1188.41 336.07 1188.54 336.792 1188.74 337.426C1188.93 338.061 1189.17 338.581 1189.45 338.985C1189.73 339.39 1190.06 339.724 1190.43 339.99C1190.8 340.248 1191.18 340.432 1191.57 340.544C1191.97 340.649 1192.38 340.701 1192.83 340.701C1194.26 340.701 1195.37 340.418 1196.16 339.854C1196.97 339.282 1197.61 338.403 1198.09 337.217L1200.79 338.18C1200.54 338.856 1200.23 339.494 1199.85 340.094C1199.48 340.687 1199.03 341.235 1198.51 341.737C1197.98 342.239 1197.39 342.671 1196.74 343.034C1196.1 343.39 1195.37 343.669 1194.56 343.871C1193.75 344.073 1192.9 344.174 1192 344.174C1190.67 344.174 1189.41 343.934 1188.22 343.452C1187.04 342.971 1186.01 342.302 1185.13 341.444C1184.26 340.579 1183.56 339.515 1183.05 338.253C1182.54 336.99 1182.29 335.616 1182.29 334.131C1182.29 332.645 1182.54 331.264 1183.05 329.988C1183.56 328.711 1184.26 327.637 1185.13 326.765C1186.01 325.887 1187.04 325.2 1188.22 324.704C1189.41 324.209 1190.67 323.962 1192 323.962C1193.33 323.962 1194.59 324.209 1195.77 324.704C1196.96 325.2 1197.99 325.887 1198.86 326.765C1199.74 327.637 1200.43 328.711 1200.94 329.988C1201.45 331.264 1201.71 332.645 1201.71 334.131L1201.46 335.261H1188.35ZM1188.42 331.913H1195.58C1195.4 330.309 1195.01 329.14 1194.41 328.408C1193.81 327.676 1193.01 327.31 1192.02 327.31C1191.53 327.31 1191.08 327.393 1190.69 327.561C1190.3 327.721 1189.95 327.983 1189.64 328.345C1189.33 328.701 1189.07 329.179 1188.86 329.779C1188.65 330.371 1188.51 331.083 1188.42 331.913Z" fill="#707070"/>
<path d="M1208.85 321.744L1213.72 316.722C1214.18 316.241 1214.75 316 1215.4 316C1216.06 316 1216.62 316.241 1217.08 316.722C1217.55 317.196 1217.78 317.775 1217.78 318.459C1217.78 319.017 1217.62 319.515 1217.29 319.955C1216.96 320.394 1216.54 320.687 1216.02 320.833L1209.37 322.675C1209.32 322.689 1209.27 322.696 1209.23 322.696C1209.08 322.696 1208.95 322.643 1208.84 322.539C1208.74 322.427 1208.69 322.295 1208.69 322.141C1208.69 321.988 1208.75 321.855 1208.85 321.744ZM1209.59 335.261C1209.65 336.07 1209.78 336.792 1209.98 337.426C1210.17 338.061 1210.41 338.581 1210.69 338.985C1210.97 339.39 1211.3 339.724 1211.67 339.99C1212.04 340.248 1212.42 340.432 1212.82 340.544C1213.21 340.649 1213.63 340.701 1214.07 340.701C1215.5 340.701 1216.61 340.418 1217.41 339.854C1218.21 339.282 1218.85 338.403 1219.33 337.217L1222.03 338.18C1221.79 338.856 1221.47 339.494 1221.1 340.094C1220.72 340.687 1220.28 341.235 1219.75 341.737C1219.22 342.239 1218.63 342.671 1217.99 343.034C1217.34 343.39 1216.62 343.669 1215.81 343.871C1215 344.073 1214.14 344.174 1213.24 344.174C1211.91 344.174 1210.65 343.934 1209.46 343.452C1208.28 342.971 1207.25 342.302 1206.37 341.444C1205.5 340.579 1204.81 339.515 1204.29 338.253C1203.79 336.99 1203.53 335.616 1203.53 334.131C1203.53 332.645 1203.79 331.264 1204.29 329.988C1204.81 328.711 1205.5 327.637 1206.37 326.765C1207.25 325.887 1208.28 325.2 1209.46 324.704C1210.65 324.209 1211.91 323.962 1213.24 323.962C1214.57 323.962 1215.83 324.209 1217.01 324.704C1218.2 325.2 1219.23 325.887 1220.1 326.765C1220.98 327.637 1221.67 328.711 1222.18 329.988C1222.69 331.264 1222.95 332.645 1222.95 334.131L1222.7 335.261H1209.59ZM1209.66 331.913H1216.82C1216.64 330.309 1216.26 329.14 1215.65 328.408C1215.05 327.676 1214.26 327.31 1213.26 327.31C1212.77 327.31 1212.33 327.393 1211.93 327.561C1211.54 327.721 1211.19 327.983 1210.88 328.345C1210.57 328.701 1210.31 329.179 1210.1 329.779C1209.9 330.371 1209.75 331.083 1209.66 331.913Z" fill="#707070"/>
<path d="M1230.84 335.261C1230.9 336.07 1231.03 336.792 1231.22 337.426C1231.42 338.061 1231.65 338.581 1231.93 338.985C1232.21 339.39 1232.54 339.724 1232.91 339.99C1233.29 340.248 1233.67 340.432 1234.06 340.544C1234.45 340.649 1234.87 340.701 1235.32 340.701C1236.74 340.701 1237.85 340.418 1238.65 339.854C1239.45 339.282 1240.1 338.403 1240.58 337.217L1243.27 338.18C1243.03 338.856 1242.72 339.494 1242.34 340.094C1241.97 340.687 1241.52 341.235 1240.99 341.737C1240.46 342.239 1239.88 342.671 1239.23 343.034C1238.59 343.39 1237.86 343.669 1237.05 343.871C1236.24 344.073 1235.38 344.174 1234.48 344.174C1233.15 344.174 1231.89 343.934 1230.7 343.452C1229.52 342.971 1228.49 342.302 1227.61 341.444C1226.74 340.579 1226.05 339.515 1225.54 338.253C1225.03 336.99 1224.78 335.616 1224.78 334.131C1224.78 332.645 1225.03 331.264 1225.54 329.988C1226.05 328.711 1226.74 327.637 1227.61 326.765C1228.49 325.887 1229.52 325.2 1230.7 324.704C1231.89 324.209 1233.15 323.962 1234.48 323.962C1235.82 323.962 1237.07 324.209 1238.25 324.704C1239.44 325.2 1240.47 325.887 1241.35 326.765C1242.22 327.637 1242.92 328.711 1243.42 329.988C1243.94 331.264 1244.19 332.645 1244.19 334.131L1243.94 335.261H1230.84ZM1230.91 331.913H1238.06C1237.89 330.309 1237.5 329.14 1236.9 328.408C1236.3 327.676 1235.5 327.31 1234.5 327.31C1234.01 327.31 1233.57 327.393 1233.18 327.561C1232.79 327.721 1232.43 327.983 1232.12 328.345C1231.81 328.701 1231.55 329.179 1231.34 329.779C1231.14 330.371 1230.99 331.083 1230.91 331.913Z" fill="#707070"/>
<path d="M1263.02 335.261C1263.09 336.07 1263.21 336.792 1263.41 337.426C1263.61 338.061 1263.84 338.581 1264.12 338.985C1264.4 339.39 1264.73 339.724 1265.1 339.99C1265.47 340.248 1265.86 340.432 1266.25 340.544C1266.64 340.649 1267.06 340.701 1267.5 340.701C1268.93 340.701 1270.04 340.418 1270.84 339.854C1271.64 339.282 1272.28 338.403 1272.76 337.217L1275.46 338.18C1275.22 338.856 1274.91 339.494 1274.53 340.094C1274.16 340.687 1273.71 341.235 1273.18 341.737C1272.65 342.239 1272.06 342.671 1271.42 343.034C1270.77 343.39 1270.05 343.669 1269.24 343.871C1268.43 344.073 1267.57 344.174 1266.67 344.174C1265.34 344.174 1264.08 343.934 1262.89 343.452C1261.71 342.971 1260.68 342.302 1259.8 341.444C1258.93 340.579 1258.24 339.515 1257.72 338.253C1257.22 336.99 1256.96 335.616 1256.96 334.131C1256.96 332.645 1257.22 331.264 1257.72 329.988C1258.24 328.711 1258.93 327.637 1259.8 326.765C1260.68 325.887 1261.71 325.2 1262.89 324.704C1264.08 324.209 1265.34 323.962 1266.67 323.962C1268 323.962 1269.26 324.209 1270.44 324.704C1271.63 325.2 1272.66 325.887 1273.53 326.765C1274.41 327.637 1275.11 328.711 1275.61 329.988C1276.13 331.264 1276.38 332.645 1276.38 334.131L1276.13 335.261H1263.02ZM1263.1 331.913H1270.25C1270.07 330.309 1269.69 329.14 1269.08 328.408C1268.48 327.676 1267.69 327.31 1266.69 327.31C1266.2 327.31 1265.76 327.393 1265.37 327.561C1264.97 327.721 1264.62 327.983 1264.31 328.345C1264 328.701 1263.74 329.179 1263.53 329.779C1263.33 330.371 1263.18 331.083 1263.1 331.913Z" fill="#707070"/>
<path d="M1291.38 323.962C1292.33 323.962 1293.16 324.094 1293.86 324.359C1294.57 324.624 1295.16 324.99 1295.61 325.458C1296.06 325.918 1296.43 326.507 1296.7 327.226C1296.99 327.937 1297.18 328.704 1297.29 329.527C1297.41 330.344 1297.46 331.278 1297.46 332.331V340.282H1299.49V343.63H1289.76V340.282H1291.79V331.913C1291.79 330.811 1291.69 329.953 1291.49 329.339C1291.3 328.725 1291.03 328.303 1290.66 328.073C1290.3 327.843 1289.81 327.728 1289.19 327.728C1288.62 327.728 1288.04 327.976 1287.45 328.471C1286.85 328.966 1286.29 329.656 1285.76 330.542L1285.71 340.282H1287.73V343.63H1278V340.282H1280.03V327.728H1278V324.38H1284.3L1285.72 327.215C1285.97 326.748 1286.25 326.33 1286.58 325.96C1286.91 325.583 1287.3 325.241 1287.75 324.935C1288.21 324.621 1288.75 324.38 1289.36 324.213C1289.98 324.045 1290.65 323.962 1291.38 323.962Z" fill="#707070"/>
<path d="M1313.27 343.63C1313.27 343.051 1313.33 342.48 1313.43 341.915C1313.55 341.35 1313.7 340.82 1313.89 340.324C1314.08 339.829 1314.32 339.33 1314.61 338.828C1314.91 338.319 1315.21 337.855 1315.51 337.437C1315.82 337.011 1316.18 336.575 1316.6 336.129C1317.01 335.676 1317.4 335.271 1317.76 334.915C1318.13 334.56 1318.55 334.18 1319.02 333.775C1319.49 333.364 1319.91 333.008 1320.28 332.708C1320.64 332.408 1321.06 332.073 1321.52 331.704C1321.64 331.613 1321.73 331.543 1321.79 331.494C1322.88 330.616 1323.69 329.629 1324.23 328.534C1324.76 327.439 1325.03 326.333 1325.03 325.217C1325.03 323.745 1324.65 322.612 1323.88 321.817C1323.13 321.015 1322.02 320.614 1320.57 320.614C1319.93 320.614 1319.28 320.771 1318.61 321.085C1317.95 321.391 1317.4 321.803 1316.95 322.319C1317.75 322.424 1318.41 322.793 1318.95 323.428C1319.49 324.056 1319.76 324.792 1319.76 325.636C1319.76 326.563 1319.44 327.355 1318.81 328.01C1318.18 328.659 1317.41 328.983 1316.52 328.983C1315.89 328.983 1315.31 328.816 1314.79 328.481C1314.27 328.139 1313.88 327.686 1313.61 327.121C1313.2 326.333 1313 325.489 1313 324.589C1313 323.857 1313.13 323.135 1313.4 322.424C1313.67 321.712 1314.08 321.05 1314.61 320.436C1315.14 319.815 1315.78 319.268 1316.51 318.793C1317.24 318.319 1318.09 317.946 1319.07 317.674C1320.05 317.402 1321.09 317.266 1322.19 317.266C1323.56 317.266 1324.8 317.409 1325.91 317.695C1327.03 317.974 1327.95 318.354 1328.69 318.835C1329.42 319.31 1330.04 319.874 1330.53 320.53C1331.03 321.179 1331.38 321.859 1331.6 322.57C1331.81 323.275 1331.92 324.017 1331.92 324.799C1331.92 325.559 1331.84 326.277 1331.68 326.954C1331.52 327.623 1331.31 328.213 1331.05 328.722C1330.79 329.231 1330.47 329.723 1330.08 330.197C1329.68 330.671 1329.29 331.079 1328.88 331.421C1328.48 331.763 1328.03 332.115 1327.52 332.478C1327.02 332.84 1326.55 333.158 1326.11 333.43C1325.68 333.695 1325.21 333.998 1324.69 334.34C1324.19 334.675 1323.76 334.982 1323.41 335.261C1323.05 335.54 1322.62 335.854 1322.13 336.202C1321.64 336.551 1321.26 336.83 1320.98 337.039C1320.7 337.241 1320.38 337.514 1320.03 337.855C1319.69 338.197 1319.37 338.57 1319.09 338.975C1319.86 338.731 1320.62 338.609 1321.38 338.609H1326.65C1326.93 338.609 1327.19 338.497 1327.41 338.274C1327.63 338.044 1327.8 337.751 1327.92 337.395C1328.04 337.039 1328.13 336.68 1328.18 336.317C1328.24 335.955 1328.27 335.602 1328.27 335.261V333.587H1331.92V343.63H1313.27Z" fill="#707070"/>
<path d="M1342.49 317.705C1343.4 317.412 1344.33 317.266 1345.3 317.266C1346.27 317.266 1347.2 317.412 1348.1 317.705C1349 317.991 1349.84 318.403 1350.62 318.94C1351.4 319.477 1352.11 320.143 1352.75 320.938C1353.4 321.733 1353.95 322.622 1354.4 323.606C1354.85 324.582 1355.2 325.677 1355.45 326.891C1355.71 328.098 1355.84 329.364 1355.84 330.689C1355.84 332.014 1355.71 333.283 1355.45 334.497C1355.2 335.704 1354.85 336.799 1354.4 337.782C1353.95 338.758 1353.4 339.644 1352.75 340.439C1352.11 341.235 1351.4 341.901 1350.62 342.438C1349.84 342.975 1349 343.386 1348.1 343.672C1347.2 343.965 1346.27 344.112 1345.3 344.112C1344.33 344.112 1343.4 343.965 1342.49 343.672C1341.59 343.386 1340.76 342.975 1339.98 342.438C1339.2 341.901 1338.49 341.235 1337.84 340.439C1337.2 339.644 1336.65 338.758 1336.2 337.782C1335.75 336.799 1335.39 335.704 1335.13 334.497C1334.88 333.283 1334.76 332.014 1334.76 330.689C1334.76 329.364 1334.88 328.098 1335.13 326.891C1335.39 325.677 1335.75 324.582 1336.2 323.606C1336.65 322.622 1337.2 321.733 1337.84 320.938C1338.49 320.143 1339.2 319.477 1339.98 318.94C1340.76 318.403 1341.59 317.991 1342.49 317.705ZM1345.3 320.614C1344.83 320.614 1344.41 320.718 1344.04 320.928C1343.68 321.137 1343.34 321.486 1343.04 321.974C1342.73 322.455 1342.48 323.079 1342.28 323.847C1342.08 324.614 1341.92 325.569 1341.81 326.713C1341.7 327.857 1341.65 329.182 1341.65 330.689C1341.65 332.195 1341.7 333.52 1341.81 334.664C1341.92 335.808 1342.08 336.764 1342.28 337.531C1342.48 338.298 1342.73 338.926 1343.04 339.414C1343.34 339.895 1343.68 340.241 1344.04 340.45C1344.41 340.659 1344.83 340.764 1345.3 340.764C1345.89 340.764 1346.4 340.589 1346.83 340.241C1347.27 339.885 1347.65 339.32 1347.96 338.546C1348.29 337.765 1348.53 336.722 1348.69 335.418C1348.86 334.106 1348.95 332.53 1348.95 330.689C1348.95 328.847 1348.86 327.275 1348.69 325.97C1348.53 324.659 1348.29 323.616 1347.96 322.842C1347.65 322.061 1347.27 321.496 1346.83 321.147C1346.4 320.792 1345.89 320.614 1345.3 320.614Z" fill="#707070"/>
<path d="M1358.68 343.63C1358.68 343.051 1358.73 342.48 1358.84 341.915C1358.95 341.35 1359.11 340.82 1359.3 340.324C1359.48 339.829 1359.72 339.33 1360.01 338.828C1360.31 338.319 1360.61 337.855 1360.92 337.437C1361.23 337.011 1361.59 336.575 1362 336.129C1362.41 335.676 1362.8 335.271 1363.17 334.915C1363.54 334.56 1363.96 334.18 1364.42 333.775C1364.9 333.364 1365.32 333.008 1365.68 332.708C1366.04 332.408 1366.46 332.073 1366.93 331.704C1367.04 331.613 1367.13 331.543 1367.19 331.494C1368.28 330.616 1369.1 329.629 1369.63 328.534C1370.17 327.439 1370.43 326.333 1370.43 325.217C1370.43 323.745 1370.05 322.612 1369.29 321.817C1368.53 321.015 1367.43 320.614 1365.97 320.614C1365.34 320.614 1364.69 320.771 1364.02 321.085C1363.36 321.391 1362.8 321.803 1362.36 322.319C1363.15 322.424 1363.82 322.793 1364.35 323.428C1364.89 324.056 1365.16 324.792 1365.16 325.636C1365.16 326.563 1364.85 327.355 1364.21 328.01C1363.58 328.659 1362.82 328.983 1361.92 328.983C1361.29 328.983 1360.72 328.816 1360.2 328.481C1359.68 328.139 1359.28 327.686 1359.01 327.121C1358.61 326.333 1358.4 325.489 1358.4 324.589C1358.4 323.857 1358.54 323.135 1358.81 322.424C1359.08 321.712 1359.48 321.05 1360.01 320.436C1360.55 319.815 1361.18 319.268 1361.91 318.793C1362.64 318.319 1363.49 317.946 1364.47 317.674C1365.45 317.402 1366.49 317.266 1367.6 317.266C1368.97 317.266 1370.21 317.409 1371.32 317.695C1372.43 317.974 1373.36 318.354 1374.09 318.835C1374.83 319.31 1375.44 319.874 1375.94 320.53C1376.43 321.179 1376.78 321.859 1377 322.57C1377.22 323.275 1377.32 324.017 1377.32 324.799C1377.32 325.559 1377.24 326.277 1377.08 326.954C1376.93 327.623 1376.72 328.213 1376.45 328.722C1376.2 329.231 1375.87 329.723 1375.48 330.197C1375.09 330.671 1374.69 331.079 1374.28 331.421C1373.89 331.763 1373.43 332.115 1372.93 332.478C1372.42 332.84 1371.95 333.158 1371.52 333.43C1371.09 333.695 1370.61 333.998 1370.1 334.34C1369.59 334.675 1369.16 334.982 1368.81 335.261C1368.45 335.54 1368.03 335.854 1367.53 336.202C1367.05 336.551 1366.66 336.83 1366.38 337.039C1366.1 337.241 1365.79 337.514 1365.44 337.855C1365.09 338.197 1364.78 338.57 1364.49 338.975C1365.26 338.731 1366.03 338.609 1366.78 338.609H1372.05C1372.34 338.609 1372.59 338.497 1372.81 338.274C1373.04 338.044 1373.21 337.751 1373.32 337.395C1373.44 337.039 1373.53 336.68 1373.59 336.317C1373.65 335.955 1373.68 335.602 1373.68 335.261V333.587H1377.32V343.63H1358.68Z" fill="#707070"/>
<path d="M1389.08 317.684H1393.95V340.282H1398V343.63H1383.41V340.282H1387.46V324.38H1383.41V321.032H1384.22C1384.66 321.032 1385.03 321.011 1385.35 320.969C1385.67 320.921 1385.99 320.83 1386.32 320.697C1386.66 320.558 1386.97 320.366 1387.26 320.122C1387.54 319.871 1387.83 319.547 1388.14 319.149C1388.44 318.752 1388.76 318.263 1389.08 317.684Z" fill="#707070"/>
<defs>
<linearGradient id="paint0_linear_88_2" x1="210.961" y1="144.587" x2="354.06" y2="42.4964" gradientUnits="userSpaceOnUse">
<stop stop-color="#1778AB"/>
<stop offset="1" stop-color="#41A5DA"/>
</linearGradient>
<linearGradient id="paint1_linear_88_2" x1="85.0679" y1="393.841" x2="278.21" y2="17.6975" gradientUnits="userSpaceOnUse">
<stop stop-color="#103652"/>
<stop offset="1" stop-color="#1B5B88"/>
</linearGradient>
<linearGradient id="paint2_linear_88_2" x1="432.948" y1="334.377" x2="266.897" y2="183.217" gradientUnits="userSpaceOnUse">
<stop stop-color="#10522B"/>
<stop offset="1" stop-color="#1B8848"/>
</linearGradient>
<linearGradient id="paint3_linear_88_2" x1="142.565" y1="298.384" x2="257.793" y2="120.132" gradientUnits="userSpaceOnUse">
<stop stop-color="#103652"/>
<stop offset="1" stop-color="#1B5B88"/>
</linearGradient>
</defs>
</svg>
